<svg width="202" height="202" viewBox="0 0 202 202" fill="none" xmlns="http://www.w3.org/2000/svg">
<path d="M171.245 51.5193C169.26 48.2853 167.032 45.1858 164.543 42.252C150.932 26.2116 132.106 11.8102 110.57 11.325C75.0295 10.5242 47.6904 47.7512 39.8795 66.5647C32.0685 85.3782 6.68238 117.802 14.4933 138.216C22.3047 158.631 69.9524 182.248 103.54 186.251C137.128 190.254 158.999 177.445 172.669 158.231C182.287 144.712 184.705 125.402 185.007 109.166C185.378 89.1883 181.664 68.4966 171.245 51.5193Z" fill="#92E3A9"/>
<path opacity="0.7" d="M171.245 51.5193C169.26 48.2853 167.032 45.1858 164.543 42.252C150.932 26.2116 132.106 11.8102 110.57 11.325C75.0295 10.5242 47.6904 47.7512 39.8795 66.5647C32.0685 85.3782 6.68238 117.802 14.4933 138.216C22.3047 158.631 69.9524 182.248 103.54 186.251C137.128 190.254 158.999 177.445 172.669 158.231C182.287 144.712 184.705 125.402 185.007 109.166C185.378 89.1883 181.664 68.4966 171.245 51.5193Z" fill="white"/>
<g opacity="0.2">
<path d="M131.796 16.968H79.2852V164.721H131.796V16.968Z" stroke="#263238" stroke-miterlimit="10" stroke-linecap="round"/>
<path d="M79.5654 21.46H131.692L130.467 17.3982" stroke="#263238" stroke-miterlimit="10" stroke-linecap="round"/>
<path d="M79.5654 26.3792H131.692L130.467 22.3174" stroke="#263238" stroke-miterlimit="10" stroke-linecap="round"/>
<path d="M79.5654 31.2984H131.692L130.467 27.2366" stroke="#263238" stroke-miterlimit="10" stroke-linecap="round"/>
<path d="M79.5654 36.2177H131.692L130.467 32.1555" stroke="#263238" stroke-miterlimit="10" stroke-linecap="round"/>
<path d="M79.5654 41.137H131.692L130.467 37.0752" stroke="#263238" stroke-miterlimit="10" stroke-linecap="round"/>
<path d="M79.5654 46.056H131.692L130.467 41.9941" stroke="#263238" stroke-miterlimit="10" stroke-linecap="round"/>
<path d="M79.5654 50.9751H131.692L130.467 46.9133" stroke="#263238" stroke-miterlimit="10" stroke-linecap="round"/>
<path d="M79.5654 55.8943H131.692L130.467 51.8325" stroke="#263238" stroke-miterlimit="10" stroke-linecap="round"/>
<path d="M79.5654 60.8133H131.692L130.467 56.7515" stroke="#263238" stroke-miterlimit="10" stroke-linecap="round"/>
<path d="M79.5654 65.7325H131.692L130.467 61.6707" stroke="#263238" stroke-miterlimit="10" stroke-linecap="round"/>
<path d="M79.5654 70.6517H131.692L130.467 66.5898" stroke="#263238" stroke-miterlimit="10" stroke-linecap="round"/>
<path d="M79.5654 75.5706H131.692L130.467 71.5088" stroke="#263238" stroke-miterlimit="10" stroke-linecap="round"/>
<path d="M79.5654 80.4898H131.692L130.467 76.428" stroke="#263238" stroke-miterlimit="10" stroke-linecap="round"/>
<path d="M79.5654 85.4087H131.692L130.467 81.3469" stroke="#263238" stroke-miterlimit="10" stroke-linecap="round"/>
<path d="M79.5654 90.3279H131.692L130.467 86.2661" stroke="#263238" stroke-miterlimit="10" stroke-linecap="round"/>
<path d="M79.5654 95.2471H131.692L130.467 91.1853" stroke="#263238" stroke-miterlimit="10" stroke-linecap="round"/>
<path d="M79.5654 100.166H131.692L130.467 96.1042" stroke="#263238" stroke-miterlimit="10" stroke-linecap="round"/>
<path d="M79.5654 105.086H131.692L130.467 101.024" stroke="#263238" stroke-miterlimit="10" stroke-linecap="round"/>
<path d="M79.5654 110.005H131.692L130.467 105.943" stroke="#263238" stroke-miterlimit="10" stroke-linecap="round"/>
<path d="M79.5654 114.924H131.692L130.467 110.862" stroke="#263238" stroke-miterlimit="10" stroke-linecap="round"/>
<path d="M79.5654 119.843H131.692L130.467 115.781" stroke="#263238" stroke-miterlimit="10" stroke-linecap="round"/>
<path d="M79.5654 124.762H131.692L130.467 120.7" stroke="#263238" stroke-miterlimit="10" stroke-linecap="round"/>
<path d="M79.5654 129.681H131.692L130.467 125.619" stroke="#263238" stroke-miterlimit="10" stroke-linecap="round"/>
<path d="M79.5654 134.6H131.692L130.467 130.539" stroke="#263238" stroke-miterlimit="10" stroke-linecap="round"/>
<path d="M79.5654 139.519H131.692L130.467 135.458" stroke="#263238" stroke-miterlimit="10" stroke-linecap="round"/>
<path d="M79.5654 144.439H131.692L130.467 140.377" stroke="#263238" stroke-miterlimit="10" stroke-linecap="round"/>
<path d="M79.5654 149.358H131.692L130.467 145.296" stroke="#263238" stroke-miterlimit="10" stroke-linecap="round"/>
<path d="M79.5654 154.277H131.692L130.467 150.215" stroke="#263238" stroke-miterlimit="10" stroke-linecap="round"/>
<path d="M79.5654 159.196H131.692L130.467 155.134" stroke="#263238" stroke-miterlimit="10" stroke-linecap="round"/>
</g>
<g opacity="0.2">
<path d="M188.264 16.968H135.753V164.721H188.264V16.968Z" stroke="#263238" stroke-miterlimit="10" stroke-linecap="round"/>
<path d="M136.033 21.46H188.159L186.935 17.3982" stroke="#263238" stroke-miterlimit="10" stroke-linecap="round"/>
<path d="M136.033 26.3792H188.159L186.935 22.3174" stroke="#263238" stroke-miterlimit="10" stroke-linecap="round"/>
<path d="M136.033 31.2984H188.159L186.935 27.2366" stroke="#263238" stroke-miterlimit="10" stroke-linecap="round"/>
<path d="M136.033 36.2177H188.159L186.935 32.1555" stroke="#263238" stroke-miterlimit="10" stroke-linecap="round"/>
<path d="M136.033 41.137H188.159L186.935 37.0752" stroke="#263238" stroke-miterlimit="10" stroke-linecap="round"/>
<path d="M136.033 46.056H188.159L186.935 41.9941" stroke="#263238" stroke-miterlimit="10" stroke-linecap="round"/>
<path d="M136.033 50.9751H188.159L186.935 46.9133" stroke="#263238" stroke-miterlimit="10" stroke-linecap="round"/>
<path d="M136.033 55.8943H188.159L186.935 51.8325" stroke="#263238" stroke-miterlimit="10" stroke-linecap="round"/>
<path d="M136.033 60.8133H188.159L186.935 56.7515" stroke="#263238" stroke-miterlimit="10" stroke-linecap="round"/>
<path d="M136.033 65.7325H188.159L186.935 61.6707" stroke="#263238" stroke-miterlimit="10" stroke-linecap="round"/>
<path d="M136.033 70.6517H188.159L186.935 66.5898" stroke="#263238" stroke-miterlimit="10" stroke-linecap="round"/>
<path d="M136.033 75.5706H188.159L186.935 71.5088" stroke="#263238" stroke-miterlimit="10" stroke-linecap="round"/>
<path d="M136.033 80.4898H188.159L186.935 76.428" stroke="#263238" stroke-miterlimit="10" stroke-linecap="round"/>
<path d="M136.033 85.4087H188.159L186.935 81.3469" stroke="#263238" stroke-miterlimit="10" stroke-linecap="round"/>
<path d="M136.033 90.3279H188.159L186.935 86.2661" stroke="#263238" stroke-miterlimit="10" stroke-linecap="round"/>
<path d="M136.033 95.2471H188.159L186.935 91.1853" stroke="#263238" stroke-miterlimit="10" stroke-linecap="round"/>
<path d="M136.033 100.166H188.159L186.935 96.1042" stroke="#263238" stroke-miterlimit="10" stroke-linecap="round"/>
<path d="M136.033 105.086H188.159L186.935 101.024" stroke="#263238" stroke-miterlimit="10" stroke-linecap="round"/>
<path d="M136.033 110.005H188.159L186.935 105.943" stroke="#263238" stroke-miterlimit="10" stroke-linecap="round"/>
<path d="M136.033 114.924H188.159L186.935 110.862" stroke="#263238" stroke-miterlimit="10" stroke-linecap="round"/>
<path d="M136.033 119.843H188.159L186.935 115.781" stroke="#263238" stroke-miterlimit="10" stroke-linecap="round"/>
<path d="M136.033 124.762H188.159L186.935 120.7" stroke="#263238" stroke-miterlimit="10" stroke-linecap="round"/>
<path d="M136.033 129.681H188.159L186.935 125.619" stroke="#263238" stroke-miterlimit="10" stroke-linecap="round"/>
<path d="M136.033 134.6H188.159L186.935 130.539" stroke="#263238" stroke-miterlimit="10" stroke-linecap="round"/>
<path d="M136.033 139.519H188.159L186.935 135.458" stroke="#263238" stroke-miterlimit="10" stroke-linecap="round"/>
<path d="M136.033 144.439H188.159L186.935 140.377" stroke="#263238" stroke-miterlimit="10" stroke-linecap="round"/>
<path d="M136.033 149.358H188.159L186.935 145.296" stroke="#263238" stroke-miterlimit="10" stroke-linecap="round"/>
<path d="M136.033 154.277H188.159L186.935 150.215" stroke="#263238" stroke-miterlimit="10" stroke-linecap="round"/>
<path d="M136.033 159.196H188.159L186.935 155.134" stroke="#263238" stroke-miterlimit="10" stroke-linecap="round"/>
</g>
<g opacity="0.2">
<path d="M61.4081 9.29199H19.3921V63.428H61.4081V9.29199Z" stroke="#263238" stroke-miterlimit="10" stroke-linecap="round"/>
<path d="M58.176 13.4565H22.624V59.2641H58.176V13.4565Z" stroke="#263238" stroke-miterlimit="10" stroke-linecap="round"/>
</g>
<path d="M187.86 170.892H191.092" stroke="#263238" stroke-miterlimit="10"/>
<path d="M9.29199 170.892H184.359" stroke="#263238" stroke-miterlimit="10"/>
<path d="M170.568 21.9114H37.6523V74.4314H170.568V21.9114Z" fill="#D4D4D4"/>
<path d="M49.996 74.4314H46.3374" stroke="#263238" stroke-miterlimit="10"/>
<path d="M170.568 37.6479V74.4313H52.5117" stroke="#263238" stroke-miterlimit="10"/>
<path d="M43.8222 74.4314H37.6523V21.9114H170.568V34.4467" stroke="#263238" stroke-miterlimit="10"/>
<path d="M170.568 21.9114H37.6523V27.1634H170.568V21.9114Z" fill="#263238" stroke="#263238" stroke-miterlimit="10"/>
<path d="M140.268 57.7329H45.3281V64.1969H140.268V57.7329Z" fill="white" stroke="#263238" stroke-miterlimit="10"/>
<path d="M164.878 58.7871H143.353V66.8913H164.878V58.7871Z" fill="#263238"/>
<path d="M164.156 57.3457H142.631V65.4499H164.156V57.3457Z" fill="#D4D4D4" stroke="#263238" stroke-miterlimit="10"/>
<path d="M150.092 60.5664V60.8702H149.735V60.547C149.735 60.2436 149.615 60.0602 149.34 60.0602C149.07 60.0602 148.945 60.2432 148.945 60.547V62.3307C148.945 62.6341 149.07 62.8175 149.34 62.8175C149.615 62.8175 149.735 62.6345 149.735 62.3307V61.8919H150.092V62.3113C150.092 62.8219 149.851 63.1597 149.33 63.1597C148.815 63.1597 148.574 62.8224 148.574 62.3113V60.5664C148.574 60.0558 148.815 59.718 149.33 59.718C149.851 59.718 150.092 60.0554 150.092 60.5664Z" fill="#263238"/>
<path d="M150.815 62.4462L150.684 63.1258H150.337L150.983 59.752H151.528L152.174 63.1258H151.798L151.668 62.4462H150.815ZM150.863 62.1234H151.614L151.234 60.1762L150.863 62.1234Z" fill="#263238"/>
<path d="M152.799 63.1258H152.462V59.752H152.939L153.72 62.1909V59.752H154.052V63.1258H153.662L152.799 60.3975V63.1258H152.799Z" fill="#263238"/>
<path d="M155.926 60.5664V60.8702H155.57V60.547C155.57 60.2436 155.45 60.0602 155.175 60.0602C154.905 60.0602 154.779 60.2432 154.779 60.547V62.3307C154.779 62.6341 154.905 62.8175 155.175 62.8175C155.45 62.8175 155.57 62.6345 155.57 62.3307V61.8919H155.926V62.3113C155.926 62.8219 155.686 63.1597 155.165 63.1597C154.649 63.1597 154.408 62.8224 154.408 62.3113V60.5664C154.408 60.0558 154.649 59.718 155.165 59.718C155.686 59.718 155.926 60.0554 155.926 60.5664Z" fill="#263238"/>
<path d="M157.468 61.2459V61.5833H156.644V62.7836H157.656V63.1258H156.268V59.752H157.656V60.0941H156.644V61.2459H157.468Z" fill="#263238"/>
<path d="M158.003 63.1258V59.752H158.379V62.7836H159.343V63.1258H158.003Z" fill="#263238"/>
<path d="M72.148 33.3971L66.8149 39.856L74.8663 46.504L80.1994 40.0451L72.148 33.3971Z" fill="white" stroke="#263238" stroke-miterlimit="10"/>
<path d="M102.562 40.046L107.895 46.5049L115.946 39.8569L110.613 33.398L102.562 40.046Z" fill="white" stroke="#263238" stroke-miterlimit="10"/>
<path d="M90.51 29.7604L83.8477 34.8372L90.1762 43.1422L96.8385 38.0655L90.51 29.7604Z" fill="white" stroke="#263238" stroke-miterlimit="10"/>
<path d="M54.4197 45.185L54.0157 44.259H48.0567L46.8472 53.749H57.9148L59.1239 45.185H54.4197Z" fill="#92E3A9" stroke="#263238" stroke-miterlimit="10"/>
<path d="M53.8931 38.2213L48.5601 44.6802L56.6114 51.3282L61.9445 44.8694L53.8931 38.2213Z" fill="white" stroke="#263238" stroke-miterlimit="10"/>
<path d="M51.7121 45.185L51.3081 44.259H45.3491L46.6318 53.749H57.699L56.4167 45.185H51.7121Z" fill="#92E3A9" stroke="#263238" stroke-miterlimit="10"/>
<path d="M128.699 45.185L129.103 44.259H135.062L136.271 53.749H125.204L123.995 45.185H128.699Z" fill="#92E3A9" stroke="#263238" stroke-miterlimit="10"/>
<path d="M119.201 44.8703L124.534 51.3291L132.585 44.6811L127.252 38.2222L119.201 44.8703Z" fill="white" stroke="#263238" stroke-miterlimit="10"/>
<path d="M131.406 45.185L131.81 44.259H137.769L136.487 53.749H125.419L126.702 45.185H131.406Z" fill="#92E3A9" stroke="#263238" stroke-miterlimit="10"/>
<path d="M49.9073 58.8098H46.6753V63.1193H49.9073V58.8098Z" fill="#263238" stroke="#263238" stroke-miterlimit="10"/>
<path d="M54.2164 58.8098H50.9844V63.1193H54.2164V58.8098Z" fill="#263238" stroke="#263238" stroke-miterlimit="10"/>
<path d="M58.5259 58.8098H55.2939V63.1193H58.5259V58.8098Z" fill="#263238" stroke="#263238" stroke-miterlimit="10"/>
<path d="M62.8355 58.8098H59.6035V63.1193H62.8355V58.8098Z" fill="#263238" stroke="#263238" stroke-miterlimit="10"/>
<path d="M67.1446 58.8098H63.9126V63.1193H67.1446V58.8098Z" fill="#263238" stroke="#263238" stroke-miterlimit="10"/>
<path d="M71.4537 58.8098H68.2217V63.1193H71.4537V58.8098Z" fill="#263238" stroke="#263238" stroke-miterlimit="10"/>
<path d="M75.7633 58.8098H72.5312V63.1193H75.7633V58.8098Z" fill="#263238" stroke="#263238" stroke-miterlimit="10"/>
<path d="M80.0723 58.8098H76.8403V63.1193H80.0723V58.8098Z" fill="#263238" stroke="#263238" stroke-miterlimit="10"/>
<path d="M84.3819 58.8098H81.1499V63.1193H84.3819V58.8098Z" fill="#263238" stroke="#263238" stroke-miterlimit="10"/>
<path d="M88.6915 58.8098H85.4595V63.1193H88.6915V58.8098Z" fill="#263238" stroke="#263238" stroke-miterlimit="10"/>
<path d="M93.0006 58.8098H89.7686V63.1193H93.0006V58.8098Z" fill="#263238" stroke="#263238" stroke-miterlimit="10"/>
<path d="M97.3096 58.8098H94.0776V63.1193H97.3096V58.8098Z" fill="#263238" stroke="#263238" stroke-miterlimit="10"/>
<path d="M101.619 58.8098H98.3872V63.1193H101.619V58.8098Z" fill="#263238" stroke="#263238" stroke-miterlimit="10"/>
<path d="M105.928 58.8098H102.696V63.1193H105.928V58.8098Z" fill="#263238" stroke="#263238" stroke-miterlimit="10"/>
<path d="M110.238 58.8098H107.006V63.1193H110.238V58.8098Z" fill="#263238" stroke="#263238" stroke-miterlimit="10"/>
<path d="M169.241 22.5295H165.28V26.4908H169.241V22.5295Z" fill="#D4D4D4" stroke="#263238" stroke-miterlimit="10"/>
<path d="M168.769 23.5266L168.504 23.2212L167.295 24.2688L166.086 23.2212L165.822 23.5266L166.987 24.5362L165.822 25.5458L166.086 25.8508L167.295 24.8033L168.504 25.8508L168.769 25.5458L167.603 24.5362L168.769 23.5266Z" fill="#263238"/>
<path d="M174.584 90.635C174.584 90.635 168.24 87.1105 167.77 95.0992C167.3 103.088 166.125 155.015 166.125 155.015" stroke="#263238" stroke-width="2" stroke-miterlimit="10" stroke-linecap="round"/>
<path d="M164.476 95.8032C164.476 95.8032 169.65 107.317 167.3 154.311" stroke="#263238" stroke-width="2" stroke-miterlimit="10" stroke-linecap="round"/>
<path d="M169.559 92.2429C169.559 92.2429 167.132 93.7979 165.751 92.0183C164.371 90.2387 166.685 86.9788 164.645 85.585C162.605 84.1908 159.083 86.3183 159.083 86.3183C159.083 86.3183 161.795 87.115 161.708 88.5956C161.621 90.0763 160.314 90.6362 160.14 89.989C159.966 89.3418 158.673 86.0815 156.47 87.4373C154.267 88.7932 153.931 90.896 153.931 90.896C153.931 90.896 159.058 90.3494 159.368 92.2781C159.679 94.2068 157.265 91.9415 155.15 91.8171C153.035 91.6927 151.106 92.0029 151.243 93.2848C151.379 94.5667 151.043 96.6696 151.043 96.6696C151.043 96.6696 152.835 95.077 155.162 95.2143C157.488 95.3517 157.401 96.8324 155.286 96.7075C153.17 96.5827 151.353 98.5982 151.353 98.5982C151.353 98.5982 153.282 101.896 155.732 103.527C158.183 105.157 159.067 104.573 159.353 103.316C159.64 102.059 158.981 98.8362 160.461 98.9235C161.942 99.0107 158.009 104.51 159.9 104.834C161.792 105.158 163.31 104.611 163.808 103.366C164.306 102.122 164.306 102.122 164.306 102.122C164.306 102.122 163.647 98.8992 163.933 97.6424C164.22 96.3855 164.568 97.68 164.904 99.1857C165.24 100.691 165.45 104.312 166.098 104.138C166.745 103.964 168.811 101.326 169.296 100.294C169.782 99.2612 166.572 96.0999 166.609 95.4656C166.647 94.8309 169.122 96.0385 169.508 96.6978C169.894 97.3572 170.267 98.2286 170.267 98.2286C170.267 98.2286 171.81 97.2582 171.773 94.2843C171.737 91.3101 169.559 92.2429 169.559 92.2429Z" fill="#92E3A9"/>
<path opacity="0.3" d="M169.559 92.2429C169.559 92.2429 167.132 93.7979 165.751 92.0183C164.371 90.2387 166.685 86.9788 164.645 85.585C162.605 84.1908 159.083 86.3183 159.083 86.3183C159.083 86.3183 161.795 87.115 161.708 88.5956C161.621 90.0763 160.314 90.6362 160.14 89.989C159.966 89.3418 158.673 86.0815 156.47 87.4373C154.267 88.7932 153.931 90.896 153.931 90.896C153.931 90.896 159.058 90.3494 159.368 92.2781C159.679 94.2068 157.265 91.9415 155.15 91.8171C153.035 91.6927 151.106 92.0029 151.243 93.2848C151.379 94.5667 151.043 96.6696 151.043 96.6696C151.043 96.6696 152.835 95.077 155.162 95.2143C157.488 95.3517 157.401 96.8324 155.286 96.7075C153.17 96.5827 151.353 98.5982 151.353 98.5982C151.353 98.5982 153.282 101.896 155.732 103.527C158.183 105.157 159.067 104.573 159.353 103.316C159.64 102.059 158.981 98.8362 160.461 98.9235C161.942 99.0107 158.009 104.51 159.9 104.834C161.792 105.158 163.31 104.611 163.808 103.366C164.306 102.122 164.306 102.122 164.306 102.122C164.306 102.122 163.647 98.8992 163.933 97.6424C164.22 96.3855 164.568 97.68 164.904 99.1857C165.24 100.691 165.45 104.312 166.098 104.138C166.745 103.964 168.811 101.326 169.296 100.294C169.782 99.2612 166.572 96.0999 166.609 95.4656C166.647 94.8309 169.122 96.0385 169.508 96.6978C169.894 97.3572 170.267 98.2286 170.267 98.2286C170.267 98.2286 171.81 97.2582 171.773 94.2843C171.737 91.3101 169.559 92.2429 169.559 92.2429Z" fill="#263238"/>
<path d="M157.256 99.2163C158.839 97.2597 161.171 94.6127 163.126 93.3494" stroke="#263238" stroke-miterlimit="10" stroke-linecap="round"/>
<path d="M155.422 101.598C155.422 101.598 155.828 101.033 156.487 100.186" stroke="#263238" stroke-miterlimit="10" stroke-linecap="round"/>
<path d="M164.158 93.8347C164.158 93.8347 166.509 97.1576 166.944 100.579" stroke="#263238" stroke-miterlimit="10" stroke-linecap="round"/>
<path d="M161.495 95.8004C161.495 95.8004 162.155 95.4146 161.905 99.6453" stroke="#263238" stroke-miterlimit="10" stroke-linecap="round"/>
<path d="M163.213 91.8688C163.213 91.8688 164.557 90.6746 163.848 88.2979" stroke="#263238" stroke-miterlimit="10" stroke-linecap="round"/>
<path d="M161.396 93.884L160.438 92.1294" stroke="#263238" stroke-miterlimit="10" stroke-linecap="round"/>
<path d="M159.38 95.6757C159.38 95.6757 156.332 93.3733 154.428 93.261" stroke="#263238" stroke-miterlimit="10" stroke-linecap="round"/>
<path d="M178.209 85.9736C178.209 85.9736 178.111 89.4629 175.388 89.6326C172.665 89.8023 170.98 85.2625 168.193 86.3554C165.407 87.4482 165.136 92.4239 165.136 92.4239C165.136 92.4239 167.783 90.2511 169.206 91.348C170.628 92.4449 170.298 94.1344 169.532 93.8677C168.765 93.6011 164.619 92.6739 164.475 95.8033C164.331 98.9327 166.208 100.703 166.208 100.703C166.208 100.703 169.155 95.1977 171.297 96.2012C173.44 97.2048 169.528 98.0774 167.96 100.11C166.394 102.143 165.39 104.286 166.767 105.023C168.143 105.76 170.019 107.53 170.019 107.53C170.019 107.53 169.646 104.65 171.37 102.414C173.093 100.178 174.516 101.275 172.949 103.308C171.383 105.341 172.162 108.533 172.162 108.533C172.162 108.533 176.778 108.851 180.081 107.508C183.384 106.165 183.401 104.882 182.338 103.739C181.275 102.595 177.599 101.058 178.696 99.6352C179.793 98.2124 182.618 105.898 184.231 104.226C185.845 102.553 186.332 100.66 185.425 99.3129C184.519 97.9663 184.519 97.9663 184.519 97.9663C184.519 97.9663 180.843 96.4291 179.78 95.2858C178.717 94.1425 180.25 94.6761 181.986 95.3662C183.723 96.0562 187.491 98.3134 187.758 97.547C188.025 96.7806 186.793 92.9143 186.09 91.7241C185.387 90.5343 180.034 91.5932 179.424 91.123C178.814 90.6531 181.711 88.9971 182.634 89.0606C183.557 89.124 184.684 89.3442 184.684 89.3442C184.684 89.3442 184.764 87.1379 181.762 85.1478C178.759 83.1573 178.209 85.9736 178.209 85.9736Z" fill="#92E3A9"/>
<path opacity="0.2" d="M178.209 85.9736C178.209 85.9736 178.111 89.4629 175.388 89.6326C172.665 89.8023 170.98 85.2625 168.193 86.3554C165.407 87.4482 165.136 92.4239 165.136 92.4239C165.136 92.4239 167.783 90.2511 169.206 91.348C170.628 92.4449 170.298 94.1344 169.532 93.8677C168.765 93.6011 164.619 92.6739 164.475 95.8033C164.331 98.9327 166.208 100.703 166.208 100.703C166.208 100.703 169.155 95.1977 171.297 96.2012C173.44 97.2048 169.528 98.0774 167.96 100.11C166.394 102.143 165.39 104.286 166.767 105.023C168.143 105.76 170.019 107.53 170.019 107.53C170.019 107.53 169.646 104.65 171.37 102.414C173.093 100.178 174.516 101.275 172.949 103.308C171.383 105.341 172.162 108.533 172.162 108.533C172.162 108.533 176.778 108.851 180.081 107.508C183.384 106.165 183.401 104.882 182.338 103.739C181.275 102.595 177.599 101.058 178.696 99.6352C179.793 98.2124 182.618 105.898 184.231 104.226C185.845 102.553 186.332 100.66 185.425 99.3129C184.519 97.9663 184.519 97.9663 184.519 97.9663C184.519 97.9663 180.843 96.4291 179.78 95.2858C178.717 94.1425 180.25 94.6761 181.986 95.3662C183.723 96.0562 187.491 98.3134 187.758 97.547C188.025 96.7806 186.793 92.9143 186.09 91.7241C185.387 90.5343 180.034 91.5932 179.424 91.123C178.814 90.6531 181.711 88.9971 182.634 89.0606C183.557 89.124 184.684 89.3442 184.684 89.3442C184.684 89.3442 184.764 87.1379 181.762 85.1478C178.759 83.1573 178.209 85.9736 178.209 85.9736Z" fill="#263238"/>
<path d="M176.805 103.044C175.924 100.126 174.864 95.9868 174.931 93.1689" stroke="#263238" stroke-miterlimit="10" stroke-linecap="round"/>
<path d="M177.939 106.504C177.939 106.504 177.65 105.712 177.251 104.476" stroke="#263238" stroke-miterlimit="10" stroke-linecap="round"/>
<path d="M176.121 92.4657C176.121 92.4657 181.05 92.3765 184.773 94.2736" stroke="#263238" stroke-miterlimit="10" stroke-linecap="round"/>
<path d="M176.274 96.4719C176.274 96.4719 176.337 95.5487 180.403 98.6822" stroke="#263238" stroke-miterlimit="10" stroke-linecap="round"/>
<path d="M173.509 92.0719C173.509 92.0719 173.229 89.9122 170.366 89.002" stroke="#263238" stroke-miterlimit="10" stroke-linecap="round"/>
<path d="M174.288 95.2652L171.878 95.0281" stroke="#263238" stroke-miterlimit="10" stroke-linecap="round"/>
<path d="M174.707 98.5044C174.707 98.5044 170.324 99.9867 168.914 101.816" stroke="#263238" stroke-miterlimit="10" stroke-linecap="round"/>
<path d="M148.973 109.197C148.973 109.197 162.836 118.361 162.601 153.84" stroke="#263238" stroke-width="2" stroke-miterlimit="10" stroke-linecap="round"/>
<path d="M166.065 106.776C166.065 106.776 165.624 110.794 162.466 110.732C159.308 110.671 157.791 105.273 154.473 106.271C151.154 107.269 150.372 112.985 150.372 112.985C150.372 112.985 153.631 110.728 155.169 112.128C156.708 113.528 156.167 115.447 155.308 115.066C154.449 114.686 149.752 113.225 149.291 116.823C148.829 120.42 150.827 122.64 150.827 122.64C150.827 122.64 154.748 116.565 157.126 117.926C159.504 119.286 154.906 119.923 152.906 122.121C150.906 124.319 149.546 126.697 151.065 127.677C152.583 128.657 154.581 130.877 154.581 130.877C154.581 130.877 154.423 127.519 156.623 125.101C158.822 122.683 160.361 124.083 158.361 126.281C156.361 128.479 156.959 132.237 156.959 132.237C156.959 132.237 162.256 133.039 166.194 131.801C170.132 130.564 170.273 129.085 169.154 127.665C168.035 126.246 163.939 124.125 165.339 122.587C166.738 121.048 169.273 130.184 171.292 128.406C173.312 126.628 174.052 124.489 173.134 122.85C172.215 121.21 172.215 121.21 172.215 121.21C172.215 121.21 168.118 119.09 167 117.67C165.881 116.251 167.6 117.011 169.538 117.971C171.476 118.932 175.613 121.892 175.993 121.032C176.373 120.173 175.316 115.595 174.617 114.156C173.918 112.716 167.641 113.433 166.982 112.833C166.323 112.233 169.821 110.596 170.881 110.756C171.94 110.917 173.219 111.277 173.219 111.277C173.219 111.277 173.52 108.739 170.243 106.159C166.966 103.579 166.065 106.776 166.065 106.776Z" fill="#92E3A9"/>
<path opacity="0.3" d="M166.065 106.776C166.065 106.776 165.624 110.794 162.466 110.732C159.308 110.671 157.791 105.273 154.473 106.271C151.154 107.269 150.372 112.985 150.372 112.985C150.372 112.985 153.631 110.728 155.169 112.128C156.708 113.528 156.167 115.447 155.308 115.066C154.449 114.686 149.752 113.225 149.291 116.823C148.829 120.42 150.827 122.64 150.827 122.64C150.827 122.64 154.748 116.565 157.126 117.926C159.504 119.286 154.906 119.923 152.906 122.121C150.906 124.319 149.546 126.697 151.065 127.677C152.583 128.657 154.581 130.877 154.581 130.877C154.581 130.877 154.423 127.519 156.623 125.101C158.822 122.683 160.361 124.083 158.361 126.281C156.361 128.479 156.959 132.237 156.959 132.237C156.959 132.237 162.256 133.039 166.194 131.801C170.132 130.564 170.273 129.085 169.154 127.665C168.035 126.246 163.939 124.125 165.339 122.587C166.738 121.048 169.273 130.184 171.292 128.406C173.312 126.628 174.052 124.489 173.134 122.85C172.215 121.21 172.215 121.21 172.215 121.21C172.215 121.21 168.118 119.09 167 117.67C165.881 116.251 167.6 117.011 169.538 117.971C171.476 118.932 175.613 121.892 175.993 121.032C176.373 120.173 175.316 115.595 174.617 114.156C173.918 112.716 167.641 113.433 166.982 112.833C166.323 112.233 169.821 110.596 170.881 110.756C171.94 110.917 173.219 111.277 173.219 111.277C173.219 111.277 173.52 108.739 170.243 106.159C166.966 103.579 166.065 106.776 166.065 106.776Z" fill="#263238"/>
<path d="M162.834 126.342C162.094 122.892 161.26 118.015 161.604 114.77" stroke="#263238" stroke-miterlimit="10" stroke-linecap="round"/>
<path d="M163.816 130.442C163.816 130.442 163.558 129.501 163.215 128.036" stroke="#263238" stroke-miterlimit="10" stroke-linecap="round"/>
<path d="M163.044 114.071C163.044 114.071 168.74 114.433 172.857 116.974" stroke="#263238" stroke-miterlimit="10" stroke-linecap="round"/>
<path d="M162.842 118.708C162.842 118.708 163.002 117.649 167.398 121.648" stroke="#263238" stroke-miterlimit="10" stroke-linecap="round"/>
<path d="M160.066 113.37C160.066 113.37 159.947 110.851 156.729 109.531" stroke="#263238" stroke-miterlimit="10" stroke-linecap="round"/>
<path d="M160.664 117.128L157.906 116.627" stroke="#263238" stroke-miterlimit="10" stroke-linecap="round"/>
<path d="M160.842 120.906C160.842 120.906 155.645 122.203 153.845 124.181" stroke="#263238" stroke-miterlimit="10" stroke-linecap="round"/>
<path d="M154.377 137.158C154.377 137.158 163.306 143.972 164.246 154.075L162.366 120.24" stroke="#263238" stroke-width="2" stroke-miterlimit="10" stroke-linecap="round"/>
<path d="M175.994 132.224C164.246 130.109 164.246 154.076 164.246 154.076" stroke="#263238" stroke-width="2" stroke-miterlimit="10" stroke-linecap="round"/>
<path d="M165.655 153.841C165.655 153.841 158.841 104.263 178.578 104.263" stroke="#263238" stroke-width="2" stroke-miterlimit="10" stroke-linecap="round"/>
<path d="M171.518 130.799C169.913 128.993 166.503 128.993 164.497 133.607C162.491 138.22 164.296 137.418 164.296 137.418C164.296 137.418 168.108 136.215 170.515 135.412C172.922 134.61 176.131 132.604 176.332 133.808C176.533 135.011 174.727 136.215 172.52 136.616C170.314 137.017 164.497 138.622 165.099 139.825C165.701 141.029 167.104 144.64 167.104 144.64C167.104 144.64 169.913 142.233 172.52 140.627C175.128 139.023 176.733 139.624 175.329 141.43C173.924 143.235 169.913 145.241 170.715 147.648C171.517 150.055 176.332 153.064 176.332 153.064C176.332 153.064 176.934 148.049 178.338 146.445C179.742 144.84 179.742 146.645 179.341 149.454C178.94 152.262 178.94 153.065 178.94 153.065L184.556 155.07C184.556 155.07 186.562 152.061 187.565 151.058C188.569 150.055 188.569 150.055 188.569 150.055C188.569 150.055 184.155 146.244 183.955 143.837C183.754 141.43 186.964 143.837 187.967 144.238C188.97 144.639 190.575 147.447 190.575 147.447C190.575 147.447 191.578 142.834 191.778 141.229C191.979 139.624 191.979 139.624 191.979 139.624C191.979 139.624 187.766 138.02 186.161 138.02C184.557 138.02 183.754 139.223 183.754 137.618C183.754 136.014 185.359 135.011 187.165 135.211C188.97 135.412 191.979 136.415 191.979 136.415C191.979 136.415 193.183 135.412 192.781 132.403C192.38 129.394 191.377 129.394 188.97 130.196C186.563 130.999 184.958 132.804 183.153 132.804C181.347 132.804 182.351 130.597 183.554 129.996C184.758 129.394 187.767 128.19 188.369 127.99C188.971 127.789 185.159 124.981 183.153 124.58C181.147 124.179 178.55 125.592 178.74 127.589C179.14 131.802 173.122 132.604 171.518 130.799Z" fill="#92E3A9"/>
<path d="M184.431 151.453C184.49 152.057 184.533 152.662 184.556 153.265" stroke="#263238" stroke-miterlimit="10" stroke-linecap="round"/>
<path d="M180.401 137.052C181.81 140.308 183.439 144.797 184.177 149.482" stroke="#263238" stroke-miterlimit="10" stroke-linecap="round"/>
<path d="M179.679 135.442C178.685 133.305 177.937 132.002 177.937 132.002C177.937 132.002 179.742 131.2 180.545 129.595C181.347 127.99 182.551 127.188 182.551 127.188" stroke="#263238" stroke-miterlimit="10" stroke-linecap="round"/>
<path d="M170.916 138.822C170.916 138.822 178.137 135.813 178.137 136.415" stroke="#263238" stroke-miterlimit="10" stroke-linecap="round"/>
<path d="M182.149 135.011C182.149 135.011 185.359 133.406 188.167 133.406" stroke="#263238" stroke-miterlimit="10" stroke-linecap="round"/>
<path d="M180.946 139.825C180.946 139.825 179.14 141.23 177.134 143.637C175.129 146.044 174.326 148.25 174.326 148.25" stroke="#263238" stroke-miterlimit="10" stroke-linecap="round"/>
<path d="M183.152 140.628C183.152 140.628 187.364 139.424 189.571 141.43" stroke="#263238" stroke-miterlimit="10" stroke-linecap="round"/>
<path d="M190.783 113.523C188.599 112.231 186.183 112.203 185 110.84C183.816 109.476 186.14 108.787 187.383 109.302C188.627 109.816 191.508 111.299 192.054 111.622C192.6 111.945 192.222 107.226 191.21 105.448C190.198 103.67 187.428 102.636 186.045 104.088C183.127 107.153 178.576 103.135 178.887 100.739C179.198 98.344 176.963 95.7689 172.164 97.2787C167.365 98.7884 169.154 99.6259 169.154 99.6259C169.154 99.6259 172.561 101.715 174.745 103.007C176.929 104.298 180.548 105.407 179.771 106.347C178.993 107.288 176.901 106.714 175.151 105.31C173.402 103.907 168.376 100.566 167.862 101.81C167.348 103.053 165.541 106.481 165.541 106.481C165.541 106.481 169.2 107.023 172.122 107.94C175.043 108.857 175.641 110.464 173.357 110.587C171.073 110.71 166.928 108.995 165.636 111.179C164.345 113.364 165.229 118.971 165.229 118.971C165.229 118.971 169.41 116.138 171.542 116.147C173.675 116.155 172.312 117.338 169.928 118.876C167.544 120.415 166.938 120.941 166.938 120.941L169.106 126.497C169.106 126.497 172.693 126.039 174.108 126.139C175.523 126.239 175.523 126.239 175.523 126.239C175.523 126.239 175.508 120.408 177.194 118.679C178.88 116.949 179.167 120.951 179.521 121.971C179.876 122.992 178.807 126.044 178.807 126.044C178.807 126.044 182.948 123.777 184.291 122.876C185.635 121.976 185.635 121.976 185.635 121.976C185.635 121.976 184.085 117.743 183.033 116.531C181.981 115.319 180.546 115.503 181.758 114.451C182.97 113.399 184.779 113.953 185.811 115.448C186.844 116.943 188.058 119.872 188.058 119.872C188.058 119.872 189.605 120.124 191.614 117.848C193.624 115.572 192.967 114.815 190.783 113.523ZM171.799 119.944C170.194 119.142 174.005 117.537 174.005 117.537C175.409 117.336 173.403 120.746 171.799 119.944ZM174.501 112.455C173.817 112.113 175.869 111.429 175.869 111.429C178.833 111.999 175.185 112.797 174.501 112.455Z" fill="#92E3A9"/>
<path d="M171.756 124.03C171.339 124.471 170.91 124.9 170.469 125.314" stroke="#263238" stroke-miterlimit="10" stroke-linecap="round"/>
<path d="M179.988 111.547C178.453 114.745 176.131 118.918 173.077 122.547" stroke="#263238" stroke-miterlimit="10" stroke-linecap="round"/>
<path d="M180.73 109.946C181.693 107.794 182.186 106.375 182.186 106.375C182.186 106.375 183.975 107.213 185.713 106.767C187.451 106.321 188.846 106.704 188.846 106.704" stroke="#263238" stroke-miterlimit="10" stroke-linecap="round"/>
<path d="M172.434 105.545C172.434 105.545 179.44 109.025 178.985 109.42" stroke="#263238" stroke-miterlimit="10" stroke-linecap="round"/>
<path d="M182.676 111.529C182.676 111.529 185.992 112.901 187.833 115.021" stroke="#263238" stroke-miterlimit="10" stroke-linecap="round"/>
<path d="M178.251 113.776C178.251 113.776 176.007 113.334 172.874 113.397C169.742 113.461 167.549 114.301 167.549 114.301" stroke="#263238" stroke-miterlimit="10" stroke-linecap="round"/>
<path d="M179.092 115.969C179.092 115.969 182.762 118.361 182.694 121.342" stroke="#263238" stroke-miterlimit="10" stroke-linecap="round"/>
<path d="M159.612 141.318C157.855 140.279 155.911 140.256 154.958 139.159C154.006 138.062 155.876 137.507 156.877 137.921C157.877 138.335 160.196 139.529 160.635 139.788C161.075 140.048 160.771 136.251 159.956 134.82C159.142 133.39 156.913 132.556 155.799 133.726C153.451 136.192 149.789 132.958 150.039 131.031C150.29 129.103 148.491 127.031 144.628 128.246C140.767 129.461 142.206 130.134 142.206 130.134C142.206 130.134 144.948 131.816 146.706 132.855C148.464 133.895 151.376 134.787 150.75 135.544C150.125 136.3 148.441 135.838 147.033 134.709C145.625 133.58 141.581 130.891 141.167 131.892C140.753 132.893 139.3 135.651 139.3 135.651C139.3 135.651 142.244 136.087 144.595 136.826C146.946 137.564 147.427 138.856 145.589 138.955C143.751 139.054 140.415 137.675 139.376 139.433C138.336 141.19 139.048 145.703 139.048 145.703C139.048 145.703 142.413 143.423 144.129 143.43C145.845 143.436 144.748 144.389 142.829 145.627C140.911 146.865 140.424 147.288 140.424 147.288L142.168 151.759C142.168 151.759 145.055 151.391 146.193 151.471C147.332 151.552 147.332 151.552 147.332 151.552C147.332 151.552 147.32 146.859 148.677 145.467C150.034 144.076 150.264 147.296 150.549 148.117C150.834 148.939 149.975 151.395 149.975 151.395C149.975 151.395 153.308 149.571 154.388 148.846C155.469 148.121 155.469 148.121 155.469 148.121C155.469 148.121 154.222 144.715 153.375 143.74C152.529 142.764 151.374 142.912 152.349 142.065C153.325 141.218 154.781 141.665 155.611 142.867C156.442 144.07 157.42 146.428 157.42 146.428C157.42 146.428 158.664 146.63 160.281 144.799C161.899 142.968 161.369 142.358 159.612 141.318ZM144.335 146.486C143.043 145.84 146.11 144.548 146.11 144.548C147.241 144.387 145.626 147.131 144.335 146.486ZM146.509 140.459C145.959 140.184 147.61 139.633 147.61 139.633C149.996 140.092 147.06 140.734 146.509 140.459Z" fill="#92E3A9"/>
<path d="M144.301 149.774C143.965 150.129 143.62 150.474 143.265 150.807" stroke="#263238" stroke-miterlimit="10" stroke-linecap="round"/>
<path d="M150.926 139.728C149.69 142.302 147.822 145.661 145.364 148.581" stroke="#263238" stroke-miterlimit="10" stroke-linecap="round"/>
<path d="M151.523 138.439C152.297 136.708 152.695 135.566 152.695 135.566C152.695 135.566 154.134 136.24 155.533 135.881C156.932 135.522 158.054 135.83 158.054 135.83" stroke="#263238" stroke-miterlimit="10" stroke-linecap="round"/>
<path d="M144.846 134.898C144.846 134.898 150.484 137.699 150.118 138.016" stroke="#263238" stroke-miterlimit="10" stroke-linecap="round"/>
<path d="M153.088 139.714C153.088 139.714 155.757 140.817 157.238 142.524" stroke="#263238" stroke-miterlimit="10" stroke-linecap="round"/>
<path d="M149.528 141.522C149.528 141.522 147.722 141.166 145.201 141.217C142.68 141.268 140.916 141.944 140.916 141.944" stroke="#263238" stroke-miterlimit="10" stroke-linecap="round"/>
<path d="M150.204 143.286C150.204 143.286 153.158 145.211 153.103 147.61" stroke="#263238" stroke-miterlimit="10" stroke-linecap="round"/>
<path d="M152.445 108.194C152.445 108.194 150.239 109.798 148.835 108.194C147.43 106.589 149.436 103.379 147.43 102.176C145.424 100.972 142.215 103.179 142.215 103.179C142.215 103.179 144.822 103.78 144.822 105.185C144.822 106.589 143.619 107.19 143.418 106.589C143.217 105.987 141.813 102.978 139.807 104.382C137.801 105.787 137.601 107.792 137.601 107.792C137.601 107.792 142.415 106.99 142.816 108.796C143.217 110.601 140.81 108.595 138.804 108.595C136.799 108.595 134.993 108.996 135.193 110.2C135.394 111.403 135.193 113.409 135.193 113.409C135.193 113.409 136.798 111.805 139.005 111.805C141.211 111.805 141.211 113.209 139.205 113.209C137.199 113.209 135.594 115.215 135.594 115.215C135.594 115.215 137.6 118.224 140.008 119.628C142.415 121.032 143.217 120.43 143.418 119.226C143.618 118.023 142.816 115.014 144.22 115.014C145.624 115.014 142.214 120.43 144.019 120.631C145.825 120.831 147.229 120.23 147.63 119.026C148.031 117.823 148.031 117.823 148.031 117.823C148.031 117.823 147.229 114.814 147.429 113.61C147.629 112.406 148.031 113.61 148.432 115.014C148.833 116.419 149.234 119.829 149.836 119.628C150.438 119.428 152.243 116.82 152.645 115.817C153.046 114.814 149.836 112.005 149.836 111.403C149.836 110.801 152.243 111.805 152.645 112.406C153.046 113.008 153.447 113.811 153.447 113.811C153.447 113.811 154.851 112.808 154.651 109.999C154.451 107.191 152.445 108.194 152.445 108.194Z" fill="#92E3A9"/>
<path d="M141.208 115.469C142.595 113.532 144.651 110.9 146.427 109.598" stroke="#263238" stroke-miterlimit="10" stroke-linecap="round"/>
<path d="M139.607 117.822C139.607 117.822 139.96 117.265 140.535 116.429" stroke="#263238" stroke-miterlimit="10" stroke-linecap="round"/>
<path d="M147.431 109.999C147.431 109.999 149.838 113.008 150.44 116.217" stroke="#263238" stroke-miterlimit="10" stroke-linecap="round"/>
<path d="M145.023 112.005C145.023 112.005 145.625 111.604 145.625 115.616" stroke="#263238" stroke-miterlimit="10" stroke-linecap="round"/>
<path d="M146.428 108.194C146.428 108.194 147.631 106.99 146.829 104.783" stroke="#263238" stroke-miterlimit="10" stroke-linecap="round"/>
<path d="M144.823 110.2L143.82 108.595" stroke="#263238" stroke-miterlimit="10" stroke-linecap="round"/>
<path d="M143.018 112.005C143.018 112.005 140.009 109.999 138.203 109.999" stroke="#263238" stroke-miterlimit="10" stroke-linecap="round"/>
<path d="M172.704 153.136H157.197V175.458H172.704V153.136Z" fill="#263238" stroke="#263238" stroke-width="2" stroke-miterlimit="10" stroke-linecap="round"/>
<path d="M53.8813 185.467C74.9375 185.467 92.0068 181.803 92.0068 177.283C92.0068 172.763 74.9375 169.099 53.8813 169.099C32.8252 169.099 15.7559 172.763 15.7559 177.283C15.7559 181.803 32.8252 185.467 53.8813 185.467Z" fill="#263238"/>
<path d="M42.0362 112.19C42.0362 112.19 42.8636 116.068 42.9149 116.378C42.9666 116.688 31.3343 123.203 30.5586 123.823C29.7829 124.444 28.3354 124.805 28.3871 125.477C28.4388 126.15 37.383 145.692 38.0552 149.621C38.7275 153.55 40.0716 160.272 40.0716 160.272L40.6404 164.356H69.8508L69.7991 141.97C69.7991 141.97 70.7146 119.704 70.6112 119.187C70.5077 118.67 69.7325 118.308 69.5773 118.257C69.4222 118.205 56.3055 116.379 54.5994 115.913C52.8933 115.448 52.2728 114 52.1176 113.431C51.9625 112.863 48.2401 111.622 45.7587 111.312C43.2769 111.001 41.9845 111.622 42.0362 112.19Z" fill="white" stroke="#263238" stroke-miterlimit="10"/>
<path d="M68.9922 118.165C66.4106 117.782 56.0989 116.322 54.5993 115.913C54.0611 115.766 53.6317 115.521 53.2899 115.238L42.2712 116.866C39.8339 118.447 31.2226 123.292 30.5588 123.823C30.5479 123.832 30.5358 123.84 30.5249 123.848L68.9922 118.165Z" fill="#92E3A9" stroke="#263238" stroke-miterlimit="10"/>
<path d="M69.8035 143.691L37.7529 148.426C37.8992 148.91 38.0026 149.314 38.0555 149.622C38.2511 150.764 38.5032 152.143 38.7629 153.524L69.8156 148.936L69.8035 143.691Z" fill="#92E3A9" stroke="#263238" stroke-miterlimit="10"/>
<path d="M69.8271 153.985L39.7085 158.434C39.9267 159.545 40.0721 160.272 40.0721 160.272L40.5298 163.56L69.8392 159.23L69.8271 153.985Z" fill="#92E3A9" stroke="#263238" stroke-miterlimit="10"/>
<path d="M70.3389 128.264C70.4108 126.335 70.4771 124.499 70.5272 122.989L29.8335 129.001C30.4334 130.394 31.174 132.1 31.963 133.933L70.3389 128.264Z" fill="#92E3A9" stroke="#263238" stroke-miterlimit="10"/>
<path d="M69.935 138.621C69.9944 137.145 70.0679 135.303 70.1442 133.343L33.9858 138.685C34.7054 140.398 35.4023 142.091 36.0115 143.632L69.935 138.621Z" fill="#92E3A9" stroke="#263238" stroke-miterlimit="10"/>
<path d="M38.5068 119.133C39.935 123.5 43.8534 126.638 48.4662 126.638C53.9069 126.638 58.3836 122.275 58.9448 116.675C56.8606 116.35 55.1456 116.062 54.5994 115.913C52.8933 115.448 52.2727 114 52.1176 113.431C51.9625 112.862 48.24 111.622 45.7586 111.311C43.2769 111.001 41.9845 111.622 42.0362 112.19C42.0362 112.19 42.8636 116.068 42.9153 116.378C42.9367 116.508 40.9191 117.72 38.5068 119.133Z" fill="#263238" stroke="#263238" stroke-miterlimit="10"/>
<path d="M84.0525 157.711C84.0525 157.711 73.8923 160.569 71.5637 160.992C69.2354 161.416 65.9545 161.627 65.9545 161.627C65.9545 161.627 40.9772 160.992 40.3421 160.886C39.707 160.781 27.5361 155.277 27.5361 155.277C27.5361 155.277 51.0316 174.54 53.5719 175.704C56.1119 176.868 60.8746 175.068 63.7321 173.375C66.5896 171.682 84.0525 157.711 84.0525 157.711Z" fill="#263238" stroke="#263238" stroke-miterlimit="10"/>
<path d="M40.125 118.179C40.7128 120.2 42.896 125.362 49.6651 124.093C55.0524 123.083 56.9698 119.171 57.6537 116.51C56.2313 116.261 55.075 116.043 54.5991 115.913C52.893 115.448 52.2725 114 52.1173 113.431C51.9622 112.862 48.2397 111.622 45.7584 111.311C43.2766 111.001 41.9842 111.622 42.0359 112.19C42.0359 112.19 42.8633 116.068 42.915 116.378C42.9316 116.477 41.7559 117.209 40.125 118.179Z" fill="#D4D4D4" stroke="#263238" stroke-miterlimit="10"/>
<path d="M42.0361 112.19C42.0361 112.19 42.47 114.223 42.729 115.463C44.4666 116.214 47.3645 117.231 48.9486 116.476C50.38 115.795 51.6016 114.744 52.3442 114.019C52.2307 113.786 52.158 113.579 52.118 113.431C52.0925 113.338 51.9693 113.227 51.7729 113.104L50.4107 112.99L44.427 111.23C42.8199 111.247 41.9949 111.735 42.0361 112.19Z" fill="#263238" stroke="#263238" stroke-miterlimit="10"/>
<path d="M38.2152 88.3678C38.2152 88.3678 32.1831 92.0607 32.6756 95.1384C33.168 98.2161 35.384 104.248 35.384 104.248C35.384 104.248 33.168 102.032 33.0448 104.741C32.9216 107.449 35.0143 108.557 35.63 108.557C36.2457 108.557 36.9842 108.311 36.9842 108.311C36.9842 108.311 40.0619 111.881 41.2929 112.373C42.5239 112.866 47.2018 114.959 48.8024 114.959C50.4027 114.959 52.9879 114.343 53.4804 113.358C53.9728 112.373 55.327 106.218 55.0806 105.11C54.8346 104.003 52.4954 94.031 52.0029 92.8C51.5104 91.5691 51.3876 88.9839 47.9403 87.3832C44.4938 85.7826 38.2152 88.3678 38.2152 88.3678Z" fill="#D4D4D4" stroke="#263238" stroke-miterlimit="10"/>
<path d="M47.9408 87.3827C44.4939 85.7825 38.2157 88.3677 38.2157 88.3677C38.2157 88.3677 32.1836 92.0607 32.6761 95.1383C33.1685 98.216 35.3845 104.248 35.3845 104.248C35.3845 104.248 36.4926 105.356 37.1079 104.741C37.7236 104.125 35.5077 101.294 35.5077 101.294C35.5077 101.294 35.6309 100.186 35.6309 98.9549C35.6309 97.7239 35.0152 96.3697 34.1535 95.1387C33.2917 93.9077 35.7537 90.0916 37.6004 89.7219C39.4471 89.3526 42.1551 89.9679 43.6325 89.2294C45.11 88.4909 45.11 87.506 45.11 87.506C45.11 87.506 45.4792 87.2599 47.0795 87.2599C47.3647 87.2599 47.6657 87.3124 47.9679 87.3961C47.9582 87.3912 47.9497 87.3868 47.9408 87.3827Z" fill="#263238" stroke="#263238" stroke-miterlimit="10"/>
<path d="M45.058 97.7317L37.5469 100.871C37.5469 100.871 38.1541 103.68 38.794 104.27C39.434 104.86 40.3151 105.317 42.3912 104.863C44.4674 104.409 46.3852 103.099 46.3452 102.115C46.3052 101.131 45.058 97.7317 45.058 97.7317Z" stroke="#263238" stroke-width="2" stroke-miterlimit="10" stroke-linecap="round"/>
<path d="M47.2222 97.015L55.0028 94.6208C55.0028 94.6208 56.334 97.1681 56.2197 98.031C56.1053 98.894 55.7207 99.809 53.8348 100.789C51.949 101.768 49.6369 101.989 49.0377 101.207C48.439 100.425 47.2222 97.015 47.2222 97.015Z" stroke="#263238" stroke-width="2" stroke-miterlimit="10" stroke-linecap="round"/>
<path d="M45.0576 97.7315C45.0576 97.7315 46.1347 96.7571 47.2218 97.0148" stroke="#263238" stroke-width="2" stroke-miterlimit="10" stroke-linecap="round"/>
<path d="M45.5391 98.8556C45.5391 98.8556 46.5002 97.5552 47.631 98.0642" stroke="#263238" stroke-width="2" stroke-miterlimit="10" stroke-linecap="round"/>
<path d="M37.5467 100.871L35.1934 104.17" stroke="#263238" stroke-width="2" stroke-miterlimit="10" stroke-linecap="round"/>
<path d="M55.0026 94.6208L53.0581 96.1985" stroke="#263238" stroke-width="2" stroke-miterlimit="10" stroke-linecap="round"/>
<path d="M43.3055 100.778C43.602 100.778 43.8424 100.537 43.8424 100.241C43.8424 99.9442 43.602 99.7039 43.3055 99.7039C43.0089 99.7039 42.7686 99.9442 42.7686 100.241C42.7686 100.537 43.0089 100.778 43.3055 100.778Z" fill="#263238"/>
<path d="M51.1927 98.149C51.4892 98.149 51.7296 97.9086 51.7296 97.6121C51.7296 97.3156 51.4892 97.0752 51.1927 97.0752C50.8961 97.0752 50.6558 97.3156 50.6558 97.6121C50.6558 97.9086 50.8961 98.149 51.1927 98.149Z" fill="#263238"/>
<path d="M42.8821 96.3681C42.8821 96.3681 40.2249 95.5766 39.377 98.3469" stroke="#263238" stroke-width="2" stroke-miterlimit="10" stroke-linecap="round"/>
<path d="M48.0264 95.5766C48.0264 95.5766 48.5916 93.9371 51.4184 94.7286" stroke="#263238" stroke-width="2" stroke-miterlimit="10" stroke-linecap="round"/>
<path d="M48.1395 100.043C48.1395 100.043 48.9875 101.852 49.6658 102.135C50.3441 102.418 51.9836 102.926 51.1356 103.548C50.2876 104.17 48.4785 105.075 47.687 105.075C46.8956 105.075 46.6128 104.453 46.6128 104.453" stroke="#263238" stroke-miterlimit="10"/>
<path d="M50.2316 106.996C50.2316 106.996 48.5922 108.071 46.3872 107.901C44.1821 107.731 43.7866 106.714 43.7866 106.714" stroke="#263238" stroke-miterlimit="10"/>
<path d="M44.2383 106.205L43.1079 107.279" stroke="#263238" stroke-miterlimit="10"/>
<path d="M22.8827 138.949C22.8827 138.949 19.8486 153.177 19.8486 153.805C19.8486 154.433 27.1719 156.42 28.5318 155.479C29.8917 154.537 32.8211 142.401 32.8211 142.401L22.8827 138.949Z" fill="#D4D4D4" stroke="#263238" stroke-miterlimit="10"/>
<path d="M22.1587 142.366L32.165 144.999C32.5629 143.473 32.8219 142.402 32.8219 142.402L22.8831 138.949C22.8831 138.949 22.5768 140.386 22.1587 142.366Z" fill="#263238" stroke="#263238" stroke-miterlimit="10"/>
<path d="M28.3873 125.478L19.4307 139.681L34.0773 144.285L35.1232 141.251L28.3873 125.478Z" fill="#92E3A9" stroke="#263238" stroke-miterlimit="10"/>
<path d="M69.6475 140.832L73.6228 152.55L84.3987 150.98L79.6909 135.183L69.6475 140.832Z" fill="#D4D4D4" stroke="#263238" stroke-miterlimit="10"/>
<path d="M79.6909 135.183L69.6475 140.832L70.87 144.435L80.4242 137.643L79.6909 135.183Z" fill="#263238" stroke="#263238" stroke-miterlimit="10"/>
<path d="M70.6114 119.187L82.0971 134.555L69.7993 141.97L70.6114 119.187Z" fill="#92E3A9" stroke="#263238" stroke-miterlimit="10"/>
<path d="M27.8 146.272L44.3297 159.454L39.8311 162.698C39.8311 162.698 20.5813 155.479 19.9535 154.328C19.3257 153.177 21.1045 148.888 21.1045 148.888" fill="#D4D4D4"/>
<path d="M27.8 146.272L44.3297 159.454L39.8311 162.698C39.8311 162.698 20.5813 155.479 19.9535 154.328C19.3257 153.177 21.1045 148.888 21.1045 148.888" stroke="#263238" stroke-miterlimit="10"/>
<path d="M46.502 158.973C46.502 158.973 48.2056 160.068 48.5098 160.129C48.814 160.19 49.9703 162.38 50.4571 162.624C50.9439 162.867 51.6134 163.415 51.2481 163.719C50.8829 164.023 50.2745 164.449 49.8487 164.327C49.4229 164.206 48.5102 163.049 48.2056 162.684C47.9014 162.319 46.5626 161.345 46.5626 161.345L46.502 158.973Z" fill="white" stroke="#263238" stroke-miterlimit="10"/>
<path d="M46.8055 158.508C46.7397 158.32 46.5425 158.215 46.349 158.264C45.699 158.431 44.3403 158.816 44.4332 159.095C44.5548 159.46 46.1979 164.936 46.6237 164.997C47.0495 165.058 48.6316 165.362 48.6316 164.815C48.6316 164.319 47.2871 159.889 46.8055 158.508Z" fill="white" stroke="#263238" stroke-miterlimit="10"/>
<path d="M44.433 159.095C44.433 159.095 42.7294 159.095 42.6074 159.703C42.4857 160.312 44.4936 165.301 44.7978 165.606C45.1021 165.91 46.6235 165.484 46.6235 164.997C46.6235 164.51 44.433 159.095 44.433 159.095Z" fill="white" stroke="#263238" stroke-miterlimit="10"/>
<path d="M42.6074 159.703C42.6074 159.703 40.8428 160.068 40.8428 160.555C40.8428 161.042 42.668 165.788 42.8507 165.91C43.0333 166.031 43.8243 165.91 44.0675 165.788C44.3107 165.667 44.4327 164.997 44.4327 164.997L42.6074 159.703Z" fill="white" stroke="#263238" stroke-miterlimit="10"/>
<path d="M40.8427 160.555C40.8427 160.555 39.1997 161.711 39.5039 162.745C39.8081 163.779 40.5991 165.422 40.9643 165.605C41.3296 165.788 42.1206 165.422 42.1812 165.24C42.2422 165.057 42.2422 165.057 42.2422 165.057L42.1812 164.753L40.8427 160.555Z" fill="white" stroke="#263238" stroke-miterlimit="10"/>
<path d="M77.0594 146.272L60.5298 159.454L65.0283 162.698C65.0283 162.698 84.2781 155.479 84.9059 154.328C85.5337 153.177 83.7553 148.888 83.7553 148.888" fill="#D4D4D4"/>
<path d="M77.0594 146.272L60.5298 159.454L65.0283 162.698C65.0283 162.698 84.2781 155.479 84.9059 154.328C85.5337 153.177 83.7553 148.888 83.7553 148.888" stroke="#263238" stroke-miterlimit="10"/>
<path d="M58.3573 158.973C58.3573 158.973 56.6536 160.068 56.3494 160.129C56.0452 160.19 54.8889 162.38 54.4021 162.624C53.9153 162.867 53.2458 163.415 53.6111 163.719C53.9763 164.023 54.5847 164.449 55.0105 164.327C55.4363 164.206 56.3494 163.049 56.6536 162.684C56.9578 162.319 58.2966 161.345 58.2966 161.345L58.3573 158.973Z" fill="white" stroke="#263238" stroke-miterlimit="10"/>
<path d="M58.0536 158.508C58.1195 158.32 58.3166 158.215 58.5101 158.264C59.1602 158.431 60.5188 158.816 60.4259 159.095C60.3043 159.46 58.6612 164.936 58.2354 164.997C57.8096 165.058 56.2275 165.362 56.2275 164.815C56.2275 164.319 57.5721 159.889 58.0536 158.508Z" fill="white" stroke="#263238" stroke-miterlimit="10"/>
<path d="M60.4259 159.095C60.4259 159.095 62.1296 159.095 62.2516 159.703C62.3732 160.312 60.3653 165.301 60.0611 165.606C59.7569 165.91 58.2358 165.484 58.2358 164.997C58.2358 164.51 60.4259 159.095 60.4259 159.095Z" fill="white" stroke="#263238" stroke-miterlimit="10"/>
<path d="M62.2515 159.703C62.2515 159.703 64.0162 160.068 64.0162 160.555C64.0162 161.042 62.1909 165.788 62.0083 165.91C61.8257 166.031 61.0347 165.91 60.7915 165.788C60.5483 165.667 60.4263 164.997 60.4263 164.997L62.2515 159.703Z" fill="white" stroke="#263238" stroke-miterlimit="10"/>
<path d="M64.0162 160.555C64.0162 160.555 65.6592 161.711 65.355 162.745C65.0508 163.779 64.2598 165.422 63.8946 165.605C63.5293 165.788 62.7383 165.422 62.6777 165.24C62.6167 165.057 62.6167 165.057 62.6167 165.057L62.6777 164.753L64.0162 160.555Z" fill="white" stroke="#263238" stroke-miterlimit="10"/>
<path d="M67.436 178.985C67.436 178.985 72.8339 178.879 77.2787 177.186C81.7239 175.492 83.8405 176.127 84.8989 177.821C85.9574 179.514 85.534 182.689 84.7931 184.065C84.0522 185.441 81.3005 186.816 76.8553 187.452C72.4101 188.087 67.5419 187.134 67.5419 187.134L67.436 178.985Z" fill="white" stroke="#263238" stroke-miterlimit="10"/>
<path d="M79.9589 186.822C82.5882 186.104 84.2446 185.084 84.7936 184.065C85.5346 182.689 85.9579 179.514 84.8995 177.821C83.9897 176.365 82.2933 175.696 79.0132 176.611L79.1841 176.762C79.1841 176.762 82.7825 175.704 83.4176 177.926C84.0527 180.149 83.4176 183.959 82.1474 185.123C81.5366 185.683 80.6825 186.315 79.9589 186.822Z" fill="white" stroke="#263238" stroke-miterlimit="10"/>
<path d="M47.9114 177.198C47.9114 177.198 42.6061 178.197 37.9088 177.447C33.2115 176.698 31.269 177.752 30.579 179.626C29.889 181.5 30.9523 184.522 31.9587 185.717C32.965 186.913 35.9397 187.697 40.4209 187.411C44.902 187.124 55.265 183.747 55.265 183.747L47.9114 177.198Z" fill="white" stroke="#263238" stroke-miterlimit="10"/>
<path d="M45.1665 179.541C45.1665 179.541 48.3052 182.261 47.0495 184.353C46.5878 185.123 46.0698 185.863 45.5988 186.493C50.1838 185.401 55.2645 183.747 55.2645 183.747L50.2864 179.313L49.1419 179.122L45.1665 179.541Z" fill="#263238" stroke="#263238" stroke-miterlimit="10"/>
<path d="M37.2542 187.428C34.5337 187.262 32.7044 186.603 31.9582 185.717C30.9518 184.522 29.8885 181.5 30.5785 179.626C31.1716 178.015 32.6955 177.014 36.0935 177.239L35.9566 177.422C35.9566 177.422 32.218 177.121 32.0503 179.427C31.883 181.732 33.2829 185.332 34.764 186.212C35.477 186.636 36.4426 187.08 37.2542 187.428Z" fill="white" stroke="#263238" stroke-miterlimit="10"/>
<path d="M79.0679 157.214C79.0679 157.214 72.2359 162.107 67.9414 165.526C63.6468 168.945 58.7193 172.413 57.8999 172.797C57.081 173.18 56.0811 172.622 55.2622 173.006C54.4433 173.389 54.0628 173.95 54.0628 173.95C54.0628 173.95 52.0832 174.425 51.7668 174.45C51.4501 174.475 51.2622 177.463 51.7373 179.442C52.2124 181.422 55.4392 183.29 55.9834 183.459C56.5276 183.629 62.7326 181.545 67.7689 179.448C72.8051 177.35 86.2143 169.707 88.8152 167.696C91.4166 165.685 92.2743 164.449 91.3156 160.385C90.3569 156.32 87.6828 154.727 85.3449 154.7C83.0073 154.672 79.0679 157.214 79.0679 157.214Z" fill="#92E3A9" stroke="#263238" stroke-miterlimit="10"/>
<path d="M56.8528 175.28C56.8528 175.28 48.8524 171.78 42.851 165.909C36.85 160.04 29.018 154.748 26.2664 154.536C23.5147 154.324 20.4455 156.864 18.3286 159.933C16.212 163.003 19.8618 168.388 22.6134 170.187C25.365 171.986 37.4846 177.291 43.7293 179.725C49.9739 182.159 59.1815 185.863 60.5571 186.075C61.9331 186.286 66.0604 188.085 67.013 188.085C67.9656 188.085 68.4949 187.133 68.6007 186.286C68.7066 185.44 68.389 180.254 68.389 179.407C68.389 178.56 67.8598 177.925 67.013 177.925C66.1662 177.925 65.0023 178.56 64.6847 178.56C64.3672 178.56 63.4146 176.761 62.674 176.761C61.9335 176.761 61.1926 177.079 60.9809 176.55C60.7684 176.021 58.7577 174.963 56.8528 175.28Z" fill="#92E3A9" stroke="#263238" stroke-miterlimit="10"/>
<path d="M73.414 140.623H34.2866V165.94H73.414V140.623Z" fill="white" stroke="#263238" stroke-miterlimit="10"/>
<path d="M73.414 140.623H34.2866V164.327H73.414V140.623Z" fill="white" stroke="#263238" stroke-miterlimit="10"/>
<path d="M73.4135 141.571C63.8573 143.635 59.1443 151.705 50.4437 156.823C42.9487 161.232 36.8814 163.227 34.2861 163.955V164.327H73.4135V141.571Z" fill="#263238" stroke="#263238" stroke-miterlimit="10"/>
<path d="M55.7787 152.475C55.7787 151.41 54.9149 150.546 53.8496 150.546C52.7842 150.546 51.9209 151.41 51.9209 152.475C51.9209 153.54 52.7847 154.404 53.8496 154.404C54.9149 154.404 55.7787 153.54 55.7787 152.475Z" fill="white" stroke="#263238" stroke-miterlimit="10"/>
</svg>
