<svg width="202" height="202" viewBox="0 0 202 202" fill="none" xmlns="http://www.w3.org/2000/svg">
<path d="M183.199 162.59C182.483 163.717 181.74 164.822 180.966 165.899C170.659 180.251 153.873 189.823 137.694 193.934C130.606 195.739 123.356 196.59 116.137 196.668C68.7931 197.157 52.4344 157.641 37.4573 147.172C22.4798 136.702 -0.457726 118.89 3.41825 82.8262C6.36058 55.4063 22.6507 29.5394 51.4635 18.3255C54.637 17.0865 57.9659 16.0256 61.444 15.1642C67.9144 13.5612 74.9065 12.6312 82.4176 12.4922C103.991 12.0918 121.352 17.7507 138.126 31.2984C142.025 34.4476 145.892 37.9858 151.045 38.4969C154.791 38.8681 158.384 37.6105 154.556 33.8759C150.057 29.486 155.595 21.2271 167.146 27.3663C186.438 37.6198 193.931 58.8528 197.162 80.3294C201.129 106.69 198.025 139.265 183.199 162.59Z" fill="#92E3A9"/>
<path opacity="0.7" d="M183.199 162.59C182.483 163.717 181.74 164.822 180.966 165.899C170.659 180.251 153.873 189.823 137.694 193.934C130.606 195.739 123.356 196.59 116.137 196.668C68.7931 197.157 52.4344 157.641 37.4573 147.172C22.4798 136.702 -0.457726 118.89 3.41825 82.8262C6.36058 55.4063 22.6507 29.5394 51.4635 18.3255C54.637 17.0865 57.9659 16.0256 61.444 15.1642C67.9144 13.5612 74.9065 12.6312 82.4176 12.4922C103.991 12.0918 121.352 17.7507 138.126 31.2984C142.025 34.4476 145.892 37.9858 151.045 38.4969C154.791 38.8681 158.384 37.6105 154.556 33.8759C150.057 29.486 155.595 21.2271 167.146 27.3663C186.438 37.6198 193.931 58.8528 197.162 80.3294C201.129 106.69 198.025 139.265 183.199 162.59Z" fill="white"/>
<path d="M38.5086 81.7293L39.4115 177.856H41.7802L40.7468 106.774L40.1492 81.7293C40.1492 81.7293 41.2223 81.7907 41.3018 79.1736C41.381 76.5565 42.8088 66.0081 42.8088 66.0081L41.7778 65.6909C41.7778 65.6909 40.1917 78.7773 39.8741 79.174C39.557 79.5708 38.6843 78.381 38.5256 77.112C38.3668 75.843 38.5256 62.9946 38.5256 62.9946L36.9395 63.0738C36.9395 63.0738 36.9395 77.9051 37.2566 79.4912C37.5741 81.0773 38.5086 81.7293 38.5086 81.7293Z" fill="#A6A6A6" stroke="#263238" stroke-miterlimit="10" stroke-linecap="round" stroke-linejoin="round"/>
<path d="M40.1492 81.7293C40.2615 81.6861 40.3904 81.6372 40.5258 81.5859C40.8433 81.356 41.2538 80.7553 41.3014 79.1736C41.3806 76.5565 42.8084 66.0081 42.8084 66.0081L41.7774 65.6909C41.7774 65.6909 40.1912 78.7773 39.8737 79.174C39.5566 79.5708 38.6839 78.381 38.5256 77.112C38.3668 75.843 38.5256 62.9946 38.5256 62.9946L36.9395 63.0738C36.9395 63.0738 36.9395 77.9051 37.2566 79.4912C37.5737 81.0773 38.5082 81.7297 38.5082 81.7297C38.5082 81.7297 38.8944 82.2121 40.1492 81.7293Z" fill="#263238" stroke="#263238" stroke-miterlimit="10" stroke-linecap="round" stroke-linejoin="round"/>
<path d="M39.643 62.822C39.643 62.822 42.6568 58.6184 47.4947 56.6356C52.3326 54.6528 61.057 53.3838 61.3741 53.3838C61.6913 53.3838 53.2049 56.0805 50.5878 57.2699C47.9702 58.4596 44.5601 60.2837 43.5291 61.3939C42.4981 62.5041 37.6602 70.2766 37.6602 70.2766C37.6602 70.2766 37.8185 67.1048 39.643 62.822Z" fill="#263238" stroke="#263238" stroke-miterlimit="10" stroke-linecap="round" stroke-linejoin="round"/>
<path d="M31.376 49.135C31.376 49.135 28.3622 44.9314 23.5243 42.9486C18.6864 40.9657 9.96203 39.6968 9.64489 39.6968C9.32775 39.6968 17.8138 42.3935 20.4313 43.5829C23.0488 44.7726 26.459 46.5967 27.49 47.7069C28.521 48.8171 33.3589 56.5896 33.3589 56.5896C33.3589 56.5896 33.2001 53.4178 31.376 49.135Z" fill="#92E3A9" stroke="#263238" stroke-miterlimit="10" stroke-linecap="round" stroke-linejoin="round"/>
<path d="M38.0378 60.9523C38.0378 60.9523 29.7893 48.7386 27.4894 47.7072C25.1894 46.6762 23.3653 45.7243 20.2719 46.5174C17.1789 47.3104 10.7545 50.8002 9.56469 51.4349C8.37491 52.0692 6.7888 53.1798 6.15412 53.4969C5.51943 53.814 14.323 48.5794 19.2405 47.9451C24.1576 47.3104 25.0302 49.69 30.344 53.814C35.6586 57.9385 38.0378 60.9523 38.0378 60.9523Z" fill="#92E3A9" stroke="#263238" stroke-miterlimit="10" stroke-linecap="round" stroke-linejoin="round"/>
<path d="M38.0378 60.9524C38.0378 60.9524 32.5652 52.228 28.8375 51.2766C25.1098 50.3247 20.6682 52.3868 19.1617 53.2594C17.6548 54.132 15.434 59.0491 14.9581 60.9528C14.4822 62.856 14.165 64.2837 14.165 64.2837C14.165 64.2837 18.9238 56.5112 20.827 55.3214C22.7306 54.1316 25.6649 52.3076 26.5375 52.1488C27.4102 51.99 36.1346 57.3038 38.0378 60.9524Z" fill="#92E3A9" stroke="#263238" stroke-miterlimit="10" stroke-linecap="round" stroke-linejoin="round"/>
<path d="M35.8174 56.4317C35.8174 56.4317 25.1898 49.2938 19.638 49.373C14.0863 49.4522 7.18637 51.5142 5.3619 51.8317C3.53784 52.1489 1.71338 72.2547 1.71338 72.2547C1.71338 72.2547 9.56512 54.0525 12.1822 54.1317C14.7997 54.2109 23.3654 51.7525 26.2204 52.7039C29.0759 53.6558 35.8174 56.4317 35.8174 56.4317Z" fill="#92E3A9" stroke="#263238" stroke-miterlimit="10" stroke-linecap="round" stroke-linejoin="round"/>
<path d="M37.8795 63.7283C37.8795 63.7283 34.469 57.3039 31.6139 55.8766C28.7588 54.4489 25.9033 56.9868 21.3826 58.7317C16.8618 60.4765 13.4517 61.6663 13.4517 61.6663C13.4517 61.6663 20.9071 62.0626 23.7621 61.0316C26.6172 60.0006 31.138 58.0178 32.169 58.1766C33.2 58.3349 37.8795 63.7283 37.8795 63.7283Z" fill="#92E3A9" stroke="#263238" stroke-miterlimit="10" stroke-linecap="round" stroke-linejoin="round"/>
<path d="M40.3493 65.8492C40.3493 65.8492 37.3354 49.5906 37.3354 43.6421C37.3354 37.6936 37.4146 35.1557 37.4146 35.1557C37.4146 35.1557 39.3975 42.9282 39.6354 43.8801C39.8734 44.8319 39.8734 46.418 39.8734 46.418C39.8734 46.418 41.3011 38.0112 43.1252 35.9487C44.9492 33.8867 47.2492 32.8557 47.2492 32.8557C47.2492 32.8557 45.1872 36.7418 44.7905 37.8524C44.3937 38.9626 46.4562 36.3455 48.6765 35.7108C50.8973 35.0765 56.3699 33.8867 56.3699 33.8867C56.3699 33.8867 49.0733 36.8214 48.201 37.7728C47.3284 38.7246 45.1872 42.2144 45.0284 42.6107C44.8696 43.0074 42.2525 47.5282 41.5387 50.1453C40.8252 52.7628 40.3493 65.8492 40.3493 65.8492Z" fill="#263238" stroke="#263238" stroke-miterlimit="10" stroke-linecap="round" stroke-linejoin="round"/>
<path d="M42.1738 46.1009L48.3603 41.9768C48.3603 41.9768 55.9741 40.787 57.243 41.1838C58.512 41.5805 60.2569 42.7699 60.2569 42.7699C60.2569 42.7699 55.3398 42.294 53.1982 43.325C51.057 44.356 46.3775 46.18 43.6016 49.9077C40.8257 53.6355 39.7947 57.7595 39.4775 59.1076C39.1604 60.4558 38.5257 62.9937 38.5257 62.9937C38.5257 62.9937 37.098 56.0938 37.6531 53.3179C38.2082 50.542 42.1738 46.1009 42.1738 46.1009Z" fill="#92E3A9" stroke="#263238" stroke-miterlimit="10" stroke-linecap="round" stroke-linejoin="round"/>
<path d="M34.4014 41.6593C34.4014 41.6593 38.0499 46.5768 38.605 48.1629C39.1601 49.749 40.0327 44.1972 43.9188 40.787C47.8049 37.3765 60.3361 35.3145 60.3361 35.3145C60.3361 35.3145 45.1086 42.6903 42.8086 45.6249C40.5086 48.5596 38.2878 53.5563 38.2878 53.7938C38.2878 54.0318 38.2878 56.7285 38.2878 56.7285L34.4014 41.6593Z" fill="#92E3A9" stroke="#263238" stroke-miterlimit="10" stroke-linecap="round" stroke-linejoin="round"/>
<path d="M37.0255 51.9768C37.0255 51.9768 31.9496 43.2524 29.3321 40.2385C26.715 37.2247 18.0698 30.4832 18.0698 30.4832C18.0698 30.4832 21.6388 34.9247 26.2387 41.1904C30.8386 47.456 38.1353 56.6559 38.1353 56.6559L37.0255 51.9768Z" fill="#263238" stroke="#263238" stroke-miterlimit="10" stroke-linecap="round" stroke-linejoin="round"/>
<path d="M36.3053 69.0219C36.3053 69.0219 28.0568 62.2804 23.6948 63.9461C19.3329 65.6117 14.3362 70.9256 14.3362 70.9256L13.2256 76.9532C13.2256 76.9532 19.0945 68.4668 21.6324 67.277C24.1703 66.0873 27.7393 65.6117 29.4842 66.0081C31.229 66.4048 36.3841 70.7668 36.622 71.3219C36.8604 71.877 36.3053 69.0219 36.3053 69.0219Z" fill="#92E3A9" stroke="#263238" stroke-miterlimit="10" stroke-linecap="round" stroke-linejoin="round"/>
<path d="M34.1636 49.0352C34.1636 49.0352 32.5775 47.6075 31.5465 41.8973C30.5155 36.1868 31.7048 31.0317 31.7048 31.0317C31.7048 31.0317 32.2599 34.4419 33.5289 38.4076C34.7979 42.3732 34.7979 43.801 36.7015 49.6699C38.6052 55.5388 38.8427 66.0872 38.7635 66.3252C38.6843 66.5631 34.1636 49.0352 34.1636 49.0352Z" fill="#92E3A9" stroke="#263238" stroke-miterlimit="10" stroke-linecap="round" stroke-linejoin="round"/>
<path d="M47.1701 50.7008C47.1701 50.7008 49.6288 47.5282 52.801 46.5768C55.9737 45.6249 59.2255 45.7041 59.2255 45.7041C59.2255 45.7041 54.4667 44.356 51.2941 44.9902C48.1215 45.6249 45.6632 49.3522 44.5526 52.842C43.4424 56.3317 43.4424 64.5006 43.4424 64.5006C43.4424 64.5006 45.1877 53.7938 47.1701 50.7008Z" fill="#263238" stroke="#263238" stroke-miterlimit="10" stroke-linecap="round" stroke-linejoin="round"/>
<path d="M35.2405 53.7749C35.2405 53.7749 35.4118 50.4354 32.7575 46.5821C30.1032 42.7287 24.7086 40.5879 20.9409 38.961C17.1732 37.3341 14.9468 36.6489 14.9468 36.6489C14.9468 36.6489 23.4239 43.3279 25.6504 44.27C27.8768 45.2117 29.5037 46.4964 31.045 48.2946C32.5862 50.0928 35.3262 56.6861 35.3262 57.1144C35.3262 57.5426 35.2405 53.7749 35.2405 53.7749Z" fill="#92E3A9" stroke="#263238" stroke-miterlimit="10" stroke-linecap="round" stroke-linejoin="round"/>
<path d="M44.7909 58.5528C44.7909 58.5528 47.8048 54.3491 52.6427 52.3663C57.4806 50.3835 66.205 49.1145 66.5221 49.1145C66.8392 49.1145 58.3532 51.8112 55.7357 53.0006C53.1186 54.1904 49.708 56.0144 48.677 57.125C47.646 58.2352 42.8081 66.0078 42.8081 66.0078C42.8081 66.0078 42.9669 62.8356 44.7909 58.5528Z" fill="#92E3A9" stroke="#263238" stroke-miterlimit="10" stroke-linecap="round" stroke-linejoin="round"/>
<path d="M38.1289 70.37C38.1289 70.37 46.3774 58.1559 48.6773 57.1249C50.9773 56.0939 52.8014 55.1421 55.8948 55.9351C58.9878 56.7282 65.4122 60.2179 66.602 60.8526C67.7918 61.4869 69.3779 62.5975 70.0122 62.9146C70.6465 63.2318 61.8429 57.9975 56.9258 57.3628C52.0087 56.7282 51.1361 59.1077 45.8223 63.2318C40.5081 67.3562 38.1289 70.37 38.1289 70.37Z" fill="#92E3A9" stroke="#263238" stroke-miterlimit="10" stroke-linecap="round" stroke-linejoin="round"/>
<path d="M38.1289 70.37C38.1289 70.37 43.6015 61.6456 47.3288 60.6938C51.0565 59.7419 55.4977 61.8044 57.0046 62.6766C58.5115 63.5488 60.7323 68.4663 61.2082 70.37C61.6841 72.2736 62.0013 73.7009 62.0013 73.7009C62.0013 73.7009 57.2426 65.9284 55.3393 64.7386C53.4357 63.5488 50.5014 61.7248 49.6288 61.5664C48.7565 61.4076 40.0322 66.7214 38.1289 70.37Z" fill="#263238" stroke="#263238" stroke-miterlimit="10" stroke-linecap="round" stroke-linejoin="round"/>
<path d="M40.3496 65.8494C40.3496 65.8494 50.9772 58.7115 56.529 58.7907C62.0808 58.8699 68.9807 60.9319 70.8051 61.2494C72.6292 61.5666 74.4533 61.0907 74.4533 61.0907C74.4533 61.0907 66.6015 63.4702 63.984 63.5494C61.3669 63.629 52.8013 61.1703 49.9458 62.1217C47.0912 63.0735 40.3496 65.8494 40.3496 65.8494Z" fill="#92E3A9" stroke="#263238" stroke-miterlimit="10" stroke-linecap="round" stroke-linejoin="round"/>
<path d="M43.2052 62.6766C43.2052 62.6766 41.3812 57.1249 43.2844 53.08C45.188 49.0352 47.6464 43.4834 47.6464 43.4834C47.6464 43.4834 48.519 50.5421 47.0117 55.3008C45.5052 60.0595 43.2052 62.6766 43.2052 62.6766Z" fill="#92E3A9" stroke="#263238" stroke-miterlimit="10" stroke-linecap="round" stroke-linejoin="round"/>
<path d="M38.6049 66.7215C38.6049 66.7215 38.6049 59.8216 33.8462 56.5698C29.0874 53.318 23.7736 52.287 21.87 53.318C19.9667 54.349 14.2562 57.5216 12.5905 59.6628C10.9248 61.8044 9.57666 63.4697 9.57666 63.4697C9.57666 63.4697 17.9835 57.918 20.601 56.0143C23.2181 54.1107 24.4871 53.6352 25.4389 53.8731C26.3907 54.1111 31.8633 56.649 34.0045 58.3147C36.1461 59.9804 38.6049 66.7215 38.6049 66.7215Z" fill="#92E3A9" stroke="#263238" stroke-miterlimit="10" stroke-linecap="round" stroke-linejoin="round"/>
<path d="M38.7632 67.8321C38.684 67.5941 38.9215 65.7701 35.6702 65.5321C32.4184 65.2941 29.9596 66.7219 29.4045 67.9113C28.8494 69.101 29.4045 72.2732 29.4837 72.5908C29.5629 72.9079 29.9596 68.3872 33.7665 67.5149C37.5738 66.6423 38.7632 67.8321 38.7632 67.8321Z" fill="#263238" stroke="#263238" stroke-miterlimit="10" stroke-linecap="round" stroke-linejoin="round"/>
<path d="M37.4944 70.7664C37.4944 70.7664 36.4634 68.5456 34.4014 66.1664C32.3394 63.7869 27.8978 61.5665 25.7566 62.9147C23.615 64.2628 21.1567 69.8942 20.3632 71.4803C19.5701 73.0664 17.7461 77.9047 17.5873 78.1426C17.4285 78.3806 22.2668 73.8598 24.3289 71.1631C26.3909 68.4664 27.8186 64.7387 29.0084 64.4216C30.1982 64.1044 32.6565 66.4836 32.6565 66.4836L38.5254 74.97L37.4944 70.7664Z" fill="#92E3A9" stroke="#263238" stroke-miterlimit="10" stroke-linecap="round" stroke-linejoin="round"/>
<path d="M37.8118 64.9766C37.8118 64.9766 36.7808 60.2178 33.2119 58.9489C29.6429 57.6799 25.3601 57.204 23.6944 58.1558C22.0287 59.1076 14.7321 65.8488 14.7321 65.8488L13.7803 68.3075C13.7803 68.3075 24.4875 60.4558 26.9458 59.6627C29.4046 58.8697 29.4046 58.8697 32.0217 60.4558C34.6396 62.0423 37.8118 64.9766 37.8118 64.9766Z" fill="#92E3A9" stroke="#263238" stroke-miterlimit="10" stroke-linecap="round" stroke-linejoin="round"/>
<path d="M37.1775 64.9766C37.1775 64.9766 26.7878 58.711 24.567 57.9179C22.3462 57.1249 17.3495 59.1077 15.9222 60.9318C14.4945 62.7558 9.4982 72.67 9.26024 73.3838C9.02228 74.0977 12.5912 65.6905 17.9846 63.2321C23.378 60.7734 26.8674 61.2493 30.04 61.5668C33.2126 61.884 37.1779 67.1978 37.1779 67.1978L37.1775 64.9766Z" fill="#92E3A9" stroke="#263238" stroke-miterlimit="10" stroke-linecap="round" stroke-linejoin="round"/>
<path d="M38.2876 73.1458C38.2876 73.1458 41.6982 66.7214 44.5532 65.2941C47.4083 63.8663 50.2638 66.4043 54.7845 68.1492C59.3053 69.894 62.7159 71.0838 62.7159 71.0838C62.7159 71.0838 55.2604 71.4805 52.4054 70.4495C49.5503 69.4185 45.0295 67.4357 43.9985 67.5945C42.9671 67.7524 38.2876 73.1458 38.2876 73.1458Z" fill="#92E3A9" stroke="#263238" stroke-miterlimit="10" stroke-linecap="round" stroke-linejoin="round"/>
<path d="M38.6049 66.7215C38.6049 66.7215 40.3498 61.7248 41.3808 55.2212C42.4118 48.7177 40.6669 37.059 39.0012 33.5693C37.3355 30.0799 32.4185 24.3694 32.4185 24.3694C32.4185 24.3694 41.1428 31.9832 43.0461 39.1214C44.9497 46.2597 45.2669 50.0666 44.4738 53.9527C43.6808 57.8388 38.6049 66.7215 38.6049 66.7215Z" fill="#92E3A9" stroke="#263238" stroke-miterlimit="10" stroke-linecap="round" stroke-linejoin="round"/>
<path d="M36.5255 56.6861C36.5255 56.6861 35.7547 53.7749 34.8986 53.1754C34.0426 52.5758 32.3296 53.261 32.3296 53.261C32.3296 53.261 35.3265 55.9153 35.3265 57.1144C35.3265 58.313 38.371 65.5313 38.371 65.5313L36.5255 56.6861Z" fill="#92E3A9" stroke="#263238" stroke-miterlimit="10" stroke-linecap="round" stroke-linejoin="round"/>
<path d="M34.8984 53.1753C34.8984 53.1753 33.6141 54.0738 32.6114 54.9812C31.6086 55.8881 26.835 60.6145 26.5485 60.901C26.2621 61.1874 29.0311 54.8858 29.6517 53.692C30.2722 52.4986 31.3703 51.6393 31.7044 51.6869C32.0385 51.7346 34.9893 52.4198 34.8984 53.1753Z" fill="#92E3A9" stroke="#263238" stroke-miterlimit="10" stroke-linecap="round" stroke-linejoin="round"/>
<path d="M50.195 101.91L49.6718 123.856L49.0707 177.856H51.0155L51.6329 101.91C51.6329 101.91 52.4518 101.338 52.7297 99.9481C53.0077 98.558 53.0077 85.5617 53.0077 85.5617L51.6175 85.4922C51.6175 85.4922 51.7565 96.7513 51.6175 97.8631C51.4785 98.9749 50.7142 100.018 50.4362 99.6702C50.1583 99.3227 48.7681 87.8552 48.7681 87.8552L47.8647 88.1331C47.8647 88.1331 49.1155 97.3767 49.1854 99.6702C49.2549 101.964 50.195 101.91 50.195 101.91Z" fill="#A6A6A6" stroke="#263238" stroke-miterlimit="10" stroke-linecap="round" stroke-linejoin="round"/>
<path d="M50.1954 101.91C50.0968 101.872 49.9841 101.829 49.8654 101.784C49.587 101.582 49.2274 101.056 49.1854 99.6702C49.1159 97.3767 47.8647 88.1331 47.8647 88.1331L48.7681 87.8552C48.7681 87.8552 50.1583 99.3227 50.4362 99.6702C50.7142 100.018 51.4789 98.9753 51.6175 97.8631C51.7565 96.7509 51.6175 85.4922 51.6175 85.4922L53.0077 85.5617C53.0077 85.5617 53.0077 98.558 52.7297 99.9481C52.4518 101.338 51.6329 101.91 51.6329 101.91C51.6329 101.91 51.2951 102.333 50.1954 101.91Z" fill="#263238" stroke="#263238" stroke-miterlimit="10" stroke-linecap="round" stroke-linejoin="round"/>
<path d="M50.6394 85.3411C50.6394 85.3411 47.9985 81.6578 43.7589 79.9202C39.5193 78.1826 31.8744 77.0708 31.5965 77.0708C31.3185 77.0708 38.7549 79.4338 41.0484 80.4765C43.3419 81.5188 46.3303 83.1175 47.2341 84.0903C48.1374 85.0635 52.377 91.8742 52.377 91.8742C52.377 91.8742 52.2376 89.0942 50.6394 85.3411Z" fill="#263238" stroke="#263238" stroke-miterlimit="10" stroke-linecap="round" stroke-linejoin="round"/>
<path d="M57.8831 73.3469C57.8831 73.3469 60.5241 69.6633 64.7636 67.9261C69.0032 66.1885 76.6481 65.0767 76.9261 65.0767C77.204 65.0767 69.7676 67.4397 67.4741 68.482C65.1806 69.5247 62.1922 71.1229 61.2884 72.0962C60.3851 73.069 56.1455 79.88 56.1455 79.88C56.1455 79.88 56.2849 77.1001 57.8831 73.3469Z" fill="#92E3A9" stroke="#263238" stroke-miterlimit="10" stroke-linecap="round" stroke-linejoin="round"/>
<path d="M52.0454 83.7028C52.0454 83.7028 59.2734 72.9996 61.2889 72.0963C63.3045 71.1929 64.9031 70.3587 67.6135 71.0539C70.324 71.7488 75.9533 74.8071 76.996 75.363C78.0384 75.9189 79.4285 76.8921 79.9844 77.1701C80.5403 77.448 72.826 72.861 68.5169 72.3051C64.2078 71.7492 63.4435 73.8343 58.787 77.4481C54.13 81.0614 52.0454 83.7028 52.0454 83.7028Z" fill="#92E3A9" stroke="#263238" stroke-miterlimit="10" stroke-linecap="round" stroke-linejoin="round"/>
<path d="M52.0454 83.7028C52.0454 83.7028 56.8409 76.0579 60.1072 75.2236C63.3736 74.3898 67.2657 76.1965 68.5864 76.9612C69.9071 77.726 71.8527 82.0347 72.27 83.7028C72.687 85.3709 72.9649 86.6217 72.9649 86.6217C72.9649 86.6217 68.7948 79.8107 67.1271 78.7683C65.459 77.726 62.8876 76.1274 62.1232 75.9884C61.3584 75.849 53.7131 80.5055 52.0454 83.7028Z" fill="#92E3A9" stroke="#263238" stroke-miterlimit="10" stroke-linecap="round" stroke-linejoin="round"/>
<path d="M53.9912 79.7412C53.9912 79.7412 63.3042 73.486 68.1692 73.5555C73.0342 73.625 79.0808 75.4321 80.679 75.71C82.2777 75.988 83.8759 75.5711 83.8759 75.5711C83.8759 75.5711 76.9954 77.6561 74.7019 77.7256C72.4084 77.7951 64.9024 75.6406 62.4005 76.4748C59.8989 77.3087 53.9912 79.7412 53.9912 79.7412Z" fill="#92E3A9" stroke="#263238" stroke-miterlimit="10" stroke-linecap="round" stroke-linejoin="round"/>
<path d="M52.1846 86.1352C52.1846 86.1352 55.173 80.5055 57.6749 79.2547C60.1769 78.0035 62.6789 80.2276 66.6405 81.7567C70.6021 83.2858 73.5905 84.3282 73.5905 84.3282C73.5905 84.3282 67.0574 84.6756 64.5555 83.7722C62.0535 82.8689 58.0919 81.1313 57.1885 81.2703C56.2852 81.4093 52.1846 86.1352 52.1846 86.1352Z" fill="#92E3A9" stroke="#263238" stroke-miterlimit="10" stroke-linecap="round" stroke-linejoin="round"/>
<path d="M50.0196 87.9941C50.0196 87.9941 52.6605 73.7467 52.6605 68.5343C52.6605 63.3219 52.591 61.0978 52.591 61.0978C52.591 61.0978 50.8534 67.9089 50.6449 68.7427C50.4365 69.5766 50.4365 70.9667 50.4365 70.9667C50.4365 70.9667 49.1853 63.5998 47.5871 61.7927C45.9884 59.9856 43.9733 59.0823 43.9733 59.0823C43.9733 59.0823 45.7804 62.4876 46.1278 63.4608C46.4753 64.4337 44.6686 62.1402 42.7225 61.5843C40.7764 61.0283 35.981 59.9856 35.981 59.9856C35.981 59.9856 42.3751 62.5571 43.1394 63.3909C43.9038 64.2248 45.7804 67.2831 45.9194 67.6305C46.0583 67.9779 48.3518 71.9396 48.9772 74.2331C49.6026 76.5266 50.0196 87.9941 50.0196 87.9941Z" fill="#263238" stroke="#263238" stroke-miterlimit="10" stroke-linecap="round" stroke-linejoin="round"/>
<path d="M48.4214 70.6883L43.0005 67.0741C43.0005 67.0741 36.3284 66.0318 35.2166 66.3793C34.1048 66.7267 32.5757 67.7694 32.5757 67.7694C32.5757 67.7694 36.8847 67.3525 38.7613 68.2558C40.6379 69.1592 44.7385 70.7578 47.171 74.0246C49.6035 77.2909 50.5068 80.9051 50.7848 82.0864C51.0627 83.2681 51.6186 85.4917 51.6186 85.4917C51.6186 85.4917 52.8698 79.445 52.383 77.0125C51.8962 74.5805 48.4214 70.6883 48.4214 70.6883Z" fill="#92E3A9" stroke="#263238" stroke-miterlimit="10" stroke-linecap="round" stroke-linejoin="round"/>
<path d="M55.2325 66.7962C55.2325 66.7962 52.0356 71.1052 51.5488 72.4954C51.0624 73.8856 50.2976 69.0202 46.8923 66.0318C43.487 63.0434 32.5059 61.2363 32.5059 61.2363C32.5059 61.2363 45.85 67.6999 47.8655 70.2714C49.8811 72.8428 51.8272 77.2214 51.8272 77.4299C51.8272 77.6383 51.8272 80.0013 51.8272 80.0013L55.2325 66.7962Z" fill="#92E3A9" stroke="#263238" stroke-miterlimit="10" stroke-linecap="round" stroke-linejoin="round"/>
<path d="M52.9328 75.8377C52.9328 75.8377 57.3808 68.1928 59.6743 65.5518C61.9678 62.9109 69.5433 57.0032 69.5433 57.0032C69.5433 57.0032 66.4159 60.8953 62.3848 66.3857C58.3537 71.876 51.96 79.9383 51.96 79.9383L52.9328 75.8377Z" fill="#263238" stroke="#263238" stroke-miterlimit="10" stroke-linecap="round" stroke-linejoin="round"/>
<path d="M53.564 90.774C53.564 90.774 60.792 84.8663 64.6146 86.3259C68.4373 87.7856 72.8154 92.4421 72.8154 92.4421L73.7882 97.724C73.7882 97.724 68.6453 90.2875 66.4213 89.2452C64.1973 88.2025 61.0699 87.7856 59.5408 88.133C58.0116 88.4804 53.4941 92.3031 53.2856 92.7895C53.0776 93.2759 53.564 90.774 53.564 90.774Z" fill="#92E3A9" stroke="#263238" stroke-miterlimit="10" stroke-linecap="round" stroke-linejoin="round"/>
<path d="M55.4409 73.2598C55.4409 73.2598 56.8306 72.0086 57.7344 67.0046C58.6377 62.0007 57.5954 57.4832 57.5954 57.4832C57.5954 57.4832 57.109 60.4715 55.9968 63.9467C54.8846 67.4216 54.8846 68.6727 53.2169 73.8157C51.5488 78.9586 51.3403 88.2021 51.4098 88.4106C51.4793 88.6194 55.4409 73.2598 55.4409 73.2598Z" fill="#92E3A9" stroke="#263238" stroke-miterlimit="10" stroke-linecap="round" stroke-linejoin="round"/>
<path d="M44.0428 74.7195C44.0428 74.7195 41.8883 71.9396 39.1083 71.1053C36.3284 70.2715 33.479 70.3409 33.479 70.3409C33.479 70.3409 37.6491 69.1592 40.429 69.7155C43.2089 70.2715 45.3635 73.5382 46.3367 76.5961C47.3099 79.6539 47.3099 86.8124 47.3099 86.8124C47.3099 86.8124 45.78 77.4299 44.0428 74.7195Z" fill="#263238" stroke="#263238" stroke-miterlimit="10" stroke-linecap="round" stroke-linejoin="round"/>
<path d="M54.4966 77.4132C54.4966 77.4132 54.3463 74.4871 56.6726 71.1104C58.9988 67.7338 63.726 65.858 67.0275 64.4323C70.329 63.0066 72.2799 62.4062 72.2799 62.4062C72.2799 62.4062 64.8515 68.259 62.9006 69.0844C60.9497 69.9097 59.524 71.0353 58.1734 72.6109C56.8229 74.1865 54.4219 79.9645 54.4219 80.3394C54.4215 80.7147 54.4966 77.4132 54.4966 77.4132Z" fill="#92E3A9" stroke="#263238" stroke-miterlimit="10" stroke-linecap="round" stroke-linejoin="round"/>
<path d="M46.1277 81.5999C46.1277 81.5999 43.4867 77.9162 39.2472 76.179C35.0076 74.4414 27.3627 73.3296 27.0847 73.3296C26.8068 73.3296 34.2432 75.6926 36.5367 76.7353C38.8302 77.7776 41.8186 79.3763 42.7224 80.3491C43.6257 81.3223 47.8653 88.133 47.8653 88.133C47.8653 88.133 47.7259 85.3526 46.1277 81.5999Z" fill="#92E3A9" stroke="#263238" stroke-miterlimit="10" stroke-linecap="round" stroke-linejoin="round"/>
<path d="M51.9656 91.9552C51.9656 91.9552 44.7376 81.2525 42.722 80.3487C40.7065 79.4454 39.1079 78.6111 36.3974 79.3064C33.687 80.0013 28.0572 83.0595 27.0149 83.6154C25.9726 84.1714 24.5824 85.1446 24.0265 85.4225C23.4706 85.7005 31.185 81.1135 35.4941 80.5576C39.8031 80.0017 40.5675 82.0867 45.224 85.7005C49.8805 89.3143 51.9656 91.9552 51.9656 91.9552Z" fill="#92E3A9" stroke="#263238" stroke-miterlimit="10" stroke-linecap="round" stroke-linejoin="round"/>
<path d="M51.9654 91.9552C51.9654 91.9552 47.1699 84.3103 43.9036 83.4761C40.6373 82.6422 36.7451 84.4489 35.4244 85.2137C34.1042 85.9781 32.1581 90.2871 31.7408 91.9552C31.3239 93.6234 31.0459 94.8741 31.0459 94.8741C31.0459 94.8741 35.216 88.0631 36.8841 87.0208C38.5522 85.9785 41.1237 84.3798 41.888 84.2409C42.6524 84.1019 50.2973 88.7584 51.9654 91.9552Z" fill="#263238" stroke="#263238" stroke-miterlimit="10" stroke-linecap="round" stroke-linejoin="round"/>
<path d="M50.0195 87.9941C50.0195 87.9941 40.7064 81.7389 35.8415 81.8084C30.9765 81.8779 24.9298 83.685 23.3316 83.963C21.733 84.2409 20.1348 83.824 20.1348 83.824C20.1348 83.824 27.0153 85.909 29.3088 85.9785C31.6023 86.048 39.1082 83.8935 41.6102 84.7273C44.1122 85.5616 50.0195 87.9941 50.0195 87.9941Z" fill="#92E3A9" stroke="#263238" stroke-miterlimit="10" stroke-linecap="round" stroke-linejoin="round"/>
<path d="M47.5175 85.2137C47.5175 85.2137 49.1161 80.3487 47.448 76.8044C45.7799 73.2597 43.6254 68.3948 43.6254 68.3948C43.6254 68.3948 42.861 74.5804 44.1813 78.7501C45.5023 82.9202 47.5175 85.2137 47.5175 85.2137Z" fill="#92E3A9" stroke="#263238" stroke-miterlimit="10" stroke-linecap="round" stroke-linejoin="round"/>
<path d="M51.5488 88.7583C51.5488 88.7583 51.5488 82.7116 55.7189 79.8622C59.889 77.0128 64.5455 76.1091 66.2136 77.0128C67.8817 77.9161 72.8857 80.6965 74.3449 82.5731C75.8046 84.4496 76.9859 85.9089 76.9859 85.9089C76.9859 85.9089 69.6189 81.0439 67.3254 79.3758C65.0319 77.7077 63.9197 77.2908 63.0859 77.4992C62.252 77.7077 57.4565 79.9317 55.5799 81.3914C53.7034 82.8506 51.5488 88.7583 51.5488 88.7583Z" fill="#92E3A9" stroke="#263238" stroke-miterlimit="10" stroke-linecap="round" stroke-linejoin="round"/>
<path d="M51.4097 89.7312C51.4792 89.5227 51.2707 87.9241 54.1201 87.7156C56.9695 87.5071 59.124 88.7583 59.6105 89.8007C60.0969 90.843 59.6105 93.6233 59.541 93.9013C59.4715 94.1792 59.1241 90.2176 55.7878 89.4532C52.452 88.6888 51.4097 89.7312 51.4097 89.7312Z" fill="#263238" stroke="#263238" stroke-miterlimit="10" stroke-linecap="round" stroke-linejoin="round"/>
<path d="M52.5214 92.3026C52.5214 92.3026 53.4248 90.3565 55.2319 88.2715C57.039 86.1864 60.9307 84.2404 62.8073 85.4221C64.6838 86.6034 66.8384 91.5382 67.5333 92.928C68.2281 94.3177 69.8268 98.5573 69.9657 98.7658C70.1047 98.9742 65.8651 95.0126 64.058 92.6496C62.251 90.2866 61.0002 87.0203 59.9574 86.7423C58.9151 86.4644 56.7606 88.5494 56.7606 88.5494L51.6177 95.9859L52.5214 92.3026Z" fill="#92E3A9" stroke="#263238" stroke-miterlimit="10" stroke-linecap="round" stroke-linejoin="round"/>
<path d="M52.2437 87.2292C52.2437 87.2292 53.147 83.0591 56.2748 81.9473C59.4021 80.8355 63.1553 80.4181 64.6145 81.2524C66.0742 82.0863 72.4679 87.994 72.4679 87.994L73.3018 90.1485C73.3018 90.1485 63.9193 83.268 61.7647 82.5731C59.6102 81.8782 59.6102 81.8782 57.3167 83.268C55.0236 84.6577 52.2437 87.2292 52.2437 87.2292Z" fill="#92E3A9" stroke="#263238" stroke-miterlimit="10" stroke-linecap="round" stroke-linejoin="round"/>
<path d="M52.7993 87.2293C52.7993 87.2293 61.9039 81.7389 63.8499 81.0436C65.796 80.3487 70.1746 82.0863 71.4253 83.6846C72.6765 85.2832 77.0547 93.9708 77.2635 94.5962C77.472 95.2216 74.3446 87.8546 69.6186 85.7001C64.8927 83.5456 61.8348 83.9625 59.0549 84.2405C56.2749 84.5184 52.7997 89.1749 52.7997 89.1749L52.7993 87.2293Z" fill="#92E3A9" stroke="#263238" stroke-miterlimit="10" stroke-linecap="round" stroke-linejoin="round"/>
<path d="M51.8263 94.3878C51.8263 94.3878 48.838 88.7584 46.336 87.5073C43.834 86.2565 41.332 88.4801 37.3704 90.0092C33.4088 91.5384 30.4204 92.5807 30.4204 92.5807C30.4204 92.5807 36.9535 92.9281 39.4555 92.0248C41.9574 91.1214 45.9191 89.3838 46.8224 89.5228C47.7258 89.6618 51.8263 94.3878 51.8263 94.3878Z" fill="#92E3A9" stroke="#263238" stroke-miterlimit="10" stroke-linecap="round" stroke-linejoin="round"/>
<path d="M51.5488 88.7584C51.5488 88.7584 50.0196 84.3799 49.1163 78.681C48.2129 72.9822 49.7417 62.7654 51.2013 59.7076C52.661 56.6497 56.9696 51.6458 56.9696 51.6458C56.9696 51.6458 49.3247 58.3178 47.6566 64.5725C45.9885 70.8277 45.7106 74.1635 46.4054 77.5692C47.1007 80.9745 51.5488 88.7584 51.5488 88.7584Z" fill="#92E3A9" stroke="#263238" stroke-miterlimit="10" stroke-linecap="round" stroke-linejoin="round"/>
<path d="M53.371 79.9645C53.371 79.9645 54.0461 77.4132 54.7968 76.888C55.547 76.3628 57.0478 76.9632 57.0478 76.9632C57.0478 76.9632 54.4214 79.289 54.4214 80.3398C54.4214 81.3902 51.7534 87.7156 51.7534 87.7156L53.371 79.9645Z" fill="#92E3A9" stroke="#263238" stroke-miterlimit="10" stroke-linecap="round" stroke-linejoin="round"/>
<path d="M54.7967 76.8876C54.7967 76.8876 55.9223 77.675 56.801 78.47C57.6793 79.2651 61.8627 83.4065 62.114 83.6574C62.3649 83.9083 59.9384 78.3864 59.3946 77.3405C58.8509 76.2945 57.8885 75.5414 57.5956 75.5835C57.3027 75.6255 54.7171 76.2258 54.7967 76.8876Z" fill="#92E3A9" stroke="#263238" stroke-miterlimit="10" stroke-linecap="round" stroke-linejoin="round"/>
<path d="M52.6683 113.689C52.6683 113.689 59.0697 111.353 62.9622 110.056C66.8548 108.758 69.7959 111.959 69.7959 111.959C69.7959 111.959 64.9515 112.651 63.2216 112.737C61.4917 112.824 58.8964 112.91 57.3393 113.516C55.7823 114.122 60.4534 114.035 62.0104 115.592C63.5674 117.149 66.8548 121.128 67.3735 122.339C67.8926 123.551 62.0968 116.63 58.031 115.592C53.9651 114.554 50.7646 116.716 50.7646 116.716L52.6683 113.689Z" fill="#263238" stroke="#263238" stroke-miterlimit="10" stroke-linecap="round" stroke-linejoin="round"/>
<path d="M45.7021 177.856H47.7924C48.0324 167.741 48.2566 130.462 48.2566 129.779C48.2566 128.308 48.3431 123.031 48.3431 123.031L46.3534 123.204C46.3534 123.204 46.959 126.059 46.3534 134.017C46.1259 137.014 45.8977 171.051 45.7021 177.856Z" fill="#A6A6A6" stroke="#263238" stroke-miterlimit="10" stroke-linecap="round" stroke-linejoin="round"/>
<path d="M47.9973 114.814C47.8361 114.462 45.4024 109.277 44.1047 108.412C42.8071 107.547 39.5202 106.336 38.0496 106.336C36.579 106.336 32.7729 106.769 32.7729 106.769C32.7729 106.769 39.5202 108.326 41.4234 109.796C43.3266 111.267 46.6136 114.641 46.7 115.246C46.7865 115.852 47.4785 117.236 47.4785 117.236C47.4785 117.236 48.9487 116.89 47.9973 114.814Z" fill="#92E3A9" stroke="#263238" stroke-miterlimit="10" stroke-linecap="round" stroke-linejoin="round"/>
<path d="M46.0942 118.187C46.0942 118.187 40.904 117.581 39.0008 118.966C37.0975 120.35 33.7241 124.242 33.7241 126.318C33.7241 128.395 33.897 133.152 33.897 132.72C33.897 132.287 34.8485 125.54 37.0111 123.464C39.1737 121.388 40.1251 120.176 42.9798 119.831C45.8344 119.485 45.8344 119.485 45.8344 119.485L48.7755 121.042L46.0942 118.187Z" fill="#263238" stroke="#263238" stroke-miterlimit="10" stroke-linecap="round" stroke-linejoin="round"/>
<path d="M50.0675 116.93C50.0675 116.93 51.1054 116.065 54.825 115.546C58.5447 115.027 59.583 114.681 61.9185 115.114C64.254 115.546 66.7628 116.498 66.7628 116.498C66.7628 116.498 59.3236 116.325 58.6315 116.325C57.9395 116.325 63.1297 119.699 64.0815 120.736C65.0329 121.775 65.8979 123.937 65.8979 123.937C65.8979 123.937 58.4582 118.573 57.1606 117.968C55.8629 117.363 55.3442 117.017 55.3442 117.017C55.3442 117.017 53.268 116.671 52.4031 116.93C51.5381 117.19 50.846 117.449 50.5867 117.536C50.3273 117.622 49.3755 117.882 49.3755 117.882L50.0675 116.93Z" fill="#92E3A9" stroke="#263238" stroke-miterlimit="10" stroke-linecap="round" stroke-linejoin="round"/>
<path d="M48.9487 114.122C48.9487 114.122 49.3814 109.104 51.8034 106.855C54.2254 104.606 62.53 100.281 62.53 100.281L67.6337 97.7722C67.6337 97.7722 66.1632 101.06 63.0491 102.357C59.9351 103.654 58.8968 102.703 57.4263 104.26C55.9557 105.817 53.6202 109.018 53.1875 110.489C52.7552 111.959 49.9006 116.025 49.7272 116.976C49.5543 117.928 48.9487 114.122 48.9487 114.122Z" fill="#92E3A9" stroke="#263238" stroke-miterlimit="10" stroke-linecap="round" stroke-linejoin="round"/>
<path d="M49.2953 115.506C49.2953 115.506 49.8145 107.72 48.9495 105.731C48.0845 103.741 45.4028 99.1567 44.7972 98.1188C44.1916 97.0809 43.4131 96.2156 43.4131 96.2156C43.4131 96.2156 45.5757 103.049 46.1813 106.596C46.7869 110.143 46.8733 111.267 47.0463 112.738C47.2192 114.208 47.3925 115.506 47.3925 115.506H49.2953Z" fill="#92E3A9" stroke="#263238" stroke-miterlimit="10" stroke-linecap="round" stroke-linejoin="round"/>
<path d="M48.1706 118.36C48.1706 118.36 49.2949 115.246 51.0253 112.478C52.7556 109.71 55.264 109.105 55.6963 109.105C56.129 109.105 57.5996 109.105 57.5996 109.105C57.5996 109.105 54.2258 110.748 53.7935 112.305C53.3608 113.862 52.4094 117.063 51.7173 117.755C51.0253 118.447 49.2953 122.08 48.8627 122.945C48.43 123.81 47.3056 124.243 47.3056 124.243C47.3056 124.243 45.7486 121.907 48.1706 118.36Z" fill="#92E3A9" stroke="#263238" stroke-miterlimit="10" stroke-linecap="round" stroke-linejoin="round"/>
<path d="M49.5547 118.62L47.3057 124.243L47.9977 124.848C47.9977 124.848 49.0356 123.637 49.8145 122.513C50.593 121.388 51.1986 120.523 51.1986 120.004C51.1986 119.486 49.5547 118.62 49.5547 118.62Z" fill="#92E3A9" stroke="#263238" stroke-miterlimit="10" stroke-linecap="round" stroke-linejoin="round"/>
<path d="M48.6572 123.363C48.6572 123.363 45.3699 116.183 44.332 114.626C43.2941 113.069 42.1694 111.772 39.9203 111.166C37.6713 110.56 33.8652 109.436 30.4914 110.041C27.1176 110.647 21.3218 111.425 21.3218 111.425C21.3218 111.425 25.4741 113.329 30.4914 112.982C35.5086 112.637 39.9203 112.896 39.9203 112.896C39.9203 112.896 40.9582 113.328 41.7367 115.837C42.5152 118.345 44.1587 120.595 45.197 121.546C46.2348 122.498 47.9652 124.834 47.9652 124.834L48.6572 123.363Z" fill="#92E3A9" stroke="#263238" stroke-miterlimit="10" stroke-linecap="round" stroke-linejoin="round"/>
<path d="M49.295 115.506C49.295 115.506 45.6618 114.035 44.7969 115.333C43.9319 116.631 42.5478 123.378 42.5478 123.378C42.5478 123.378 41.8557 126.925 41.6828 127.27C41.5099 127.617 46.2674 123.983 47.3921 120.869C48.5161 117.755 49.295 115.506 49.295 115.506Z" fill="#92E3A9" stroke="#263238" stroke-miterlimit="10" stroke-linecap="round" stroke-linejoin="round"/>
<path d="M52.7555 117.755C52.7555 117.755 49.5546 117.841 49.5546 118.62C49.5546 119.398 49.9869 120.782 49.814 122.512C49.6411 124.242 49.4678 125.799 49.4678 125.799C49.4678 125.799 52.928 124.329 53.1009 122.339C53.2743 120.35 52.7555 117.755 52.7555 117.755Z" fill="#92E3A9" stroke="#263238" stroke-miterlimit="10" stroke-linecap="round" stroke-linejoin="round"/>
<path d="M54.2964 117.748C54.2964 117.748 57.5834 119.997 58.7081 122.074C59.8328 124.15 60.6978 128.475 60.6978 128.475C60.6978 128.475 58.4487 124.15 56.7188 121.814C54.9889 119.479 52.3936 117.576 51.8744 118.181C51.3553 118.787 53.0852 117.229 54.2964 117.748Z" fill="#263238" stroke="#263238" stroke-miterlimit="10" stroke-linecap="round" stroke-linejoin="round"/>
<path d="M192.024 15.2842H134.732V91.3743H192.024V15.2842Z" stroke="#263238" stroke-miterlimit="10" stroke-linecap="round"/>
<path d="M189.885 18.1248H136.871V88.5343H189.885V18.1248Z" stroke="#263238" stroke-miterlimit="10" stroke-linecap="round"/>
<path d="M176.284 36.1887H150.472V70.4701H176.284V36.1887Z" stroke="#263238" stroke-miterlimit="10" stroke-linecap="round"/>
<path d="M81.6226 114.444C81.6226 114.444 60.9746 119.583 60.2405 121.326C59.5065 123.07 58.9558 142.433 58.1296 143.626C57.3039 144.819 54.3672 145.462 54.3672 147.297C54.3672 149.133 56.8449 156.107 56.8449 156.107C56.8449 156.107 67.4903 174.736 68.5912 174.736C69.6925 174.736 71.6196 173.635 71.6196 173.635V175.838H138.427L138.703 170.332C138.703 170.332 144.759 155.465 145.402 154.18C146.044 152.895 148.889 149.684 147.879 147.205C146.87 144.728 145.126 143.076 144.851 140.874C144.576 138.671 137.877 120.134 136.317 118.482C134.756 116.83 122.735 115.729 118.421 115.178C114.108 114.628 109.061 113.985 109.061 113.985L81.6226 114.444Z" fill="#92E3A9" stroke="#263238" stroke-miterlimit="10" stroke-linecap="round"/>
<path d="M119.232 144.91C119.232 144.91 110.642 163.555 103.739 172.717C102.855 173.89 102.066 174.924 101.359 175.837H138.428L138.703 170.331C138.703 170.331 138.807 170.077 138.986 169.638L119.232 144.91Z" fill="#263238" stroke="#263238" stroke-miterlimit="10" stroke-linecap="round"/>
<path d="M88.8223 113.743C88.8223 113.743 94.1874 129.757 100.67 130.587C107.153 131.417 112.183 117.657 112.295 114.692C112.407 111.727 112.966 109.947 112.966 109.947C112.966 109.947 107.377 116.59 101.006 116.59C94.6346 116.59 88.8223 113.743 88.8223 113.743Z" fill="white" stroke="#263238" stroke-miterlimit="10" stroke-linecap="round"/>
<path d="M90.9834 115.82C90.9834 115.82 95.3882 128.209 100.711 128.852C106.034 129.494 110.163 118.849 110.255 116.555C110.347 114.26 110.806 112.884 110.806 112.884C110.806 112.884 106.217 118.023 100.986 118.023C95.7555 118.023 90.9834 115.82 90.9834 115.82Z" fill="white" stroke="#263238" stroke-miterlimit="10" stroke-linecap="round"/>
<path d="M90.9834 115.82C90.9834 115.82 93.5577 123.052 97.1468 126.751C101.008 123.173 108.786 114.995 108.786 114.995L108.652 114.855C106.819 116.304 104.011 118.023 100.986 118.023C95.7554 118.023 90.9834 115.82 90.9834 115.82Z" fill="#263238" stroke="#263238" stroke-miterlimit="10" stroke-linecap="round"/>
<path d="M89.8818 118.849C89.8818 118.849 90.0653 130.412 96.4893 136.56" stroke="#263238" stroke-miterlimit="10" stroke-linecap="round"/>
<path d="M94.3784 126.557C94.3784 126.557 98.2326 134.082 102.271 134.908" stroke="#263238" stroke-miterlimit="10" stroke-linecap="round"/>
<path d="M105.291 162.909C104.688 163.652 104.077 164.358 103.464 165.009" stroke="#263238" stroke-miterlimit="10" stroke-linecap="round"/>
<path d="M115.21 147.114C115.21 147.114 111.154 155.226 106.331 161.583" stroke="#263238" stroke-miterlimit="10" stroke-linecap="round"/>
<path d="M106.951 156.566C106.951 156.566 98.5999 166.018 95.2964 168.496" stroke="#263238" stroke-miterlimit="10" stroke-linecap="round"/>
<path d="M110.989 120.867C110.989 120.867 110.806 128.025 108.97 131.054" stroke="#263238" stroke-miterlimit="10" stroke-linecap="round"/>
<path d="M77.7427 94.7707C77.7427 94.7707 83.0145 107.292 85.9144 111.773C88.8139 116.254 98.699 121.658 102.653 120.34C106.607 119.022 110.693 115.331 113.46 109.4C116.228 103.469 115.965 92.0025 115.701 88.7075C115.437 85.4125 99.753 77.1091 96.1946 76.8457C92.6361 76.5823 83.2783 80.9313 81.4332 83.1719C79.5877 85.4133 77.7427 94.7707 77.7427 94.7707Z" fill="white" stroke="#263238" stroke-miterlimit="10" stroke-linecap="round"/>
<path d="M79.9831 68.411C79.9831 68.411 76.4247 66.9611 73.1296 70.9154C69.8346 74.8698 69.7029 76.0555 71.0208 76.0555C72.3386 76.0555 74.052 75.5283 74.052 75.5283C74.052 75.5283 68.3847 78.8233 68.6481 81.7228C68.9115 84.6223 69.5708 84.754 70.7569 83.6996C71.9431 82.6452 70.7569 85.413 71.4159 85.5447C72.0748 85.6764 72.7337 84.6219 72.7337 84.6219C72.7337 84.6219 74.8426 92.0026 76.8194 94.3749C78.7965 96.7472 78.401 96.8789 80.1144 96.6155C81.8278 96.3521 85.0678 98.8512 85.6472 95.3897C86.8176 88.3949 85.8787 91.5113 88.5814 94.0089C90.2746 95.5736 91.8445 87.5214 92.7673 85.4126C93.69 83.3037 94.3489 80.7997 94.3489 80.7997C94.3489 80.7997 94.3489 86.3353 96.3257 87.1259C98.3029 87.9165 98.698 85.4126 98.698 85.4126C98.698 85.4126 102.784 89.6299 107.529 90.2892C112.274 90.9482 112.405 87.3897 112.405 87.3897L114.382 88.8397C114.382 88.8397 115.569 91.3441 115.964 91.6075C116.36 91.8709 119.786 90.1575 120.973 89.2352C122.159 88.3125 122.949 87.258 121.368 85.1496C119.786 83.0407 119.391 82.25 119.391 82.25C119.391 82.25 121.5 84.0951 121.895 83.0407C122.291 81.9862 122.95 79.7456 121.105 78.164C119.26 76.5823 115.569 75.7917 115.569 75.7917C115.569 75.7917 117.414 75.3962 117.282 71.706C117.151 68.0155 116.36 67.0932 115.174 68.411C113.987 69.7289 111.878 71.4426 111.351 71.706C110.824 71.9695 114.646 66.3021 112.142 63.6664C109.638 61.0303 108.847 63.0075 107.397 63.5347C105.947 64.062 103.575 62.2169 99.0939 61.1624C94.6127 60.108 86.9683 59.8446 83.937 63.2713C80.9058 66.6981 80.9058 66.6981 80.9058 66.6981C80.9058 66.6981 80.6424 63.7986 79.9831 65.2481C79.3238 66.6977 79.9831 68.411 79.9831 68.411Z" fill="#263238" stroke="#263238" stroke-miterlimit="10" stroke-linecap="round"/>
<path d="M97.9077 106.369C97.9077 106.369 100.807 108.61 102.653 105.183" stroke="#263238" stroke-miterlimit="10" stroke-linecap="round"/>
<path d="M88.1228 108.249C86.9722 108.249 85.9909 108.081 85.416 107.698C83.9595 106.727 81.8135 102.986 81.9367 101.633C81.9787 101.167 82.0672 100.197 96.1559 96.604L96.4904 96.5188L96.7344 96.7628C96.8088 96.8376 97.4624 97.5215 97.4624 98.5679V98.6467C97.4709 101.819 96.9696 105.83 94.5347 106.921C92.7611 107.716 90.1735 108.249 88.1228 108.249ZM83.1515 101.894C83.2885 102.82 84.8714 105.879 86.0882 106.69C87.2154 107.441 91.4509 106.976 94.0385 105.815C95.4546 105.181 96.2605 102.569 96.2504 98.6499V98.5679C96.2504 98.2883 96.1547 98.0487 96.0598 97.8799C90.3189 99.3557 84.1769 101.189 83.1515 101.894Z" fill="#263238"/>
<path d="M105.985 104.133C103.433 104.133 101.155 100.994 99.6738 98.3086L99.6354 98.2391C99.1276 97.3237 99.3671 96.4086 99.3962 96.3076L99.4912 95.9759L99.8249 95.8883C113.888 92.1933 114.435 92.998 114.698 93.3851C115.462 94.5086 115.401 98.8213 114.599 100.377C113.718 102.085 109.272 103.864 106.249 104.122C106.16 104.129 106.072 104.133 105.985 104.133ZM100.528 96.9564C100.527 97.15 100.559 97.4061 100.695 97.6505L100.735 97.7232C102.628 101.154 104.607 103.05 106.145 102.914C108.971 102.673 112.901 101.025 113.522 99.8208C114.192 98.5211 114.092 95.0782 113.762 94.2024C112.523 94.086 106.263 95.4612 100.528 96.9564Z" fill="#263238"/>
<path d="M99.8539 95.8779L96.1816 96.5952L96.414 97.7847L100.086 97.0674L99.8539 95.8779Z" fill="#263238"/>
<path d="M97.4457 99.7395L96.4482 99.0511C96.9573 98.3073 98.4743 97.1325 100.577 98.008L100.111 99.1271C98.4355 98.4285 97.5419 99.6034 97.4457 99.7395Z" fill="#263238"/>
<path d="M88.3218 100.679C88.3218 100.679 91.4419 101.963 94.2868 99.0266" stroke="#263238" stroke-miterlimit="10" stroke-linecap="round"/>
<path d="M103.004 97.0994C103.004 97.0994 106.859 98.6596 109.704 95.3557" stroke="#263238" stroke-miterlimit="10" stroke-linecap="round"/>
<path d="M91.7172 93.337C91.7172 93.337 88.322 96.0899 87.3124 97.0078C86.3028 97.9253 84.4675 99.0266 85.936 99.1183C87.4041 99.21 92.4517 96.2733 93.8281 94.8969C95.2046 93.5204 92.9103 92.5113 91.7172 93.337Z" fill="#263238" stroke="#263238" stroke-miterlimit="10" stroke-linecap="round"/>
<path d="M99.6094 90.3086C99.6094 90.3086 98.692 91.8688 99.7011 92.3274C100.711 92.7863 107.868 93.4287 108.97 93.0614C110.071 92.6942 109.245 91.685 108.419 91.5012C107.593 91.3182 100.527 89.299 99.6094 90.3086Z" fill="#263238" stroke="#263238" stroke-miterlimit="10" stroke-linecap="round"/>
<path d="M102.638 112.563C102.638 113.146 102.207 113.618 101.674 113.618C101.142 113.618 100.711 113.146 100.711 112.563C100.711 111.98 101.142 111.507 101.674 111.507C102.207 111.507 102.638 111.98 102.638 112.563Z" fill="#263238" stroke="#263238" stroke-miterlimit="10" stroke-linecap="round"/>
<path d="M76.7614 81.0588C76.7614 81.0588 78.2146 79.2719 78.964 80.6535C79.7134 82.0352 77.0405 86.6489 76.9751 87.0759C76.9096 87.5026 78.6925 93.5638 80.2725 95.2145C81.8526 96.8657 88.702 104.904 88.6147 107.468C88.5275 110.032 87.4468 114.235 87.5946 114.694C87.7425 115.154 77.5677 112.852 77.5677 112.852L79.2092 107.556C79.2092 107.556 78.6048 106.939 78.5159 106.663C78.5159 106.663 69.9564 101.586 70.0481 98.6388C70.0845 97.4648 70.3374 87.7538 70.2953 86.1136C70.2533 84.4734 74.0554 79.9013 74.7018 79.389C75.3486 78.8768 76.7553 78.5253 76.7614 81.0588Z" fill="white" stroke="#263238" stroke-miterlimit="10" stroke-linecap="round"/>
<path d="M80.3838 107.486C80.3838 107.486 82.7662 105.853 85.4164 107.699" stroke="#263238" stroke-miterlimit="10" stroke-linecap="round"/>
<path d="M75.9813 81.7087C75.9813 81.7087 73.6482 86.7062 73.3198 87.5704C72.9913 88.4341 74.3584 93.15 75.3903 94.9406" stroke="#263238" stroke-miterlimit="10" stroke-linecap="round"/>
<path d="M70.2959 86.114C70.2959 86.114 71.2336 95.2178 71.7693 96.4104C72.305 97.6026 72.3935 97.8773 73.1199 98.2498C73.8463 98.6223 74.382 99.8145 74.382 99.8145" stroke="#263238" stroke-miterlimit="10" stroke-linecap="round"/>
<path d="M88.9641 117.656C88.9641 117.656 90.1572 114.444 89.8816 113.343C89.6065 112.241 83.8249 109.947 81.8978 110.406C79.9707 110.865 73.1799 110.865 72.996 112.517C72.8126 114.169 72.9043 118.206 72.8126 118.757C72.7209 119.307 71.7113 121.326 72.3537 121.51C72.996 121.693 87.679 124.63 87.679 124.63C87.679 124.63 88.0463 123.804 88.2297 122.335C88.4131 120.867 88.9641 117.656 88.9641 117.656Z" fill="#92E3A9" stroke="#263238" stroke-miterlimit="10" stroke-linecap="round"/>
<path d="M72.3542 121.51C72.3542 121.51 70.2433 121.143 69.3258 123.621C68.4083 126.099 67.7655 130.595 67.8577 131.88C67.9494 133.165 61.8926 145.646 61.8926 145.646C61.8926 145.646 55.2852 152.345 55.8358 155.924C56.3865 159.503 58.6808 168.68 60.883 171.158C63.0856 173.635 65.7467 176.297 68.2245 176.205C70.7022 176.113 70.7939 174.461 75.6577 172.351C80.5214 170.24 82.9075 171.525 84.1922 163.541C85.4769 155.557 86.5782 136.011 87.3123 132.982C88.0463 129.954 88.9642 129.128 88.6887 127.293C88.4132 125.457 87.6791 124.631 87.6791 124.631L72.3542 121.51Z" fill="#92E3A9" stroke="#263238" stroke-miterlimit="10" stroke-linecap="round"/>
<path d="M113.65 86.5462C113.65 86.5462 111.815 85.3532 111.54 86.8217C111.264 88.2899 115.027 91.6855 115.21 92.0527C115.394 92.42 115.547 98.4226 114.599 100.377C113.65 102.331 109.796 111.599 110.622 113.894C111.448 116.188 113.65 119.675 113.65 120.134C113.65 120.593 122.185 115.545 122.185 115.545L119.157 111.232C119.157 111.232 119.524 110.498 119.524 110.223C119.524 110.223 124.663 101.596 124.847 100.495C125.03 99.3938 121.413 90.7316 120.973 89.2356C120.533 87.7392 115.761 84.7108 115.027 84.4357C114.292 84.1602 112.918 84.2523 113.65 86.5462Z" fill="white" stroke="#263238" stroke-miterlimit="10" stroke-linecap="round"/>
<path d="M118.112 111.602C118.112 111.602 116.054 112.288 114.545 113.385" stroke="#263238" stroke-miterlimit="10" stroke-linecap="round"/>
<path d="M114.545 86.9065C114.545 86.9065 118.112 90.7481 118.661 91.4341C119.21 92.1201 119.347 96.7847 118.936 98.7057" stroke="#263238" stroke-miterlimit="10" stroke-linecap="round"/>
<path d="M120.973 89.2356C120.973 89.2356 122.777 97.7454 122.64 98.9801C122.503 100.215 122.503 100.489 121.954 101.038C121.405 101.587 121.268 102.822 121.268 102.822" stroke="#263238" stroke-miterlimit="10" stroke-linecap="round"/>
<path d="M115.669 130.87C115.669 130.87 113.834 133.807 114.384 136.285C114.935 138.763 125.305 167.028 125.305 167.028C125.305 167.028 133.564 175.195 136.409 175.654C139.254 176.113 140.355 176.205 142.924 173.727C145.494 171.249 150.449 164.274 151 158.401C151.551 152.528 148.339 149.867 146.87 147.94C145.402 146.013 134.482 129.953 133.013 126.833C131.545 123.713 127.782 122.979 127.782 122.979L115.669 130.87Z" fill="#92E3A9" stroke="#263238" stroke-miterlimit="10" stroke-linecap="round"/>
<path d="M123.189 113.111C123.189 113.111 110.291 119.414 110.567 121.892C110.842 124.369 114.293 126.282 114.843 128.393C115.394 130.503 115.761 131.421 117.046 130.962C118.331 130.503 126.406 124.447 127.048 123.896C127.691 123.345 128.333 122.703 127.691 121.785C127.048 120.868 125.795 119.148 125.795 119.148C125.795 119.148 124.565 112.377 123.189 113.111Z" fill="#92E3A9" stroke="#263238" stroke-miterlimit="10" stroke-linecap="round"/>
<path d="M128.058 125.548C128.058 125.548 134.666 148.674 141.273 155.373" stroke="#263238" stroke-miterlimit="10" stroke-linecap="round"/>
<path d="M140.32 158.982C140.756 159.487 141.143 159.86 141.456 160.053" stroke="#263238" stroke-miterlimit="10" stroke-linecap="round"/>
<path d="M132.371 146.563C132.371 146.563 136.284 153.586 139.194 157.552" stroke="#263238" stroke-miterlimit="10" stroke-linecap="round"/>
<path d="M133.381 175.929C131.545 176.021 127.874 176.205 125.213 175.562C122.552 174.919 112.274 170.056 106.4 169.688C101.158 169.361 98.5497 172.832 98.0492 173.583C97.549 172.832 94.9404 169.361 89.6981 169.688C83.8247 170.056 73.5466 174.919 70.8854 175.562C68.2243 176.204 64.5535 176.021 62.7182 175.929C60.8828 175.837 58.6802 175.837 58.6802 175.837V177.856H97.7736H98.3243H137.418V175.837C137.418 175.837 135.216 175.837 133.381 175.929Z" fill="white" stroke="#263238" stroke-miterlimit="10" stroke-linecap="round"/>
<path d="M137.418 176.847H58.6802V177.856H97.774H98.3247H137.418V176.847Z" fill="#263238" stroke="#263238" stroke-miterlimit="10" stroke-linecap="round"/>
<path d="M97.4069 176.021C97.4069 176.021 95.5715 172.442 90.6161 172.992C85.6606 173.543 77.8602 175.746 76.8506 175.837" stroke="#263238" stroke-miterlimit="10" stroke-linecap="round"/>
<path d="M95.0208 176.021C95.0208 176.021 93.7361 174.828 90.7994 174.92C87.8627 175.011 85.4767 176.113 85.1099 176.113" stroke="#263238" stroke-miterlimit="10" stroke-linecap="round"/>
<path d="M76.3921 175.012C76.3921 175.012 83.0912 173.176 86.2113 171.983C89.3314 170.79 91.2585 170.79 94.1034 172.167" stroke="#263238" stroke-miterlimit="10" stroke-linecap="round"/>
<path d="M95.9385 172.992C95.9385 172.992 97.1315 173.176 97.5904 174.644" stroke="#263238" stroke-miterlimit="10" stroke-linecap="round"/>
<path d="M99.7012 175.746C99.7012 175.746 101.353 174.094 105.85 174.736C110.346 175.378 112.274 175.47 112.274 175.47" stroke="#263238" stroke-miterlimit="10" stroke-linecap="round"/>
<path d="M98.6914 175.746C98.6914 175.746 99.6089 173.176 103.739 172.717C107.868 172.258 114.751 174.828 116.127 175.195" stroke="#263238" stroke-miterlimit="10" stroke-linecap="round"/>
<path d="M108.511 171.891C108.511 171.891 115.118 173.084 119.982 175.47" stroke="#263238" stroke-miterlimit="10" stroke-linecap="round"/>
<path d="M22.2036 177.856H56.3731C59.4431 177.856 61.9322 175.367 61.9322 172.297V170.499C61.9322 167.429 59.4431 164.94 56.3731 164.94H22.2036V177.856Z" fill="#D4D4D4" stroke="#263238" stroke-miterlimit="10" stroke-linecap="round"/>
<path d="M13.4033 176.129H50.1657C52.4148 176.129 54.2384 174.306 54.2384 172.057V170.74C54.2384 168.49 52.4148 166.667 50.1657 166.667H13.4033V176.129Z" fill="white" stroke="#263238" stroke-miterlimit="10" stroke-linecap="round"/>
<path d="M49.507 166.667H11.7402V164.94H49.2617C52.8282 164.94 55.7197 167.832 55.7197 171.398C55.7197 174.965 52.8282 177.856 49.2617 177.856H11.7402V176.129H49.507C52.12 176.129 54.2382 174.011 54.2382 171.398C54.2382 168.785 52.12 166.667 49.507 166.667Z" fill="#BABABA" stroke="#263238" stroke-miterlimit="10" stroke-linecap="round"/>
<path d="M52.8179 169.59H42.6133" stroke="#263238" stroke-miterlimit="10" stroke-linecap="round"/>
<path d="M50.5507 170.875H46.1665" stroke="#263238" stroke-miterlimit="10" stroke-linecap="round"/>
<path d="M53.8005 173.369H44.4277" stroke="#263238" stroke-miterlimit="10" stroke-linecap="round"/>
<path d="M43.3695 173.52H40.1948" stroke="#263238" stroke-miterlimit="10" stroke-linecap="round"/>
<path d="M46.7712 175.183H41.7822" stroke="#263238" stroke-miterlimit="10" stroke-linecap="round"/>
<path d="M54.2381 171.398H52.1377" stroke="#263238" stroke-miterlimit="10" stroke-linecap="round"/>
<path d="M13.5122 171.026H18.5768" stroke="#263238" stroke-miterlimit="10" stroke-linecap="round"/>
<path d="M16.3091 172.991H22.7339" stroke="#263238" stroke-miterlimit="10" stroke-linecap="round"/>
<path d="M19.8613 171.026H23.9433" stroke="#263238" stroke-miterlimit="10" stroke-linecap="round"/>
<path d="M29.7476 126.392H63.9171C66.9871 126.392 69.4761 123.904 69.4761 120.833V119.035C69.4761 115.965 66.9871 113.476 63.9171 113.476H29.7476V126.392Z" fill="#D4D4D4" stroke="#263238" stroke-miterlimit="10" stroke-linecap="round"/>
<path d="M20.9473 124.666H57.7096C59.9591 124.666 61.7824 122.842 61.7824 120.593V119.276C61.7824 117.026 59.9591 115.203 57.7096 115.203H20.9473V124.666Z" fill="white" stroke="#263238" stroke-miterlimit="10" stroke-linecap="round"/>
<path d="M57.0509 115.203H19.2842V113.476H56.8057C60.3722 113.476 63.2636 116.368 63.2636 119.934C63.2636 123.501 60.3722 126.392 56.8057 126.392H19.2842V124.666H57.0509C59.664 124.666 61.7822 122.547 61.7822 119.934C61.7822 117.321 59.664 115.203 57.0509 115.203Z" fill="#BABABA" stroke="#263238" stroke-miterlimit="10" stroke-linecap="round"/>
<path d="M60.3619 118.126H50.1577" stroke="#263238" stroke-miterlimit="10" stroke-linecap="round"/>
<path d="M58.0947 119.411H53.7104" stroke="#263238" stroke-miterlimit="10" stroke-linecap="round"/>
<path d="M61.3445 121.905H51.9717" stroke="#263238" stroke-miterlimit="10" stroke-linecap="round"/>
<path d="M50.9134 122.056H47.7388" stroke="#263238" stroke-miterlimit="10" stroke-linecap="round"/>
<path d="M54.3152 123.719H49.3262" stroke="#263238" stroke-miterlimit="10" stroke-linecap="round"/>
<path d="M61.782 119.934H59.6816" stroke="#263238" stroke-miterlimit="10" stroke-linecap="round"/>
<path d="M21.0562 119.562H26.1207" stroke="#263238" stroke-miterlimit="10" stroke-linecap="round"/>
<path d="M23.853 121.527H30.2778" stroke="#263238" stroke-miterlimit="10" stroke-linecap="round"/>
<path d="M27.4058 119.562H31.4874" stroke="#263238" stroke-miterlimit="10" stroke-linecap="round"/>
<path d="M22.2036 164.944H56.3731C59.4431 164.944 61.9322 162.456 61.9322 159.385V157.587C61.9322 154.517 59.4431 152.028 56.3731 152.028H22.2036V164.944Z" fill="#263238" stroke="#263238" stroke-miterlimit="10" stroke-linecap="round"/>
<path d="M13.4033 163.218H50.1657C52.4148 163.218 54.2384 161.394 54.2384 159.145V157.828C54.2384 155.579 52.4148 153.755 50.1657 153.755H13.4033V163.218Z" fill="white" stroke="#263238" stroke-miterlimit="10" stroke-linecap="round"/>
<path d="M49.507 153.755H11.7402V152.028H49.2617C52.8282 152.028 55.7197 154.92 55.7197 158.486C55.7197 162.053 52.8282 164.944 49.2617 164.944H11.7402V163.217H49.507C52.12 163.217 54.2382 161.099 54.2382 158.486C54.2382 155.873 52.12 153.755 49.507 153.755Z" fill="#263238" stroke="#263238" stroke-miterlimit="10" stroke-linecap="round"/>
<path d="M52.8179 156.677H42.6133" stroke="#263238" stroke-miterlimit="10" stroke-linecap="round"/>
<path d="M50.5507 157.963H46.1665" stroke="#263238" stroke-miterlimit="10" stroke-linecap="round"/>
<path d="M53.8005 160.457H44.4277" stroke="#263238" stroke-miterlimit="10" stroke-linecap="round"/>
<path d="M43.3695 160.608H40.1948" stroke="#263238" stroke-miterlimit="10" stroke-linecap="round"/>
<path d="M46.7712 162.271H41.7822" stroke="#263238" stroke-miterlimit="10" stroke-linecap="round"/>
<path d="M54.2381 158.486H52.1377" stroke="#263238" stroke-miterlimit="10" stroke-linecap="round"/>
<path d="M13.5122 158.114H18.5768" stroke="#263238" stroke-miterlimit="10" stroke-linecap="round"/>
<path d="M16.3091 160.079H22.7339" stroke="#263238" stroke-miterlimit="10" stroke-linecap="round"/>
<path d="M19.8613 158.114H23.9433" stroke="#263238" stroke-miterlimit="10" stroke-linecap="round"/>
<path d="M47.6079 152.169H13.4384C10.3684 152.169 7.87939 149.68 7.87939 146.61V144.812C7.87939 141.742 10.3684 139.253 13.4384 139.253H47.6079V152.169Z" fill="#92E3A9" stroke="#263238" stroke-miterlimit="10" stroke-linecap="round"/>
<path d="M56.4083 150.443H19.646C17.3965 150.443 15.5732 148.619 15.5732 146.37V145.053C15.5732 142.803 17.3965 140.98 19.646 140.98H56.4083V150.443Z" fill="white" stroke="#263238" stroke-miterlimit="10" stroke-linecap="round"/>
<path d="M20.305 140.98H58.0717V139.253H20.5502C16.9837 139.253 14.0923 142.145 14.0923 145.711C14.0923 149.278 16.9837 152.169 20.5502 152.169H58.0717V150.443H20.305C17.6919 150.443 15.5738 148.324 15.5738 145.711C15.5738 143.098 17.6919 140.98 20.305 140.98Z" fill="#D6D6D6" stroke="#263238" stroke-miterlimit="10" stroke-linecap="round"/>
<path d="M16.9937 143.903H27.1979" stroke="#263238" stroke-miterlimit="10" stroke-linecap="round"/>
<path d="M19.2612 145.188H23.645" stroke="#263238" stroke-miterlimit="10" stroke-linecap="round"/>
<path d="M16.0107 147.682H25.3839" stroke="#263238" stroke-miterlimit="10" stroke-linecap="round"/>
<path d="M26.4419 147.833H29.6165" stroke="#263238" stroke-miterlimit="10" stroke-linecap="round"/>
<path d="M23.0405 149.496H28.0291" stroke="#263238" stroke-miterlimit="10" stroke-linecap="round"/>
<path d="M15.5737 145.711H17.6741" stroke="#263238" stroke-miterlimit="10" stroke-linecap="round"/>
<path d="M56.299 145.339H51.2349" stroke="#263238" stroke-miterlimit="10" stroke-linecap="round"/>
<path d="M53.5029 147.304H47.0776" stroke="#263238" stroke-miterlimit="10" stroke-linecap="round"/>
<path d="M49.9498 145.339H45.8682" stroke="#263238" stroke-miterlimit="10" stroke-linecap="round"/>
<path d="M53.896 139.368H19.7265C16.6565 139.368 14.1675 136.879 14.1675 133.809V132.011C14.1675 128.941 16.6565 126.452 19.7265 126.452H53.896V139.368Z" fill="#263238" stroke="#263238" stroke-miterlimit="10" stroke-linecap="round"/>
<path d="M62.6969 137.641H25.9345C23.6851 137.641 21.8618 135.818 21.8618 133.568V132.251C21.8618 130.002 23.6851 128.179 25.9345 128.179H62.6969V137.641Z" fill="white" stroke="#263238" stroke-miterlimit="10" stroke-linecap="round"/>
<path d="M26.5931 128.178H64.3598V126.452H26.8383C23.2718 126.452 20.3804 129.343 20.3804 132.91C20.3804 136.476 23.2718 139.368 26.8383 139.368H64.3598V137.641H26.5931C23.98 137.641 21.8618 135.523 21.8618 132.91C21.8618 130.297 23.98 128.178 26.5931 128.178Z" fill="#D6D6D6" stroke="#263238" stroke-miterlimit="10" stroke-linecap="round"/>
<path d="M23.2817 131.101H33.4864" stroke="#263238" stroke-miterlimit="10" stroke-linecap="round"/>
<path d="M25.5493 132.386H29.9335" stroke="#263238" stroke-miterlimit="10" stroke-linecap="round"/>
<path d="M22.2993 134.881H31.6721" stroke="#263238" stroke-miterlimit="10" stroke-linecap="round"/>
<path d="M32.7305 135.032H35.9051" stroke="#263238" stroke-miterlimit="10" stroke-linecap="round"/>
<path d="M29.3286 136.695H34.3176" stroke="#263238" stroke-miterlimit="10" stroke-linecap="round"/>
<path d="M21.8618 132.91H23.9622" stroke="#263238" stroke-miterlimit="10" stroke-linecap="round"/>
<path d="M62.5875 132.537H57.5229" stroke="#263238" stroke-miterlimit="10" stroke-linecap="round"/>
<path d="M59.791 134.502H53.3662" stroke="#263238" stroke-miterlimit="10" stroke-linecap="round"/>
<path d="M56.2383 132.537H52.1562" stroke="#263238" stroke-miterlimit="10" stroke-linecap="round"/>
<path d="M53.8633 113.595H19.6938C16.6238 113.595 14.1348 111.106 14.1348 108.036V106.238C14.1348 103.168 16.6238 100.679 19.6938 100.679H53.8633V113.595Z" fill="#92E3A9" stroke="#263238" stroke-miterlimit="10" stroke-linecap="round"/>
<path d="M62.6642 111.868H25.9018C23.6524 111.868 21.8291 110.045 21.8291 107.796V106.479C21.8291 104.229 23.6524 102.406 25.9018 102.406H62.6642V111.868Z" fill="white" stroke="#263238" stroke-miterlimit="10" stroke-linecap="round"/>
<path d="M26.5604 102.406H64.3271V100.679H26.8056C23.2391 100.679 20.3477 103.571 20.3477 107.137C20.3477 110.704 23.2391 113.595 26.8056 113.595H64.3271V111.868H26.5604C23.9473 111.868 21.8291 109.75 21.8291 107.137C21.8291 104.524 23.9477 102.406 26.5604 102.406Z" fill="#D6D6D6" stroke="#263238" stroke-miterlimit="10" stroke-linecap="round"/>
<path d="M23.249 105.329H33.4537" stroke="#263238" stroke-miterlimit="10" stroke-linecap="round"/>
<path d="M25.5166 106.614H29.9008" stroke="#263238" stroke-miterlimit="10" stroke-linecap="round"/>
<path d="M22.2666 109.108H31.6394" stroke="#263238" stroke-miterlimit="10" stroke-linecap="round"/>
<path d="M32.6978 109.259H35.8724" stroke="#263238" stroke-miterlimit="10" stroke-linecap="round"/>
<path d="M29.2959 110.922H34.2849" stroke="#263238" stroke-miterlimit="10" stroke-linecap="round"/>
<path d="M21.8291 107.137H23.9295" stroke="#263238" stroke-miterlimit="10" stroke-linecap="round"/>
<path d="M62.5549 106.765H57.4907" stroke="#263238" stroke-miterlimit="10" stroke-linecap="round"/>
<path d="M59.7587 108.73H53.3335" stroke="#263238" stroke-miterlimit="10" stroke-linecap="round"/>
<path d="M56.2056 106.765H52.124" stroke="#263238" stroke-miterlimit="10" stroke-linecap="round"/>
<path d="M185.656 177.856H151.487C148.417 177.856 145.928 175.367 145.928 172.297V170.499C145.928 167.429 148.417 164.94 151.487 164.94H185.656V177.856Z" fill="#D4D4D4" stroke="#263238" stroke-miterlimit="10" stroke-linecap="round"/>
<path d="M194.457 176.129H157.694C155.445 176.129 153.622 174.306 153.622 172.057V170.74C153.622 168.49 155.445 166.667 157.694 166.667H194.457V176.129Z" fill="white" stroke="#263238" stroke-miterlimit="10" stroke-linecap="round"/>
<path d="M158.353 166.667H196.12V164.94H158.599C155.032 164.94 152.141 167.832 152.141 171.398C152.141 174.965 155.032 177.856 158.599 177.856H196.12V176.129H158.353C155.74 176.129 153.622 174.011 153.622 171.398C153.622 168.785 155.74 166.667 158.353 166.667Z" fill="#BABABA" stroke="#263238" stroke-miterlimit="10" stroke-linecap="round"/>
<path d="M155.042 169.59H165.246" stroke="#263238" stroke-miterlimit="10" stroke-linecap="round"/>
<path d="M157.31 170.875H161.694" stroke="#263238" stroke-miterlimit="10" stroke-linecap="round"/>
<path d="M154.06 173.369H163.432" stroke="#263238" stroke-miterlimit="10" stroke-linecap="round"/>
<path d="M164.49 173.52H167.665" stroke="#263238" stroke-miterlimit="10" stroke-linecap="round"/>
<path d="M161.089 175.183H166.077" stroke="#263238" stroke-miterlimit="10" stroke-linecap="round"/>
<path d="M153.622 171.398H155.722" stroke="#263238" stroke-miterlimit="10" stroke-linecap="round"/>
<path d="M194.348 171.026H189.283" stroke="#263238" stroke-miterlimit="10" stroke-linecap="round"/>
<path d="M191.551 172.991H185.126" stroke="#263238" stroke-miterlimit="10" stroke-linecap="round"/>
<path d="M187.998 171.026H183.917" stroke="#263238" stroke-miterlimit="10" stroke-linecap="round"/>
<path d="M185.656 164.944H151.487C148.417 164.944 145.928 162.456 145.928 159.385V157.587C145.928 154.517 148.417 152.028 151.487 152.028H185.656V164.944Z" fill="#263238" stroke="#263238" stroke-miterlimit="10" stroke-linecap="round"/>
<path d="M194.457 163.218H157.694C155.445 163.218 153.622 161.394 153.622 159.145V157.828C153.622 155.579 155.445 153.755 157.694 153.755H194.457V163.218Z" fill="white" stroke="#263238" stroke-miterlimit="10" stroke-linecap="round"/>
<path d="M158.353 153.755H196.12V152.028H158.599C155.032 152.028 152.141 154.92 152.141 158.486C152.141 162.053 155.032 164.944 158.599 164.944H196.12V163.217H158.353C155.74 163.217 153.622 161.099 153.622 158.486C153.622 155.873 155.74 153.755 158.353 153.755Z" fill="#263238" stroke="#263238" stroke-miterlimit="10" stroke-linecap="round"/>
<path d="M155.042 156.677H165.246" stroke="#263238" stroke-miterlimit="10" stroke-linecap="round"/>
<path d="M157.31 157.963H161.694" stroke="#263238" stroke-miterlimit="10" stroke-linecap="round"/>
<path d="M154.06 160.457H163.432" stroke="#263238" stroke-miterlimit="10" stroke-linecap="round"/>
<path d="M164.49 160.608H167.665" stroke="#263238" stroke-miterlimit="10" stroke-linecap="round"/>
<path d="M161.089 162.271H166.077" stroke="#263238" stroke-miterlimit="10" stroke-linecap="round"/>
<path d="M153.622 158.486H155.722" stroke="#263238" stroke-miterlimit="10" stroke-linecap="round"/>
<path d="M194.348 158.114H189.283" stroke="#263238" stroke-miterlimit="10" stroke-linecap="round"/>
<path d="M191.551 160.079H185.126" stroke="#263238" stroke-miterlimit="10" stroke-linecap="round"/>
<path d="M187.998 158.114H183.917" stroke="#263238" stroke-miterlimit="10" stroke-linecap="round"/>
<path d="M185.057 138.919H150.888C147.818 138.919 145.329 136.43 145.329 133.36V131.562C145.329 128.492 147.817 126.003 150.888 126.003H185.057V138.919Z" fill="#92E3A9" stroke="#263238" stroke-miterlimit="10" stroke-linecap="round"/>
<path d="M193.858 137.192H157.096C154.846 137.192 153.023 135.369 153.023 133.119V131.802C153.023 129.553 154.846 127.729 157.096 127.729H193.858V137.192Z" fill="white" stroke="#263238" stroke-miterlimit="10" stroke-linecap="round"/>
<path d="M157.754 127.729H195.521V126.003H157.999C154.433 126.003 151.542 128.894 151.542 132.461C151.542 136.027 154.433 138.919 157.999 138.919H195.521V137.192H157.754C155.141 137.192 153.023 135.074 153.023 132.461C153.023 129.848 155.141 127.729 157.754 127.729Z" fill="#D6D6D6" stroke="#263238" stroke-miterlimit="10" stroke-linecap="round"/>
<path d="M154.443 130.652H164.648" stroke="#263238" stroke-miterlimit="10" stroke-linecap="round"/>
<path d="M156.71 131.937H161.095" stroke="#263238" stroke-miterlimit="10" stroke-linecap="round"/>
<path d="M153.46 134.431H162.833" stroke="#263238" stroke-miterlimit="10" stroke-linecap="round"/>
<path d="M163.892 134.583H167.066" stroke="#263238" stroke-miterlimit="10" stroke-linecap="round"/>
<path d="M160.49 136.246H165.479" stroke="#263238" stroke-miterlimit="10" stroke-linecap="round"/>
<path d="M153.023 132.461H155.123" stroke="#263238" stroke-miterlimit="10" stroke-linecap="round"/>
<path d="M193.749 132.088H188.685" stroke="#263238" stroke-miterlimit="10" stroke-linecap="round"/>
<path d="M190.952 134.054H184.527" stroke="#263238" stroke-miterlimit="10" stroke-linecap="round"/>
<path d="M187.399 132.088H183.317" stroke="#263238" stroke-miterlimit="10" stroke-linecap="round"/>
<path d="M156.96 151.886H191.13C194.2 151.886 196.689 149.397 196.689 146.327V144.529C196.689 141.459 194.2 138.97 191.13 138.97H156.96V151.886Z" fill="#263238" stroke="#263238" stroke-miterlimit="10" stroke-linecap="round"/>
<path d="M151.59 150.16H188.352C190.602 150.16 192.425 148.336 192.425 146.087V144.77C192.425 142.52 190.602 140.697 188.352 140.697H151.59V150.16Z" fill="#D4D4D4" stroke="#263238" stroke-miterlimit="10" stroke-linecap="round"/>
<path d="M187.693 140.697H149.927V138.97H187.448C191.015 138.97 193.906 141.862 193.906 145.428C193.906 148.995 191.015 151.886 187.448 151.886H149.927V150.159H187.693C190.307 150.159 192.425 148.041 192.425 145.428C192.425 142.815 190.306 140.697 187.693 140.697Z" fill="#D6D6D6" stroke="#263238" stroke-miterlimit="10" stroke-linecap="round"/>
<path d="M191.004 143.619H180.8" stroke="#263238" stroke-miterlimit="10" stroke-linecap="round"/>
<path d="M188.737 144.905H184.353" stroke="#263238" stroke-miterlimit="10" stroke-linecap="round"/>
<path d="M191.987 147.399H182.614" stroke="#263238" stroke-miterlimit="10" stroke-linecap="round"/>
<path d="M181.556 147.55H178.381" stroke="#263238" stroke-miterlimit="10" stroke-linecap="round"/>
<path d="M184.957 149.213H179.969" stroke="#263238" stroke-miterlimit="10" stroke-linecap="round"/>
<path d="M192.425 145.428H190.324" stroke="#263238" stroke-miterlimit="10" stroke-linecap="round"/>
<path d="M151.699 145.056H156.763" stroke="#263238" stroke-miterlimit="10" stroke-linecap="round"/>
<path d="M154.495 147.021H160.92" stroke="#263238" stroke-miterlimit="10" stroke-linecap="round"/>
<path d="M158.048 145.056H162.129" stroke="#263238" stroke-miterlimit="10" stroke-linecap="round"/>
<path d="M151.59 145.16H196.689V144.529C196.689 141.459 194.2 138.97 191.13 138.97H149.927V140.697H151.59V145.16Z" fill="#263238" stroke="#263238" stroke-miterlimit="10" stroke-linecap="round"/>
<path d="M158.236 79.9271C161.83 72.2923 158.554 63.1898 150.919 59.596C143.284 56.0022 134.182 59.2781 130.588 66.9129C126.994 74.5476 130.27 83.6501 137.905 87.2439C145.54 90.8377 154.642 87.5618 158.236 79.9271Z" fill="#92E3A9" stroke="#263238" stroke-miterlimit="10"/>
<path d="M175.17 173.945H178.251L188.545 111.588L153.458 71.7988L150.907 73.5251L185.465 112.533L175.17 173.945Z" fill="#263238"/>
<path d="M187.005 115.351C188.822 115.351 190.296 113.878 190.296 112.061C190.296 110.243 188.822 108.77 187.005 108.77C185.187 108.77 183.714 110.243 183.714 112.061C183.714 113.878 185.187 115.351 187.005 115.351Z" fill="#263238" stroke="#263238" stroke-miterlimit="10"/>
<path d="M157.621 177.856H196.238V173.687H157.621V177.856Z" fill="#263238" stroke="#263238" stroke-miterlimit="10"/>
<path d="M143.252 67.6004C145.109 72.269 150.399 74.548 155.067 72.6908C159.736 70.8336 162.015 65.5437 160.157 60.875C158.3 56.2068 153.01 53.9274 148.342 55.7846C143.674 57.6422 141.394 62.9322 143.252 67.6004Z" fill="#92E3A9" stroke="#263238" stroke-miterlimit="10"/>
<path d="M155.067 72.6912C150.398 74.5484 145.108 72.269 143.252 67.6008C142.03 64.53 142.599 61.1905 144.459 58.7358L141.365 62.066C138.499 64.5268 137.363 68.6241 138.838 72.3312C140.695 76.9999 145.985 79.2788 150.653 77.4216C151.724 76.9958 152.666 76.3878 153.465 75.6497L153.504 75.6937L153.932 75.1863C154.152 74.9512 154.359 74.706 154.552 74.4506L156.819 71.7608C156.281 72.1264 155.696 72.4407 155.067 72.6912Z" fill="#92E3A9" stroke="#263238" stroke-miterlimit="10"/>
<path d="M199.129 179.069H3.43594C2.77136 179.069 2.23242 178.526 2.23242 177.857C2.23242 177.187 2.77136 176.645 3.43594 176.645H199.129C199.794 176.645 200.333 177.187 200.333 177.857C200.333 178.526 199.794 179.069 199.129 179.069Z" fill="#263238"/>
</svg>
