<svg width="18" height="19" viewBox="0 0 18 19" fill="none" xmlns="http://www.w3.org/2000/svg">
<path fill-rule="evenodd" clip-rule="evenodd" d="M18 8.8328V17.5C18 18.3284 17.3284 19 16.5 19H12.75C11.9216 19 11.25 18.3284 11.25 17.5V13.75C11.25 13.3358 10.9142 13 10.5 13H7.5C7.08579 13 6.75 13.3358 6.75 13.75V17.5C6.75 18.3284 6.07843 19 5.25 19H1.5C0.671573 19 1.73613e-08 18.3284 1.73613e-08 17.5V8.8328C-6.37851e-05 8.41308 0.17573 8.01253 0.484688 7.72843L7.98469 0.65218L7.995 0.641867C8.56719 0.121493 9.44124 0.121493 10.0134 0.641867C10.0166 0.645536 10.0201 0.648981 10.0238 0.65218L17.5238 7.72843C17.8296 8.01401 18.0022 8.41437 18 8.8328V8.8328Z" fill="#141414"/>
</svg>
