<svg width="854" height="582" viewBox="0 0 854 582" fill="none" xmlns="http://www.w3.org/2000/svg">
<g clip-path="url(#clip0_77_205)">
<path d="M415.693 29.1638H414.703V27.4337H415.446C415.577 27.4337 415.703 27.3817 415.795 27.289C415.888 27.1963 415.94 27.0705 415.94 26.9394V18.042C415.94 17.9109 415.888 17.7852 415.795 17.6925C415.703 17.5998 415.577 17.5477 415.446 17.5477H414.703V12.4947C414.703 11.0811 414.425 9.68127 413.883 8.37524C413.342 7.06921 412.548 5.88252 411.548 4.88292C410.547 3.88333 409.36 3.09042 408.053 2.54944C406.745 2.00847 405.344 1.73004 403.93 1.73005H402.83V0.494302C402.83 0.363205 402.778 0.237477 402.685 0.144777C402.592 0.0520778 402.467 0 402.335 0H393.43C393.299 0 393.173 0.0520778 393.081 0.144777C392.988 0.237477 392.936 0.363205 392.936 0.494302V1.73005H232.041C230.626 1.73004 229.225 2.00847 227.918 2.54944C226.611 3.09042 225.423 3.88333 224.423 4.88292C223.422 5.88252 222.629 7.06921 222.087 8.37524C221.546 9.68127 221.267 11.0811 221.267 12.4947V241.576C221.267 242.99 221.546 244.389 222.087 245.695C222.629 247.001 223.422 248.188 224.423 249.188C225.423 250.187 226.611 250.98 227.918 251.521C229.225 252.062 230.626 252.341 232.041 252.341H403.93C405.344 252.341 406.745 252.062 408.053 251.521C409.36 250.98 410.547 250.187 411.548 249.188C412.548 248.188 413.342 247.001 413.883 245.695C414.425 244.389 414.703 242.99 414.703 241.576V39.0498H415.693C415.824 39.0498 415.95 38.9977 416.043 38.905C416.135 38.8123 416.188 38.6866 416.188 38.5555V29.658C416.188 29.527 416.135 29.4012 416.043 29.3085C415.95 29.2158 415.824 29.1638 415.693 29.1638Z" fill="#3F3D56"/>
<path d="M407.284 8.77136H230.171V243.569H407.284V8.77136Z" fill="#F2F2F2"/>
<path d="M854 490.724H0V492.193H854V490.724Z" fill="#3F3D56"/>
<path d="M199.436 417.444C201.085 473.858 168.095 494.532 126.693 495.74C125.731 495.768 124.773 495.785 123.82 495.792C121.9 495.806 119.999 495.774 118.116 495.696C80.6723 494.143 51.0332 474.284 49.4997 421.819C47.9127 367.524 115.361 296.979 120.422 291.761C120.426 291.761 120.426 291.761 120.431 291.756C120.623 291.557 120.722 291.458 120.722 291.458C120.722 291.458 197.787 361.035 199.436 417.444Z" fill="#38D39F"/>
<path d="M123.712 487.191L150.012 448.113L123.766 491.395L123.82 495.792C121.9 495.807 119.999 495.775 118.116 495.696L119.421 439.173L119.385 438.737L119.433 438.653L119.558 433.312L90.7563 391.531L119.524 429.314L119.626 430.443L120.611 387.738L95.7345 344.42L120.682 380.236L120.422 291.761L120.422 291.466L120.431 291.756L122.082 361.486L144.754 333.162L122.156 367.493L122.651 405.692L143.514 368.411L122.728 411.308L123.003 432.548L153.344 380.617L123.096 439.958L123.712 487.191Z" fill="#3F3D56"/>
<path d="M637.455 78.1135H636.36V48.1356C636.36 45.8571 635.911 43.6009 635.038 41.4959C634.165 39.3908 632.886 37.4781 631.274 35.867C629.661 34.2558 627.747 32.9778 625.64 32.1059C623.533 31.2339 621.275 30.7852 618.995 30.7852H555.428C553.148 30.7851 550.89 31.2339 548.783 32.1059C546.676 32.9778 544.762 34.2558 543.149 35.867C541.537 37.4781 540.257 39.3908 539.385 41.4959C538.512 43.6009 538.063 45.8571 538.063 48.1356V212.597C538.063 214.875 538.512 217.132 539.385 219.237C540.257 221.342 541.537 223.254 543.149 224.865C544.762 226.477 546.676 227.755 548.783 228.627C550.89 229.499 553.148 229.947 555.428 229.947H618.995C621.275 229.947 623.533 229.499 625.64 228.627C627.747 227.755 629.661 226.477 631.274 224.865C632.886 223.254 634.165 221.342 635.038 219.237C635.911 217.132 636.36 214.875 636.36 212.597V99.4523H637.455V78.1135Z" fill="#3F3D56"/>
<path d="M632.662 49.1553V213.377C632.662 216.813 631.296 220.109 628.865 222.54C626.433 224.97 623.135 226.336 619.695 226.337H555.822C552.383 226.336 549.084 224.97 546.653 222.54C544.221 220.109 542.855 216.813 542.856 213.377V49.1553C542.856 45.7195 544.222 42.4246 546.654 39.9951C549.086 37.5656 552.383 36.2006 555.822 36.2002H563.571C563.19 37.1349 563.045 38.1489 563.148 39.1529C563.251 40.157 563.6 41.1203 564.164 41.9579C564.727 42.7956 565.488 43.4819 566.38 43.9564C567.271 44.4309 568.266 44.6791 569.276 44.679H605.693C606.703 44.6791 607.698 44.4309 608.59 43.9564C609.481 43.4819 610.242 42.7956 610.806 41.9579C611.37 41.1203 611.719 40.157 611.822 39.1529C611.925 38.1489 611.78 37.1349 611.398 36.2002H619.695C623.134 36.2006 626.432 37.5656 628.863 39.9951C631.295 42.4245 632.661 45.7195 632.662 49.1553Z" fill="#F2F2F2"/>
<path d="M623.297 58.0347H569.333V60.0382H623.297V58.0347Z" fill="#CCCCCC"/>
<path d="M623.297 64.3792H569.333V66.3826H623.297V64.3792Z" fill="#CCCCCC"/>
<path d="M623.297 70.7235H569.333V72.727H623.297V70.7235Z" fill="#CCCCCC"/>
<path d="M564.447 59.2728H552.221V71.4888H564.447V59.2728Z" fill="#CCCCCC"/>
<path d="M623.297 200.55H569.333V202.554H623.297V200.55Z" fill="#CCCCCC"/>
<path d="M623.297 206.895H569.333V208.898H623.297V206.895Z" fill="#CCCCCC"/>
<path d="M623.297 213.239H569.333V215.243H623.297V213.239Z" fill="#CCCCCC"/>
<path d="M564.447 201.788H552.221V214.004H564.447V201.788Z" fill="#CCCCCC"/>
<path d="M617.536 279.571H464.075V276.411H394.49V279.571H240.397C239.033 279.571 237.684 279.84 236.424 280.361C235.165 280.882 234.02 281.646 233.056 282.609C232.093 283.572 231.328 284.716 230.806 285.974C230.285 287.232 230.016 288.581 230.016 289.943V499.899C230.016 502.65 231.11 505.288 233.056 507.233C235.003 509.178 237.644 510.271 240.397 510.271H617.536C620.289 510.271 622.929 509.178 624.876 507.233C626.822 505.288 627.916 502.65 627.916 499.899V289.943C627.916 288.581 627.648 287.232 627.126 285.974C626.604 284.716 625.84 283.572 624.876 282.609C623.912 281.646 622.767 280.882 621.508 280.361C620.249 279.84 618.899 279.571 617.536 279.571Z" fill="#3F3D56"/>
<path d="M613.999 297.901H243.933V506.479H613.999V297.901Z" fill="#F2F2F2"/>
<path d="M428.65 292.213C430.746 292.213 432.445 290.515 432.445 288.42C432.445 286.326 430.746 284.628 428.65 284.628C426.553 284.628 424.854 286.326 424.854 288.42C424.854 290.515 426.553 292.213 428.65 292.213Z" fill="#38D39F"/>
<path d="M638.307 502.686H602.191V500.086C602.191 500.019 602.177 499.951 602.151 499.889C602.125 499.826 602.087 499.77 602.039 499.722C601.992 499.674 601.935 499.636 601.872 499.61C601.809 499.584 601.742 499.571 601.675 499.571H589.292C589.224 499.571 589.157 499.584 589.095 499.61C589.032 499.636 588.975 499.674 588.927 499.722C588.879 499.77 588.841 499.826 588.815 499.889C588.789 499.951 588.776 500.019 588.776 500.086V502.686H581.037V500.086C581.037 500.019 581.023 499.951 580.998 499.889C580.972 499.826 580.934 499.77 580.886 499.722C580.838 499.674 580.781 499.636 580.718 499.61C580.656 499.584 580.589 499.571 580.521 499.571H568.138C568.071 499.571 568.003 499.584 567.941 499.61C567.878 499.636 567.821 499.674 567.773 499.722C567.726 499.77 567.688 499.826 567.662 499.889C567.636 499.951 567.622 500.019 567.622 500.086V502.686H559.883V500.086C559.883 500.019 559.87 499.951 559.844 499.889C559.818 499.826 559.78 499.77 559.732 499.722C559.684 499.674 559.627 499.636 559.565 499.61C559.502 499.584 559.435 499.571 559.367 499.571H546.985C546.917 499.571 546.85 499.584 546.787 499.61C546.725 499.636 546.668 499.674 546.62 499.722C546.572 499.77 546.534 499.826 546.508 499.889C546.482 499.951 546.469 500.019 546.469 500.086V502.686H538.729V500.086C538.729 500.019 538.716 499.951 538.69 499.889C538.664 499.826 538.626 499.77 538.578 499.722C538.53 499.674 538.474 499.636 538.411 499.61C538.348 499.584 538.281 499.571 538.214 499.571H525.831C525.763 499.571 525.696 499.584 525.633 499.61C525.571 499.636 525.514 499.674 525.466 499.722C525.418 499.77 525.38 499.826 525.354 499.889C525.328 499.951 525.315 500.019 525.315 500.086V502.686H517.576V500.086C517.576 500.019 517.563 499.951 517.537 499.889C517.511 499.826 517.473 499.77 517.425 499.722C517.377 499.674 517.32 499.636 517.257 499.61C517.195 499.584 517.128 499.571 517.06 499.571H504.677C504.609 499.571 504.542 499.584 504.48 499.61C504.417 499.636 504.36 499.674 504.312 499.722C504.264 499.77 504.227 499.826 504.201 499.889C504.175 499.951 504.161 500.019 504.161 500.086V502.686H496.422V500.086C496.422 500.019 496.409 499.951 496.383 499.889C496.357 499.826 496.319 499.77 496.271 499.722C496.223 499.674 496.166 499.636 496.104 499.61C496.041 499.584 495.974 499.571 495.906 499.571H483.524C483.456 499.571 483.389 499.584 483.326 499.61C483.264 499.636 483.207 499.674 483.159 499.722C483.111 499.77 483.073 499.826 483.047 499.889C483.021 499.951 483.008 500.019 483.008 500.086V502.686H475.268V500.086C475.268 500.019 475.255 499.951 475.229 499.889C475.203 499.826 475.165 499.77 475.117 499.722C475.069 499.674 475.013 499.636 474.95 499.61C474.887 499.584 474.82 499.571 474.753 499.571H377.755C377.687 499.571 377.62 499.584 377.558 499.61C377.495 499.636 377.438 499.674 377.39 499.722C377.342 499.77 377.304 499.826 377.279 499.889C377.253 499.951 377.239 500.019 377.239 500.086V502.686H369.5V500.086C369.5 500.019 369.487 499.951 369.461 499.889C369.435 499.826 369.397 499.77 369.349 499.722C369.301 499.674 369.244 499.636 369.182 499.61C369.119 499.584 369.052 499.571 368.984 499.571H356.602C356.534 499.571 356.467 499.584 356.404 499.61C356.341 499.636 356.285 499.674 356.237 499.722C356.189 499.77 356.151 499.826 356.125 499.889C356.099 499.951 356.086 500.019 356.086 500.086V502.686H348.346V500.086C348.346 500.019 348.333 499.951 348.307 499.889C348.281 499.826 348.243 499.77 348.195 499.722C348.147 499.674 348.091 499.636 348.028 499.61C347.965 499.584 347.898 499.571 347.83 499.571H335.448C335.38 499.571 335.313 499.584 335.25 499.61C335.188 499.636 335.131 499.674 335.083 499.722C335.035 499.77 334.997 499.826 334.971 499.889C334.945 499.951 334.932 500.019 334.932 500.086V502.686H327.193V500.086C327.193 500.019 327.179 499.951 327.153 499.889C327.128 499.826 327.09 499.77 327.042 499.722C326.994 499.674 326.937 499.636 326.874 499.61C326.812 499.584 326.745 499.571 326.677 499.571H314.294C314.226 499.571 314.159 499.584 314.097 499.61C314.034 499.636 313.977 499.674 313.929 499.722C313.881 499.77 313.843 499.826 313.817 499.889C313.792 499.951 313.778 500.019 313.778 500.086V502.686H306.039V500.086C306.039 500.019 306.026 499.951 306 499.889C305.974 499.826 305.936 499.77 305.888 499.722C305.84 499.674 305.783 499.636 305.721 499.61C305.658 499.584 305.591 499.571 305.523 499.571H293.14C293.073 499.571 293.006 499.584 292.943 499.61C292.88 499.636 292.824 499.674 292.776 499.722C292.728 499.77 292.69 499.826 292.664 499.889C292.638 499.951 292.625 500.019 292.625 500.086V502.686H284.885V500.086C284.885 500.019 284.872 499.951 284.846 499.889C284.82 499.826 284.782 499.77 284.734 499.722C284.686 499.674 284.629 499.636 284.567 499.61C284.504 499.584 284.437 499.571 284.369 499.571H271.987C271.919 499.571 271.852 499.584 271.789 499.61C271.727 499.636 271.67 499.674 271.622 499.722C271.574 499.77 271.536 499.826 271.51 499.889C271.484 499.951 271.471 500.019 271.471 500.086V502.686H263.732V500.086C263.732 500.019 263.718 499.951 263.692 499.889C263.667 499.826 263.629 499.77 263.581 499.722C263.533 499.674 263.476 499.636 263.413 499.61C263.351 499.584 263.284 499.571 263.216 499.571H250.833C250.765 499.571 250.698 499.584 250.636 499.61C250.573 499.636 250.516 499.674 250.468 499.722C250.42 499.77 250.382 499.826 250.356 499.889C250.331 499.951 250.317 500.019 250.317 500.086V502.686H226.584C223.3 502.686 220.15 503.99 217.828 506.31C215.506 508.63 214.201 511.777 214.201 515.058V520.653C214.201 523.934 215.506 527.081 217.828 529.401C220.15 531.721 223.3 533.025 226.584 533.025H638.307C641.591 533.025 644.74 531.721 647.062 529.401C649.385 527.081 650.689 523.934 650.689 520.653V515.058C650.689 513.434 650.369 511.825 649.747 510.324C649.124 508.823 648.212 507.459 647.062 506.31C645.913 505.161 644.548 504.25 643.045 503.628C641.543 503.006 639.933 502.686 638.307 502.686Z" fill="#3F3D56"/>
<path d="M497.045 314.237H393.199V318.092H497.045V314.237Z" fill="#E6E6E6"/>
<path d="M497.045 326.446H393.199V330.301H497.045V326.446Z" fill="#E6E6E6"/>
<path d="M497.045 338.655H393.199V342.51H497.045V338.655Z" fill="#E6E6E6"/>
<path d="M497.045 314.237H393.199V318.092H497.045V314.237Z" fill="#CCCCCC"/>
<path d="M497.045 326.446H393.199V330.301H497.045V326.446Z" fill="#CCCCCC"/>
<path d="M497.045 338.655H393.199V342.51H497.045V338.655Z" fill="#CCCCCC"/>
<path d="M383.796 316.62H360.269V340.127H383.796V316.62Z" fill="#CCCCCC"/>
<path d="M497.045 451.61H393.199V455.466H497.045V451.61Z" fill="#CCCCCC"/>
<path d="M497.045 463.819H393.199V467.675H497.045V463.819Z" fill="#CCCCCC"/>
<path d="M497.045 476.028H393.199V479.883H497.045V476.028Z" fill="#CCCCCC"/>
<path d="M383.796 453.993H360.269V477.501H383.796V453.993Z" fill="#CCCCCC"/>
<path d="M679.564 227.031C673.464 220.392 665.255 216.064 656.327 214.779L660.149 211.329L655.92 211.116L650.689 215.84L655.418 221.067L659.646 221.28L656.478 217.78C665.484 219.233 673.612 224.022 679.244 231.193C684.875 238.364 687.597 247.391 686.867 256.477C686.138 265.563 682.01 274.041 675.305 280.223C668.601 286.405 659.813 289.837 650.69 289.836V292.775C658.311 292.775 665.766 290.557 672.147 286.393C678.527 282.229 683.555 276.298 686.618 269.326C689.68 262.353 690.644 254.64 689.391 247.13C688.139 239.619 684.724 232.635 679.564 227.031Z" fill="#3F3D56"/>
<path d="M171.847 227.031C177.947 220.392 186.156 216.064 195.084 214.779L191.262 211.329L195.491 211.116L200.722 215.84L195.993 221.067L191.765 221.28L194.933 217.78C185.927 219.233 177.799 224.022 172.167 231.193C166.536 238.364 163.814 247.391 164.544 256.477C165.273 265.563 169.401 274.041 176.106 280.223C182.81 286.405 191.598 289.837 200.721 289.836V292.775C193.1 292.775 185.645 290.557 179.264 286.393C172.884 282.229 167.856 276.298 164.794 269.326C161.731 262.353 160.767 254.64 162.02 247.13C163.272 239.619 166.687 232.635 171.847 227.031Z" fill="#3F3D56"/>
<path d="M387.115 20.3904H283.27V24.2458H387.115V20.3904Z" fill="#CCCCCC"/>
<path d="M387.115 32.5992H283.27V36.4547H387.115V32.5992Z" fill="#CCCCCC"/>
<path d="M387.115 44.8081H283.27V48.6635H387.115V44.8081Z" fill="#CCCCCC"/>
<path d="M273.867 22.7731H250.339V46.2808H273.867V22.7731Z" fill="#CCCCCC"/>
<path d="M386.758 203.31H282.913V207.165H386.758V203.31Z" fill="#CCCCCC"/>
<path d="M386.758 215.519H282.913V219.374H386.758V215.519Z" fill="#CCCCCC"/>
<path d="M386.758 227.728H282.913V231.583H386.758V227.728Z" fill="#CCCCCC"/>
<path d="M273.51 205.693H249.982V229.2H273.51V205.693Z" fill="#CCCCCC"/>
<path d="M710.635 240.897L734.085 206.88C734.085 206.88 754.505 190.52 748.652 187.335C742.8 184.15 727.477 199.083 727.477 199.083C727.477 199.083 683.271 232.944 690.561 237.67C697.85 242.396 710.635 240.897 710.635 240.897Z" fill="#FFB8B8"/>
<path d="M714.043 196.225H744.411C746.484 184.254 746.484 172.017 744.411 160.047H714.043C717.464 171.864 717.464 184.408 714.043 196.225Z" fill="#38D39F"/>
<path d="M792.998 197.95C783.871 182.543 765.816 181.825 765.816 181.825C765.816 181.825 748.223 179.577 736.936 203.043C726.417 224.914 711.898 246.031 734.599 251.151L738.7 238.4L741.239 252.101C744.471 252.333 747.714 252.388 750.952 252.266C775.262 251.482 798.415 252.496 797.669 243.78C796.678 232.192 801.779 212.775 792.998 197.95Z" fill="#2F2E41"/>
<path d="M744.475 292.922L732.784 319.787L773.701 326.211C773.701 326.211 792.99 299.93 794.744 298.178L744.475 292.922Z" fill="#FFB8B8"/>
<path d="M763.764 234.519C775.709 234.519 785.391 224.844 785.391 212.91C785.391 200.976 775.709 191.301 763.764 191.301C751.82 191.301 742.137 200.976 742.137 212.91C742.137 224.844 751.82 234.519 763.764 234.519Z" fill="#FFB8B8"/>
<path d="M758.503 228.679C758.503 228.679 768.44 250.872 767.271 253.208C766.102 255.544 788.314 240.943 788.314 240.943C788.314 240.943 778.961 225.175 779.546 222.839L758.503 228.679Z" fill="#FFB8B8"/>
<path d="M791.236 238.023C791.236 238.023 808.772 228.095 818.709 255.544C818.709 255.544 851.442 294.09 845.597 301.098C839.752 308.106 817.54 284.161 817.54 284.161L803.511 269.561C803.511 269.561 783.637 264.304 785.391 253.208C787.144 242.111 791.236 238.023 791.236 238.023Z" fill="#FFB8B8"/>
<path d="M750.32 251.456L709.403 239.775C709.403 239.775 687.776 231.015 688.36 236.271C688.945 241.527 728.108 271.313 740.967 269.561C753.827 267.809 750.32 251.456 750.32 251.456Z" fill="#FFB8B8"/>
<path d="M773.701 247.368C773.701 247.368 760.257 245.616 757.334 248.536C754.412 251.456 748.859 248.828 748.859 248.828L739.506 265.764C739.506 265.764 732.784 275.401 738.045 284.745C743.306 294.09 735.707 306.354 735.707 306.354C735.707 306.354 777.793 306.354 786.561 311.027C795.328 315.699 805.896 272.042 805.896 272.042C805.896 272.042 795.036 258.756 797.959 250.58C800.881 242.403 799.128 235.979 799.128 235.979L786.268 237.147L773.701 247.368Z" fill="#D0CDE1"/>
<path d="M723.432 505.507L728.109 550.477L746.229 541.133L740.383 502.003L723.432 505.507Z" fill="#FFB8B8"/>
<path d="M791.82 504.923L807.037 545.578L821.65 535.065L803.511 495.579L791.82 504.923Z" fill="#FFB8B8"/>
<path d="M746.228 525.948C745.309 529.239 743.932 532.385 742.137 535.293C739.214 539.965 732.2 537.629 732.2 537.629C732.2 537.629 724.017 531.204 722.263 534.125C720.509 537.045 711.157 551.645 711.157 551.645C711.157 551.645 680.177 577.343 706.481 581.431C732.784 585.519 738.045 566.246 738.045 566.246C738.045 566.246 757.919 559.238 758.503 552.229C759.088 545.221 746.228 525.948 746.228 525.948Z" fill="#2F2E41"/>
<path d="M807.603 534.463C807.603 534.463 798.25 531.542 798.835 536.215C799.419 540.887 802.927 559.576 802.927 559.576C802.927 559.576 796.497 585.857 814.617 581.185C832.737 576.512 833.322 551.399 833.322 551.399C833.322 551.399 842.674 518.11 835.66 517.526C828.646 516.942 811.694 515.19 811.694 515.19C811.694 515.19 822.216 532.126 807.603 534.463Z" fill="#2F2E41"/>
<path d="M788.963 196.465L771.125 187.13L746.492 190.949L741.396 213.439L754.082 212.951L757.626 204.689V212.815L763.48 212.59L766.878 199.436L769.002 213.439L789.812 213.014L788.963 196.465Z" fill="#2F2E41"/>
<path d="M780.13 324.459L731.03 313.363C731.03 313.363 706.48 355.412 702.973 390.454C699.466 425.496 683.684 509.595 708.819 510.764C733.953 511.932 748.566 511.932 749.735 509.595C750.904 507.259 737.46 414.983 737.46 414.983C737.46 414.983 766.102 528.284 781.884 520.692C797.666 513.1 815.202 503.171 814.617 497.331C814.033 491.491 776.039 429.584 776.039 429.584L781.3 375.853C781.3 375.853 787.729 354.244 776.623 334.388L780.13 324.459Z" fill="#2F2E41"/>
<path d="M744.744 309.859H775.112C777.185 297.889 777.185 285.652 775.112 273.681H744.744C748.165 285.498 748.165 298.042 744.744 309.859Z" fill="#38D39F"/>
<path d="M833.322 283.577L781.884 282.409C781.884 282.409 759.088 264.888 758.503 275.401C757.919 285.913 782.469 291.754 782.469 291.754C782.469 291.754 835.246 310.676 843.345 302.383L833.322 283.577Z" fill="#FFB8B8"/>
<path d="M276.351 145.377C286.041 145.377 293.896 137.528 293.896 127.846C293.896 118.165 286.041 110.316 276.351 110.316C266.661 110.316 258.805 118.165 258.805 127.846C258.805 137.528 266.661 145.377 276.351 145.377Z" fill="#38D39F"/>
<path d="M323.139 142.171C331.057 142.171 337.476 135.758 337.476 127.846C337.476 119.935 331.057 113.521 323.139 113.521C315.221 113.521 308.802 119.935 308.802 127.846C308.802 135.758 315.221 142.171 323.139 142.171Z" fill="#38D39F"/>
<path d="M369.927 136.562C374.745 136.562 378.65 132.66 378.65 127.846C378.65 123.033 374.745 119.131 369.927 119.131C365.11 119.131 361.205 123.033 361.205 127.846C361.205 132.66 365.11 136.562 369.927 136.562Z" fill="#38D39F"/>
<path d="M565.385 139.252C570.476 139.252 574.603 135.128 574.603 130.042C574.603 124.956 570.476 120.833 565.385 120.833C560.295 120.833 556.168 124.956 556.168 130.042C556.168 135.128 560.295 139.252 565.385 139.252Z" fill="#38D39F"/>
<path d="M589.964 137.364C594.012 137.364 597.293 134.086 597.293 130.042C597.293 125.998 594.012 122.72 589.964 122.72C585.917 122.72 582.636 125.998 582.636 130.042C582.636 134.086 585.917 137.364 589.964 137.364Z" fill="#38D39F"/>
<path d="M614.544 134.844C617.198 134.844 619.35 132.694 619.35 130.042C619.35 127.39 617.198 125.24 614.544 125.24C611.89 125.24 609.738 127.39 609.738 130.042C609.738 132.694 611.89 134.844 614.544 134.844Z" fill="#38D39F"/>
<path d="M428.646 436.385C451.386 436.385 469.82 417.967 469.82 395.247C469.82 372.526 451.386 354.108 428.646 354.108C405.907 354.108 387.473 372.526 387.473 395.247C387.473 417.967 405.907 436.385 428.646 436.385Z" fill="#38D39F"/>
<path d="M443.964 404.294L428.606 373.302L413.328 404.334L421.961 404.323V417.192H435.324V404.305L443.964 404.294Z" fill="#D0CDE1"/>
</g>
<defs>
<clipPath id="clip0_77_205">
<rect width="854" height="582" fill="white"/>
</clipPath>
</defs>
</svg>
