<svg width="202" height="202" viewBox="0 0 202 202" fill="none" xmlns="http://www.w3.org/2000/svg">
<path d="M167.345 48.038C163.752 41.9267 158.727 36.924 152.373 32.8444C131.213 19.2574 102.457 14.3654 77.7368 18.0572C60.0776 20.6945 48.3046 32.6997 40.7728 48.341C31.8735 66.8236 23.7947 85.2117 13.664 103.16C2.03449 123.764 -3.17873 145.176 22.0854 162.952C43.9495 178.336 71.3657 174.345 96.4275 173.852C104.733 173.688 113.098 173.964 121.271 175.571C137.511 178.765 153.287 190.117 169.259 179.516C181.4 171.458 188.551 156.231 192.015 142.439C194.081 134.218 195.704 125.148 194.94 116.423C194.102 106.864 189.693 99.6668 185.158 91.5258C179.452 81.2852 174.994 70.3396 171.916 59.0123C170.826 55.0074 169.297 51.3589 167.345 48.038Z" fill="#92E3A9"/>
<path opacity="0.7" d="M167.345 48.038C163.752 41.9267 158.727 36.924 152.373 32.8444C131.213 19.2574 102.457 14.3654 77.7368 18.0572C60.0776 20.6945 48.3046 32.6997 40.7728 48.341C31.8735 66.8236 23.7947 85.2117 13.664 103.16C2.03449 123.764 -3.17873 145.176 22.0854 162.952C43.9495 178.336 71.3657 174.345 96.4275 173.852C104.733 173.688 113.098 173.964 121.271 175.571C137.511 178.765 153.287 190.117 169.259 179.516C181.4 171.458 188.551 156.231 192.015 142.439C194.081 134.218 195.704 125.148 194.94 116.423C194.102 106.864 189.693 99.6668 185.158 91.5258C179.452 81.2852 174.994 70.3396 171.916 59.0123C170.826 55.0074 169.297 51.3589 167.345 48.038Z" fill="white"/>
<path d="M8.82959 182.316H188.719" stroke="#263238" stroke-miterlimit="10" stroke-linecap="round"/>
<path d="M80.1903 22.2866H16.4282V107.77H80.1903V22.2866Z" stroke="#263238" stroke-miterlimit="10" stroke-linecap="round"/>
<path d="M77.6143 25.7405H19.0044V104.316H77.6143V25.7405Z" stroke="#263238" stroke-miterlimit="10" stroke-linecap="round"/>
<path d="M19.0044 90.5157C23.4209 85.8782 28.9036 77.7376 35.5971 64.0206C46.1156 42.464 56.7505 31.3972 65.2563 25.74H19.0044V90.5157Z" stroke="#263238" stroke-miterlimit="10" stroke-linecap="round"/>
<path d="M77.6141 37.6135C69.0663 39.0594 53.9305 43.7321 45.383 58.8397C34.5385 78.0067 37.8363 88.7765 33.9785 104.316H77.6146V37.6135H77.6141Z" stroke="#263238" stroke-miterlimit="10" stroke-linecap="round"/>
<path d="M72.4745 63.9664C75.9393 60.9257 76.2832 55.6519 73.2424 52.187C70.2017 48.7222 64.9279 48.3784 61.4631 51.4191C57.9983 54.4598 57.6544 59.7336 60.6952 63.1984C63.7359 66.6633 69.0097 67.0071 72.4745 63.9664Z" stroke="#263238" stroke-miterlimit="10" stroke-linecap="round"/>
<path d="M33.1664 37.9159C33.7691 35.3634 32.1885 32.8055 29.6359 32.2028C27.0834 31.6001 24.5256 33.1807 23.9229 35.7332C23.3201 38.2858 24.9008 40.8436 27.4533 41.4463C30.0058 42.049 32.5636 40.4684 33.1664 37.9159Z" stroke="#263238" stroke-miterlimit="10" stroke-linecap="round"/>
<path d="M26.0987 63.0135C26.0987 63.729 25.519 64.3087 24.8035 64.3087C24.088 64.3087 23.5083 63.729 23.5083 63.0135C23.5083 62.298 24.088 61.7183 24.8035 61.7183C25.519 61.7183 26.0987 62.298 26.0987 63.0135Z" stroke="#263238" stroke-miterlimit="10" stroke-linecap="round"/>
<path d="M48.2609 31.2088C48.2609 32.3215 47.3588 33.2236 46.2462 33.2236C45.1336 33.2236 44.2314 32.3215 44.2314 31.2088C44.2314 30.0962 45.1336 29.1941 46.2462 29.1941C47.3592 29.1941 48.2609 30.0962 48.2609 31.2088Z" stroke="#263238" stroke-miterlimit="10" stroke-linecap="round"/>
<path d="M49.7002 88.7738C50.6541 88.7738 51.4273 88.0005 51.4273 87.0467C51.4273 86.0928 50.6541 85.3196 49.7002 85.3196C48.7464 85.3196 47.9731 86.0928 47.9731 87.0467C47.9731 88.0005 48.7464 88.7738 49.7002 88.7738Z" stroke="#263238" stroke-miterlimit="10" stroke-linecap="round"/>
<path d="M77.6143 104.316V69.3345C77.3311 69.4734 77.0458 69.6185 76.7558 69.7777C56.481 80.8715 51.5878 95.649 50.5854 104.316H77.6143V104.316Z" stroke="#263238" stroke-miterlimit="10" stroke-linecap="round"/>
<path d="M174.007 106.234C174.007 106.234 168.319 103.074 167.898 110.236C167.477 117.399 166.423 163.954 166.423 163.954" stroke="#263238" stroke-width="2" stroke-miterlimit="10" stroke-linecap="round"/>
<path d="M164.944 110.867C164.944 110.867 169.583 121.19 167.477 163.321" stroke="#263238" stroke-width="2" stroke-miterlimit="10" stroke-linecap="round"/>
<path d="M169.502 107.675C169.502 107.675 167.326 109.069 166.088 107.474C164.85 105.879 166.925 102.956 165.096 101.706C163.267 100.456 160.109 102.363 160.109 102.363C160.109 102.363 162.541 103.078 162.463 104.405C162.384 105.733 161.213 106.235 161.057 105.654C160.901 105.074 159.741 102.151 157.766 103.367C155.792 104.583 155.49 106.468 155.49 106.468C155.49 106.468 160.087 105.978 160.365 107.707C160.644 109.436 158.48 107.406 156.583 107.294C154.687 107.182 152.958 107.461 153.08 108.61C153.203 109.759 152.901 111.644 152.901 111.644C152.901 111.644 154.508 110.216 156.594 110.34C158.681 110.463 158.602 111.79 156.705 111.679C154.809 111.567 153.18 113.374 153.18 113.374C153.18 113.374 154.908 116.33 157.106 117.792C159.303 119.254 160.095 118.73 160.352 117.603C160.609 116.476 160.018 113.587 161.345 113.665C162.673 113.744 159.147 118.674 160.842 118.964C162.538 119.255 163.899 118.764 164.345 117.648C164.792 116.533 164.792 116.533 164.792 116.533C164.792 116.533 164.201 113.644 164.458 112.517C164.715 111.39 165.027 112.55 165.328 113.9C165.629 115.25 165.818 118.496 166.398 118.34C166.978 118.185 168.83 115.82 169.265 114.894C169.7 113.968 166.823 111.134 166.856 110.565C166.89 109.996 169.11 111.079 169.456 111.67C169.801 112.261 170.136 113.042 170.136 113.042C170.136 113.042 171.519 112.173 171.487 109.506C171.454 106.839 169.502 107.675 169.502 107.675Z" fill="#92E3A9"/>
<path opacity="0.3" d="M169.502 107.675C169.502 107.675 167.326 109.069 166.088 107.474C164.85 105.879 166.925 102.956 165.096 101.706C163.267 100.456 160.109 102.363 160.109 102.363C160.109 102.363 162.541 103.078 162.463 104.405C162.384 105.733 161.213 106.235 161.057 105.654C160.901 105.074 159.741 102.151 157.766 103.367C155.792 104.583 155.49 106.468 155.49 106.468C155.49 106.468 160.087 105.978 160.365 107.707C160.644 109.436 158.48 107.406 156.583 107.294C154.687 107.182 152.958 107.461 153.08 108.61C153.203 109.759 152.901 111.644 152.901 111.644C152.901 111.644 154.508 110.216 156.594 110.34C158.681 110.463 158.602 111.79 156.705 111.679C154.809 111.567 153.18 113.374 153.18 113.374C153.18 113.374 154.908 116.33 157.106 117.792C159.303 119.254 160.095 118.73 160.352 117.603C160.609 116.476 160.018 113.587 161.345 113.665C162.673 113.744 159.147 118.674 160.842 118.964C162.538 119.255 163.899 118.764 164.345 117.648C164.792 116.533 164.792 116.533 164.792 116.533C164.792 116.533 164.201 113.644 164.458 112.517C164.715 111.39 165.027 112.55 165.328 113.9C165.629 115.25 165.818 118.496 166.398 118.34C166.978 118.185 168.83 115.82 169.265 114.894C169.7 113.968 166.823 111.134 166.856 110.565C166.89 109.996 169.11 111.079 169.456 111.67C169.801 112.261 170.136 113.042 170.136 113.042C170.136 113.042 171.519 112.173 171.487 109.506C171.454 106.839 169.502 107.675 169.502 107.675Z" fill="#263238"/>
<path d="M158.472 113.927C159.891 112.173 161.982 109.8 163.734 108.667" stroke="#263238" stroke-miterlimit="10" stroke-linecap="round"/>
<path d="M156.827 116.062C156.827 116.062 157.192 115.556 157.782 114.797" stroke="#263238" stroke-miterlimit="10" stroke-linecap="round"/>
<path d="M164.66 109.103C164.66 109.103 166.768 112.082 167.158 115.149" stroke="#263238" stroke-miterlimit="10" stroke-linecap="round"/>
<path d="M162.272 110.865C162.272 110.865 162.863 110.519 162.64 114.312" stroke="#263238" stroke-miterlimit="10" stroke-linecap="round"/>
<path d="M163.812 107.34C163.812 107.34 165.017 106.269 164.382 104.138" stroke="#263238" stroke-miterlimit="10" stroke-linecap="round"/>
<path d="M162.183 109.147L161.324 107.573" stroke="#263238" stroke-miterlimit="10" stroke-linecap="round"/>
<path d="M160.376 110.753C160.376 110.753 157.643 108.688 155.936 108.588" stroke="#263238" stroke-miterlimit="10" stroke-linecap="round"/>
<path d="M177.256 102.054C177.256 102.054 177.169 105.183 174.728 105.335C172.286 105.487 170.775 101.417 168.277 102.397C165.779 103.376 165.536 107.837 165.536 107.837C165.536 107.837 167.909 105.89 169.185 106.872C170.461 107.855 170.165 109.371 169.477 109.132C168.79 108.892 165.073 108.061 164.944 110.867C164.815 113.673 166.497 115.259 166.497 115.259C166.497 115.259 169.139 110.324 171.061 111.224C172.982 112.123 169.474 112.905 168.069 114.728C166.664 116.55 165.765 118.472 166.998 119.132C168.232 119.793 169.914 121.38 169.914 121.38C169.914 121.38 169.58 118.798 171.125 116.793C172.671 114.788 173.946 115.772 172.541 117.594C171.137 119.417 171.835 122.279 171.835 122.279C171.835 122.279 175.974 122.564 178.935 121.36C181.897 120.157 181.912 119.006 180.959 117.981C180.006 116.956 176.71 115.578 177.693 114.302C178.677 113.027 181.21 119.918 182.656 118.418C184.103 116.918 184.539 115.221 183.726 114.014C182.914 112.806 182.914 112.806 182.914 112.806C182.914 112.806 179.618 111.428 178.666 110.403C177.712 109.378 179.087 109.857 180.643 110.475C182.2 111.094 185.58 113.117 185.819 112.43C186.058 111.743 184.953 108.277 184.323 107.21C183.692 106.143 178.893 107.092 178.347 106.671C177.8 106.249 180.397 104.765 181.224 104.822C182.052 104.879 183.062 105.076 183.062 105.076C183.062 105.076 183.134 103.098 180.442 101.313C177.75 99.5298 177.256 102.054 177.256 102.054Z" fill="#92E3A9"/>
<path opacity="0.2" d="M177.256 102.054C177.256 102.054 177.169 105.183 174.728 105.335C172.286 105.487 170.775 101.417 168.277 102.397C165.779 103.376 165.536 107.837 165.536 107.837C165.536 107.837 167.909 105.89 169.185 106.872C170.461 107.855 170.165 109.371 169.477 109.132C168.79 108.892 165.073 108.061 164.944 110.867C164.815 113.673 166.497 115.259 166.497 115.259C166.497 115.259 169.139 110.324 171.061 111.224C172.982 112.123 169.474 112.905 168.069 114.728C166.664 116.55 165.765 118.472 166.998 119.132C168.232 119.793 169.914 121.38 169.914 121.38C169.914 121.38 169.58 118.798 171.125 116.793C172.671 114.788 173.946 115.772 172.541 117.594C171.137 119.417 171.835 122.279 171.835 122.279C171.835 122.279 175.974 122.564 178.935 121.36C181.897 120.157 181.912 119.006 180.959 117.981C180.006 116.956 176.71 115.578 177.693 114.302C178.677 113.027 181.21 119.918 182.656 118.418C184.103 116.918 184.539 115.221 183.726 114.014C182.914 112.806 182.914 112.806 182.914 112.806C182.914 112.806 179.618 111.428 178.666 110.403C177.712 109.378 179.087 109.857 180.643 110.475C182.2 111.094 185.58 113.117 185.819 112.43C186.058 111.743 184.953 108.277 184.323 107.21C183.692 106.143 178.893 107.092 178.347 106.671C177.8 106.249 180.397 104.765 181.224 104.822C182.052 104.879 183.062 105.076 183.062 105.076C183.062 105.076 183.134 103.098 180.442 101.313C177.75 99.5298 177.256 102.054 177.256 102.054Z" fill="#263238"/>
<path d="M175.998 117.359C175.209 114.743 174.258 111.032 174.318 108.505" stroke="#263238" stroke-miterlimit="10" stroke-linecap="round"/>
<path d="M177.015 120.461C177.015 120.461 176.756 119.751 176.398 118.643" stroke="#263238" stroke-miterlimit="10" stroke-linecap="round"/>
<path d="M175.385 107.875C175.385 107.875 179.805 107.795 183.142 109.496" stroke="#263238" stroke-miterlimit="10" stroke-linecap="round"/>
<path d="M175.522 111.467C175.522 111.467 175.579 110.639 179.224 113.448" stroke="#263238" stroke-miterlimit="10" stroke-linecap="round"/>
<path d="M173.042 107.522C173.042 107.522 172.792 105.586 170.225 104.77" stroke="#263238" stroke-miterlimit="10" stroke-linecap="round"/>
<path d="M173.741 110.385L171.581 110.172" stroke="#263238" stroke-miterlimit="10" stroke-linecap="round"/>
<path d="M174.117 113.289C174.117 113.289 170.187 114.618 168.923 116.259" stroke="#263238" stroke-miterlimit="10" stroke-linecap="round"/>
<path d="M151.045 122.876C151.045 122.876 163.474 131.091 163.264 162.9" stroke="#263238" stroke-width="2" stroke-miterlimit="10" stroke-linecap="round"/>
<path d="M166.369 120.705C166.369 120.705 165.974 124.307 163.142 124.252C160.311 124.197 158.951 119.358 155.976 120.253C153.001 121.147 152.3 126.272 152.3 126.272C152.3 126.272 155.222 124.249 156.601 125.503C157.98 126.759 157.496 128.478 156.725 128.138C155.955 127.797 151.744 126.487 151.331 129.712C150.917 132.938 152.708 134.928 152.708 134.928C152.708 134.928 156.223 129.482 158.355 130.701C160.487 131.921 156.365 132.493 154.572 134.463C152.779 136.433 151.559 138.565 152.921 139.444C154.283 140.322 156.074 142.313 156.074 142.313C156.074 142.313 155.932 139.302 157.904 137.135C159.876 134.967 161.256 136.222 159.463 138.193C157.67 140.163 158.206 143.532 158.206 143.532C158.206 143.532 162.954 144.251 166.485 143.142C170.016 142.032 170.142 140.706 169.139 139.433C168.136 138.161 164.463 136.259 165.718 134.88C166.973 133.501 169.246 141.691 171.056 140.097C172.867 138.503 173.531 136.586 172.707 135.116C171.883 133.646 171.883 133.646 171.883 133.646C171.883 133.646 168.211 131.745 167.207 130.473C166.204 129.2 167.745 129.882 169.483 130.742C171.221 131.603 174.929 134.257 175.27 133.487C175.611 132.716 174.663 128.612 174.036 127.322C173.41 126.031 167.782 126.674 167.191 126.136C166.6 125.598 169.737 124.13 170.687 124.274C171.636 124.418 172.783 124.741 172.783 124.741C172.783 124.741 173.053 122.465 170.115 120.152C167.177 117.838 166.369 120.705 166.369 120.705Z" fill="#92E3A9"/>
<path opacity="0.3" d="M166.369 120.705C166.369 120.705 165.974 124.307 163.142 124.252C160.311 124.197 158.951 119.358 155.976 120.253C153.001 121.147 152.3 126.272 152.3 126.272C152.3 126.272 155.222 124.249 156.601 125.503C157.98 126.759 157.496 128.478 156.725 128.138C155.955 127.797 151.744 126.487 151.331 129.712C150.917 132.938 152.708 134.928 152.708 134.928C152.708 134.928 156.223 129.482 158.355 130.701C160.487 131.921 156.365 132.493 154.572 134.463C152.779 136.433 151.559 138.565 152.921 139.444C154.283 140.322 156.074 142.313 156.074 142.313C156.074 142.313 155.932 139.302 157.904 137.135C159.876 134.967 161.256 136.222 159.463 138.193C157.67 140.163 158.206 143.532 158.206 143.532C158.206 143.532 162.954 144.251 166.485 143.142C170.016 142.032 170.142 140.706 169.139 139.433C168.136 138.161 164.463 136.259 165.718 134.88C166.973 133.501 169.246 141.691 171.056 140.097C172.867 138.503 173.531 136.586 172.707 135.116C171.883 133.646 171.883 133.646 171.883 133.646C171.883 133.646 168.211 131.745 167.207 130.473C166.204 129.2 167.745 129.882 169.483 130.742C171.221 131.603 174.929 134.257 175.27 133.487C175.611 132.716 174.663 128.612 174.036 127.322C173.41 126.031 167.782 126.674 167.191 126.136C166.6 125.598 169.737 124.13 170.687 124.274C171.636 124.418 172.783 124.741 172.783 124.741C172.783 124.741 173.053 122.465 170.115 120.152C167.177 117.838 166.369 120.705 166.369 120.705Z" fill="#263238"/>
<path d="M163.472 138.246C162.809 135.153 162.062 130.781 162.37 127.872" stroke="#263238" stroke-miterlimit="10" stroke-linecap="round"/>
<path d="M164.353 141.922C164.353 141.922 164.121 141.078 163.813 139.765" stroke="#263238" stroke-miterlimit="10" stroke-linecap="round"/>
<path d="M163.661 127.245C163.661 127.245 168.768 127.57 172.458 129.847" stroke="#263238" stroke-miterlimit="10" stroke-linecap="round"/>
<path d="M163.479 131.402C163.479 131.402 163.623 130.453 167.564 134.039" stroke="#263238" stroke-miterlimit="10" stroke-linecap="round"/>
<path d="M160.991 126.616C160.991 126.616 160.884 124.358 158 123.174" stroke="#263238" stroke-miterlimit="10" stroke-linecap="round"/>
<path d="M161.527 129.986L159.054 129.536" stroke="#263238" stroke-miterlimit="10" stroke-linecap="round"/>
<path d="M161.687 133.373C161.687 133.373 157.027 134.536 155.414 136.309" stroke="#263238" stroke-miterlimit="10" stroke-linecap="round"/>
<path d="M155.891 147.943C155.891 147.943 163.895 154.052 164.738 163.111L163.053 132.776" stroke="#263238" stroke-width="2" stroke-miterlimit="10" stroke-linecap="round"/>
<path d="M175.271 143.52C164.738 141.624 164.738 163.111 164.738 163.111" stroke="#263238" stroke-width="2" stroke-miterlimit="10" stroke-linecap="round"/>
<path d="M166.002 162.9C166.002 162.9 159.893 118.452 177.588 118.452" stroke="#263238" stroke-width="2" stroke-miterlimit="10" stroke-linecap="round"/>
<path d="M171.257 142.242C169.818 140.624 166.761 140.624 164.963 144.76C163.164 148.897 164.783 148.177 164.783 148.177C164.783 148.177 168.2 147.098 170.358 146.379C172.516 145.659 175.393 143.861 175.573 144.94C175.753 146.019 174.135 147.098 172.156 147.458C170.178 147.817 164.963 149.256 165.502 150.335C166.042 151.414 167.301 154.651 167.301 154.651C167.301 154.651 169.818 152.493 172.156 151.054C174.494 149.616 175.933 150.155 174.674 151.774C173.415 153.393 169.818 155.191 170.537 157.349C171.257 159.507 175.573 162.205 175.573 162.205C175.573 162.205 176.113 157.709 177.371 156.27C178.63 154.831 178.63 156.45 178.271 158.968C177.911 161.485 177.911 162.205 177.911 162.205L182.947 164.003C182.947 164.003 184.745 161.306 185.644 160.407C186.543 159.507 186.543 159.507 186.543 159.507C186.543 159.507 182.587 156.09 182.407 153.932C182.227 151.774 185.104 153.932 186.004 154.292C186.903 154.651 188.342 157.169 188.342 157.169C188.342 157.169 189.241 153.033 189.421 151.594C189.601 150.155 189.601 150.155 189.601 150.155C189.601 150.155 185.824 148.717 184.385 148.717C182.947 148.717 182.227 149.796 182.227 148.357C182.227 146.919 183.666 146.019 185.285 146.199C186.903 146.379 189.601 147.278 189.601 147.278C189.601 147.278 190.68 146.379 190.32 143.681C189.961 140.984 189.062 140.984 186.903 141.703C184.745 142.423 183.307 144.041 181.688 144.041C180.07 144.041 180.969 142.063 182.048 141.523C183.127 140.983 185.824 139.905 186.364 139.725C186.903 139.545 183.487 137.027 181.688 136.667C179.89 136.308 177.561 137.575 177.731 139.365C178.091 143.141 172.696 143.861 171.257 142.242Z" fill="#92E3A9"/>
<path d="M182.834 160.759C182.888 161.301 182.927 161.843 182.947 162.385" stroke="#263238" stroke-miterlimit="10" stroke-linecap="round"/>
<path d="M179.221 147.849C180.484 150.768 181.945 154.793 182.606 158.993" stroke="#263238" stroke-miterlimit="10" stroke-linecap="round"/>
<path d="M178.573 146.405C177.682 144.489 177.012 143.321 177.012 143.321C177.012 143.321 178.63 142.602 179.35 141.163C180.069 139.725 181.148 139.005 181.148 139.005" stroke="#263238" stroke-miterlimit="10" stroke-linecap="round"/>
<path d="M170.718 149.436C170.718 149.436 177.192 146.739 177.192 147.278" stroke="#263238" stroke-miterlimit="10" stroke-linecap="round"/>
<path d="M180.789 146.019C180.789 146.019 183.666 144.58 186.184 144.58" stroke="#263238" stroke-miterlimit="10" stroke-linecap="round"/>
<path d="M179.71 150.335C179.71 150.335 178.091 151.594 176.293 153.752C174.494 155.91 173.775 157.889 173.775 157.889" stroke="#263238" stroke-miterlimit="10" stroke-linecap="round"/>
<path d="M181.688 151.054C181.688 151.054 185.465 149.975 187.443 151.774" stroke="#263238" stroke-miterlimit="10" stroke-linecap="round"/>
<path d="M188.529 126.754C186.571 125.596 184.406 125.571 183.345 124.348C182.283 123.126 184.367 122.508 185.482 122.97C186.596 123.431 189.18 124.76 189.669 125.05C190.159 125.339 189.82 121.108 188.913 119.515C188.005 117.921 185.522 116.993 184.282 118.295C181.666 121.043 177.585 117.44 177.864 115.293C178.144 113.145 176.139 110.837 171.837 112.19C167.534 113.544 169.138 114.294 169.138 114.294C169.138 114.294 172.193 116.167 174.151 117.326C176.109 118.484 179.354 119.478 178.657 120.321C177.96 121.164 176.084 120.649 174.515 119.391C172.946 118.133 168.441 115.138 167.98 116.253C167.519 117.368 165.9 120.441 165.9 120.441C165.9 120.441 169.18 120.927 171.799 121.749C174.418 122.572 174.954 124.012 172.906 124.123C170.859 124.233 167.143 122.696 165.985 124.654C164.826 126.612 165.619 131.64 165.619 131.64C165.619 131.64 169.368 129.1 171.28 129.107C173.191 129.114 171.969 130.176 169.832 131.555C167.695 132.933 167.152 133.405 167.152 133.405L169.095 138.387C169.095 138.387 172.311 137.977 173.58 138.066C174.849 138.156 174.849 138.156 174.849 138.156C174.849 138.156 174.835 132.928 176.347 131.378C177.859 129.827 178.116 133.415 178.433 134.33C178.751 135.245 177.793 137.981 177.793 137.981C177.793 137.981 181.506 135.949 182.71 135.141C183.915 134.334 183.915 134.334 183.915 134.334C183.915 134.334 182.525 130.538 181.582 129.452C180.639 128.366 179.352 128.53 180.439 127.587C181.525 126.644 183.147 127.141 184.073 128.481C184.998 129.821 186.087 132.448 186.087 132.448C186.087 132.448 187.474 132.673 189.275 130.633C191.077 128.591 190.487 127.912 188.529 126.754ZM171.509 132.51C170.071 131.791 173.488 130.352 173.488 130.352C174.747 130.172 172.948 133.23 171.509 132.51ZM173.932 125.796C173.319 125.49 175.159 124.876 175.159 124.876C177.816 125.387 174.546 126.103 173.932 125.796Z" fill="#92E3A9"/>
<path d="M171.471 136.174C171.097 136.57 170.713 136.954 170.318 137.325" stroke="#263238" stroke-miterlimit="10" stroke-linecap="round"/>
<path d="M178.852 124.982C177.475 127.849 175.394 131.591 172.656 134.844" stroke="#263238" stroke-miterlimit="10" stroke-linecap="round"/>
<path d="M179.518 123.547C180.38 121.618 180.822 120.346 180.822 120.346C180.822 120.346 182.427 121.097 183.985 120.697C185.543 120.297 186.794 120.64 186.794 120.64" stroke="#263238" stroke-miterlimit="10" stroke-linecap="round"/>
<path d="M172.079 119.601C172.079 119.601 178.36 122.722 177.953 123.075" stroke="#263238" stroke-miterlimit="10" stroke-linecap="round"/>
<path d="M181.261 124.966C181.261 124.966 184.234 126.196 185.885 128.097" stroke="#263238" stroke-miterlimit="10" stroke-linecap="round"/>
<path d="M177.294 126.981C177.294 126.981 175.282 126.584 172.474 126.641C169.665 126.697 167.7 127.451 167.7 127.451" stroke="#263238" stroke-miterlimit="10" stroke-linecap="round"/>
<path d="M178.048 128.946C178.048 128.946 181.339 131.091 181.278 133.764" stroke="#263238" stroke-miterlimit="10" stroke-linecap="round"/>
<path d="M160.583 151.674C159.008 150.742 157.265 150.721 156.411 149.738C155.557 148.754 157.234 148.257 158.131 148.628C159.028 148.999 161.107 150.069 161.501 150.302C161.895 150.535 161.622 147.13 160.892 145.848C160.162 144.565 158.164 143.818 157.166 144.866C155.061 147.077 151.777 144.178 152.002 142.45C152.226 140.722 150.613 138.864 147.151 139.953C143.688 141.042 144.979 141.647 144.979 141.647C144.979 141.647 147.438 143.154 149.014 144.086C150.589 145.018 153.2 145.818 152.639 146.496C152.079 147.175 150.569 146.761 149.307 145.748C148.045 144.736 144.419 142.325 144.048 143.222C143.676 144.12 142.373 146.593 142.373 146.593C142.373 146.593 145.013 146.984 147.121 147.646C149.228 148.308 149.66 149.467 148.012 149.555C146.364 149.644 143.374 148.407 142.442 149.983C141.51 151.558 142.148 155.605 142.148 155.605C142.148 155.605 145.164 153.56 146.703 153.566C148.242 153.572 147.258 154.426 145.538 155.536C143.818 156.646 143.381 157.025 143.381 157.025L144.945 161.034C144.945 161.034 147.533 160.703 148.554 160.776C149.575 160.848 149.575 160.848 149.575 160.848C149.575 160.848 149.564 156.64 150.78 155.393C151.997 154.145 152.204 157.032 152.459 157.768C152.715 158.504 151.944 160.707 151.944 160.707C151.944 160.707 154.932 159.071 155.901 158.422C156.871 157.772 156.871 157.772 156.871 157.772C156.871 157.772 155.752 154.718 154.993 153.844C154.234 152.969 153.199 153.101 154.073 152.342C154.948 151.583 156.253 151.983 156.998 153.062C157.742 154.14 158.619 156.254 158.619 156.254C158.619 156.254 159.735 156.436 161.184 154.794C162.634 153.152 162.159 152.606 160.583 151.674ZM146.887 156.306C145.729 155.727 148.479 154.57 148.479 154.57C149.492 154.425 148.045 156.885 146.887 156.306ZM148.837 150.903C148.343 150.656 149.824 150.163 149.824 150.163C151.962 150.574 149.33 151.15 148.837 150.903Z" fill="#92E3A9"/>
<path d="M146.856 159.254C146.555 159.573 146.245 159.882 145.928 160.18" stroke="#263238" stroke-miterlimit="10" stroke-linecap="round"/>
<path d="M152.796 150.248C151.688 152.555 150.013 155.566 147.81 158.185" stroke="#263238" stroke-miterlimit="10" stroke-linecap="round"/>
<path d="M153.331 149.092C154.026 147.54 154.381 146.517 154.381 146.517C154.381 146.517 155.673 147.121 156.926 146.799C158.18 146.477 159.187 146.753 159.187 146.753" stroke="#263238" stroke-miterlimit="10" stroke-linecap="round"/>
<path d="M147.345 145.917C147.345 145.917 152.4 148.429 152.072 148.714" stroke="#263238" stroke-miterlimit="10" stroke-linecap="round"/>
<path d="M154.734 150.235C154.734 150.235 157.127 151.225 158.455 152.755" stroke="#263238" stroke-miterlimit="10" stroke-linecap="round"/>
<path d="M151.542 151.856C151.542 151.856 149.923 151.537 147.663 151.582C145.402 151.628 143.821 152.234 143.821 152.234" stroke="#263238" stroke-miterlimit="10" stroke-linecap="round"/>
<path d="M152.149 153.438C152.149 153.438 154.797 155.164 154.748 157.315" stroke="#263238" stroke-miterlimit="10" stroke-linecap="round"/>
<path d="M154.159 121.976C154.159 121.976 152.18 123.415 150.921 121.976C149.663 120.537 151.461 117.66 149.663 116.581C147.864 115.502 144.987 117.48 144.987 117.48C144.987 117.48 147.325 118.019 147.325 119.279C147.325 120.537 146.246 121.077 146.066 120.537C145.886 119.998 144.627 117.3 142.828 118.559C141.03 119.818 140.85 121.616 140.85 121.616C140.85 121.616 145.166 120.897 145.526 122.516C145.886 124.135 143.727 122.336 141.929 122.336C140.131 122.336 138.512 122.696 138.692 123.775C138.872 124.854 138.692 126.652 138.692 126.652C138.692 126.652 140.131 125.214 142.109 125.214C144.087 125.214 144.087 126.473 142.289 126.473C140.49 126.473 139.051 128.271 139.051 128.271C139.051 128.271 140.85 130.969 143.008 132.228C145.166 133.486 145.886 132.947 146.066 131.868C146.246 130.789 145.526 128.091 146.785 128.091C148.044 128.091 144.987 132.947 146.605 133.127C148.224 133.307 149.483 132.767 149.843 131.688C150.202 130.609 150.202 130.609 150.202 130.609C150.202 130.609 149.483 127.912 149.663 126.833C149.843 125.753 150.202 126.833 150.562 128.091C150.922 129.35 151.282 132.408 151.821 132.228C152.36 132.048 153.979 129.71 154.339 128.81C154.698 127.911 151.821 125.393 151.821 124.854C151.821 124.314 153.979 125.213 154.339 125.753C154.698 126.293 155.058 127.012 155.058 127.012C155.058 127.012 156.317 126.113 156.137 123.595C155.957 121.077 154.159 121.976 154.159 121.976Z" fill="#92E3A9"/>
<path d="M144.083 128.499C145.327 126.763 147.17 124.403 148.763 123.235" stroke="#263238" stroke-miterlimit="10" stroke-linecap="round"/>
<path d="M142.649 130.608C142.649 130.608 142.965 130.109 143.481 129.359" stroke="#263238" stroke-miterlimit="10" stroke-linecap="round"/>
<path d="M149.663 123.594C149.663 123.594 151.821 126.292 152.36 129.17" stroke="#263238" stroke-miterlimit="10" stroke-linecap="round"/>
<path d="M147.504 125.393C147.504 125.393 148.044 125.033 148.044 128.63" stroke="#263238" stroke-miterlimit="10" stroke-linecap="round"/>
<path d="M148.763 121.976C148.763 121.976 149.842 120.897 149.123 118.918" stroke="#263238" stroke-miterlimit="10" stroke-linecap="round"/>
<path d="M147.325 123.774L146.425 122.336" stroke="#263238" stroke-miterlimit="10" stroke-linecap="round"/>
<path d="M145.706 125.393C145.706 125.393 143.008 123.594 141.39 123.594" stroke="#263238" stroke-miterlimit="10" stroke-linecap="round"/>
<path d="M172.322 162.268H158.418V182.28H172.322V162.268Z" fill="#263238" stroke="#263238" stroke-width="2" stroke-miterlimit="10" stroke-linecap="round"/>
<path d="M167.011 29.1942H163.966V26.0281H158.209V29.1942H155.165C152.713 29.1942 150.726 31.1815 150.726 33.633V41.2827H171.449V33.633C171.449 31.1815 169.462 29.1942 167.011 29.1942Z" stroke="#263238" stroke-miterlimit="10" stroke-linecap="round"/>
<path d="M161.088 25.7403V12.2124" stroke="#263238" stroke-miterlimit="10" stroke-linecap="round"/>
<path d="M122.013 59.5941C122.013 59.5941 120.91 61.3943 120.968 62.033C121.026 62.6718 121.548 64.5883 119.98 67.4919C119.153 69.0231 118.296 71.6151 117.309 71.6733C115.503 71.7795 114.812 71.441 114.812 71.441C114.812 71.441 114.463 71.9638 114.289 73.764C114.289 73.764 111.153 72.8348 109.585 71.9638C108.016 71.0927 105.752 68.9439 105.752 68.9439C105.752 68.9439 104.823 65.5175 106.158 62.033C107.494 58.5485 114.115 53.7866 117.425 53.5543C120.735 53.322 120.677 53.7284 121.664 54.9481C122.652 56.1678 122.013 59.5941 122.013 59.5941Z" fill="white" stroke="#263238" stroke-miterlimit="10" stroke-linecap="round"/>
<path d="M107.48 64.9138C107.48 64.9138 107.356 66.3472 108.914 66.0357C108.914 66.0357 109.163 67.1576 109.724 67.8428" stroke="#263238" stroke-miterlimit="10" stroke-linecap="round"/>
<path d="M114.811 71.441L111.733 70.1636L112.663 73.2417L114.289 73.7644C114.289 73.7644 114.347 72.022 114.811 71.441Z" fill="#263238" stroke="#263238" stroke-miterlimit="10" stroke-linecap="round"/>
<path d="M109.12 71.8477L116.147 74.2284L116.263 76.3773L105.868 72.8928L109.12 71.8477Z" fill="white" stroke="#263238" stroke-miterlimit="10" stroke-linecap="round"/>
<path d="M119.748 55.0062C119.748 55.0062 117.657 54.3093 114.811 57.1551C111.965 60.0009 107.726 64.3564 107.726 64.3564C107.726 64.3564 106.855 66.563 108.191 67.8991C109.526 69.2347 110.746 68.6541 110.746 68.6541C110.746 68.6541 110.863 71.6159 108.597 73.0678C106.332 74.5198 101.57 73.0678 100.06 71.3254C98.5502 69.5833 100.99 65.6342 101.628 64.2986C102.267 62.963 102.209 62.7307 102.267 62.5566C102.325 62.3824 101.977 60.1176 102.673 58.0847C103.37 56.0522 106.506 50.8256 109.352 49.2573C112.198 47.6894 118.121 50.2447 119.98 51.4639C121.838 52.6836 123.638 53.206 123.871 55.0066C124.103 56.8068 122.012 59.5944 122.012 59.5944C122.012 59.5944 122.186 58.0847 121.373 56.865C120.561 55.6449 119.748 55.0062 119.748 55.0062Z" fill="#263238" stroke="#263238" stroke-miterlimit="10" stroke-linecap="round"/>
<path d="M119.748 55.0061C119.748 55.0061 117.134 51.4634 113.185 50.7087" stroke="#6B6B6B" stroke-miterlimit="10" stroke-linecap="round"/>
<path d="M102.964 61.8587C102.964 61.8587 105.171 58.7229 105.81 56.8645" stroke="#6B6B6B" stroke-miterlimit="10" stroke-linecap="round"/>
<path d="M106.913 64.9946C106.913 64.9946 104.881 68.0727 105.345 70.5698" stroke="#6B6B6B" stroke-miterlimit="10" stroke-linecap="round"/>
<path d="M120.212 59.6521C120.212 59.6521 118.644 60.6395 118.644 61.0459C118.644 61.4523 119.109 64.2981 118.703 64.7627C118.296 65.2273 116.786 64.5886 116.612 64.5304" stroke="#263238" stroke-miterlimit="10" stroke-linecap="round"/>
<path d="M118.47 66.9695C118.47 66.9695 116.786 67.4341 115.508 66.3889" stroke="#263238" stroke-miterlimit="10" stroke-linecap="round"/>
<path d="M116.902 59.0711C116.902 59.0711 116.031 58.0838 113.418 58.6065" stroke="#263238" stroke-width="2" stroke-miterlimit="10" stroke-linecap="round"/>
<path d="M120.619 59.768C120.619 59.768 121.2 59.7099 121.548 60.2326" stroke="#263238" stroke-width="2" stroke-miterlimit="10" stroke-linecap="round"/>
<path d="M115.015 60.8133C115.015 61.118 114.794 61.3652 114.521 61.3652C114.248 61.3652 114.027 61.1184 114.027 60.8133C114.027 60.5083 114.248 60.2615 114.521 60.2615C114.794 60.2619 115.015 60.5087 115.015 60.8133Z" fill="#263238"/>
<path d="M119.893 61.4525C119.893 61.7571 119.672 62.0044 119.399 62.0044C119.127 62.0044 118.906 61.7575 118.906 61.4525C118.906 61.1479 119.127 60.9006 119.399 60.9006C119.672 60.9006 119.893 61.1475 119.893 61.4525Z" fill="#263238"/>
<path d="M114.027 60.8132C114.027 60.8132 114.347 59.8259 115.857 60.6391" stroke="#263238" stroke-miterlimit="10" stroke-linecap="round"/>
<path d="M119.399 60.9006C119.399 60.9006 120.154 60.9297 120.619 61.4525" stroke="#263238" stroke-miterlimit="10" stroke-linecap="round"/>
<path d="M120.039 125.915C120.039 125.915 121.723 134.568 122.71 140.724C123.697 146.88 124.045 147.693 123.523 148.912C123.001 150.131 116.148 163.256 116.148 163.256L109.875 177.078C109.875 177.078 108.424 177.368 106.797 176.729C105.171 176.091 102.442 175.161 102.442 175.161C102.442 175.161 102.791 173.071 103.371 172.722C103.952 172.374 104.242 172.316 104.416 172.142C104.59 171.967 108.075 163.663 108.075 163.663L113.418 147.054L107.146 124.579C107.146 124.579 116.786 126.67 120.039 125.915Z" fill="#263238" stroke="#263238" stroke-miterlimit="10" stroke-linecap="round"/>
<path d="M102.442 175.161C102.442 175.161 101.919 176.613 101.919 177.136C101.919 177.659 101.512 178.936 101.28 179.459C101.048 179.982 101.048 179.982 101.048 179.982L102.209 180.621C102.209 180.621 103.487 178.472 103.545 178.298C103.603 178.124 104.416 178.065 105.519 179.633C106.623 181.201 106.449 182.479 106.449 182.479C106.449 182.479 110.339 184.047 112.662 184.337C114.985 184.628 115.624 184.454 115.624 184.454C115.624 184.454 116.321 183.583 115.276 182.886C114.231 182.189 111.733 179.866 111.385 179.575C111.037 179.285 109.817 176.323 109.817 176.323L102.442 175.161Z" fill="#263238" stroke="#263238" stroke-miterlimit="10" stroke-linecap="round"/>
<path d="M116.892 177.985C116.892 177.985 120.169 180.462 122.421 181.651C124.674 182.841 126.452 183.244 126.539 183.715C126.625 184.186 126.125 184.736 125.882 184.895C125.64 185.055 115.884 184.73 114.856 184.433C113.827 184.135 112.056 182.685 111.608 182.423C111.159 182.162 111.158 182.162 111.158 182.162L111.012 184.481L109.505 184.386C109.505 184.386 109.575 182.354 109.047 181.506C108.519 180.658 108.269 180.002 108.589 178.625C108.908 177.249 111.542 177.008 112.89 176.86C114.237 176.712 116.892 177.985 116.892 177.985Z" fill="white" stroke="#263238" stroke-miterlimit="10" stroke-linecap="round"/>
<path d="M122.422 181.651C121.604 181.219 120.651 180.617 119.769 180.026L119.02 182.077C119.02 182.077 116.919 182.177 111.918 179.359C110.635 178.636 109.608 178.298 108.789 178.194C108.697 178.324 108.626 178.466 108.589 178.625C108.269 180.001 108.519 180.657 109.047 181.505C109.576 182.353 109.505 184.385 109.505 184.385L111.012 184.48L110.955 182.179C110.955 182.179 112.553 182.587 113.009 182.836C115.268 184.068 114.596 184.134 115.625 184.432C116.653 184.73 125.64 185.055 125.883 184.895C126.125 184.736 126.626 184.186 126.539 183.715C126.452 183.244 124.674 182.841 122.422 181.651Z" fill="#707070" stroke="#263238" stroke-miterlimit="10" stroke-linecap="round"/>
<path d="M100.177 120.979C100.177 120.979 103.08 128.586 103.661 129.864C104.242 131.142 105.113 135.207 105.113 135.207C105.113 135.207 107.901 147.867 108.017 148.738C108.133 149.609 106.333 153.035 106.1 157.565C105.868 162.095 107.668 167.612 108.017 169.645C108.365 171.677 108.772 175.801 108.656 176.207C108.539 176.613 108.365 177.427 108.423 178.124C108.481 178.82 108.597 179.401 108.597 179.401C108.597 179.401 110.688 179.749 113.708 178.82C116.728 177.891 117.657 177.717 117.657 177.717C117.657 177.717 118.006 176.904 117.831 176.323C117.657 175.742 117.192 175.278 117.134 174.697C117.076 174.117 117.076 161.514 117.076 161.514C117.076 161.514 118.296 152.339 119.05 149.841C119.805 147.344 120.967 140.492 120.967 140.492L120.154 125.044C120.154 125.044 110.107 124.173 105.752 122.721C101.396 121.269 100.177 120.979 100.177 120.979Z" fill="#263238" stroke="#263238" stroke-miterlimit="10" stroke-linecap="round"/>
<path d="M116.438 75.5641C116.438 75.5641 107.669 72.8346 106.449 72.6601C105.229 72.486 102.152 73.9957 101.977 74.6926C101.803 75.3895 100.757 84.7975 101.861 89.4435C102.965 94.0895 105.055 98.1545 105.229 99.2001C105.403 100.246 103.139 105.937 101.745 109.479C100.351 113.022 98.609 116.739 98.2604 118.539C97.9121 120.339 97.9121 120.339 97.9121 120.339C97.9121 120.339 104.997 126.379 114.115 126.321C123.232 126.262 126.078 126.146 126.078 126.146C126.078 126.146 127.472 114.067 126.252 110.466C125.033 106.866 123.058 100.536 123.058 100.536C123.058 100.536 119.69 84.2169 118.877 81.197C118.064 78.1775 116.438 75.5641 116.438 75.5641Z" fill="#92E3A9" stroke="#263238" stroke-miterlimit="10" stroke-linecap="round"/>
<path d="M108.029 91.4548C107.594 91.2863 107.194 91.0831 106.855 90.8379" stroke="#263238" stroke-miterlimit="10" stroke-linecap="round"/>
<path d="M114.405 92.2317C114.405 92.2317 111.911 92.3702 109.602 91.9004" stroke="#263238" stroke-miterlimit="10" stroke-linecap="round"/>
<path d="M108.968 102.295C108.663 102.651 108.364 102.996 108.075 103.324" stroke="#263238" stroke-miterlimit="10" stroke-linecap="round"/>
<path d="M115.334 94.3804C115.334 94.3804 112.552 98.0135 109.855 101.244" stroke="#263238" stroke-miterlimit="10" stroke-linecap="round"/>
<path d="M117.425 96.4131C117.425 96.4131 117.367 96.7036 115.044 97.9232C112.721 99.1429 112.431 99.6075 112.779 99.7816C113.128 99.9558 113.708 99.898 114.696 99.5493C115.683 99.2007 117.135 98.5042 117.135 98.5042C117.135 98.5042 117.077 98.7365 115.218 99.7816C113.36 100.827 112.547 101.175 113.069 101.408C113.592 101.64 114.754 101.524 115.857 100.943C116.259 100.731 116.747 100.473 117.204 100.23C118 99.8083 118.703 99.4334 118.703 99.4334C118.703 99.4334 118.761 100.247 117.425 100.885C116.09 101.524 114.812 102.163 115.509 102.453C116.206 102.744 116.902 102.395 118.296 101.815C119.69 101.234 120.329 100.653 120.329 100.653C120.329 100.653 119.283 102.337 118.296 102.744C117.309 103.15 118.645 103.499 119.748 102.918C120.852 102.337 121.723 101.466 121.723 101.466L117.425 96.4131Z" fill="white" stroke="#263238" stroke-miterlimit="10" stroke-linecap="round"/>
<path d="M108.598 75.6223C108.598 75.6223 114.173 73.9381 116.264 73.4157C118.355 72.8929 118.878 73.2993 120.329 77.4807C121.781 81.6621 125.091 90.4313 127.472 93.1608C129.853 95.8902 130.086 97.6904 129.214 100.13C128.343 102.569 126.717 104.427 125.265 104.602C123.813 104.776 122.652 104.718 121.897 103.672C121.142 102.627 121.432 102.22 120.794 101.234C120.155 100.246 119.458 99.7815 118.064 98.33C116.67 96.878 115.625 94.3227 113.709 91.0709C111.792 87.8187 108.889 85.0311 108.889 85.0311" fill="#92E3A9"/>
<path d="M108.598 75.6223C108.598 75.6223 114.173 73.9381 116.264 73.4157C118.355 72.8929 118.878 73.2993 120.329 77.4807C121.781 81.6621 125.091 90.4313 127.472 93.1608C129.853 95.8902 130.086 97.6904 129.214 100.13C128.343 102.569 126.717 104.427 125.265 104.602C123.813 104.776 122.652 104.718 121.897 103.672C121.142 102.627 121.432 102.22 120.794 101.234C120.155 100.246 119.458 99.7815 118.064 98.33C116.67 96.878 115.625 94.3227 113.709 91.0709C111.792 87.8187 108.889 85.0311 108.889 85.0311" stroke="#263238" stroke-miterlimit="10" stroke-linecap="round"/>
<path d="M124.958 102.727C125.166 102.679 125.367 102.59 125.556 102.453C127.066 101.349 129.273 98.5618 128.924 96.5874" stroke="#263238" stroke-miterlimit="10" stroke-linecap="round"/>
<path d="M121.723 101.465C121.723 101.465 122.658 102.307 123.727 102.64" stroke="#263238" stroke-miterlimit="10" stroke-linecap="round"/>
<path d="M67.776 85.9017L70.5054 84.9144C70.5054 84.9144 71.7832 83.7529 71.9574 83.6365C72.1315 83.5206 74.2804 83.2301 74.3385 82.7655C74.3967 82.3009 76.1969 81.0234 76.1969 81.0234L75.7323 87.0051L66.8472 87.3537C66.8472 87.3537 67.3114 86.6564 67.776 85.9017Z" fill="#92E3A9" stroke="#263238" stroke-miterlimit="10" stroke-linecap="round"/>
<path d="M71.2023 86.1918C71.2023 86.1918 70.6213 85.3786 70.5054 84.914C70.3894 84.4494 70.7377 84.1589 71.2023 84.2752C71.6669 84.3912 72.4797 85.669 72.4797 85.669C72.4797 85.669 72.2474 84.798 72.0733 84.1593C71.8992 83.5206 72.3056 83.056 72.8284 83.4042C73.3511 83.7529 74.164 85.9013 74.164 85.9013C74.164 85.9013 73.4671 83.4624 73.6412 83.1137C73.8153 82.7651 73.9895 82.4168 74.3381 82.7651C74.6868 83.1133 75.4414 84.6817 75.4414 84.9717C75.4414 85.2622 75.7901 86.4237 75.7901 86.4237L71.8992 87.0624L71.2023 86.1918Z" fill="white" stroke="#263238" stroke-miterlimit="10" stroke-linecap="round"/>
<path d="M80.7263 74.1704C80.7263 74.1704 75.4415 79.4551 75.3252 80.3261C75.2088 81.1972 73.9896 95.2511 73.3508 97.2836C72.7121 99.3162 71.086 105.762 71.086 105.762C71.086 105.762 68.6471 120.978 68.8794 121.036C69.1117 121.094 72.5962 121.559 72.5962 121.559L74.1641 104.253L78.5196 78.9905L81.9459 73.9963C81.9459 73.9963 81.249 73.764 80.7263 74.1704Z" fill="#92E3A9" stroke="#263238" stroke-miterlimit="10" stroke-linecap="round"/>
<path d="M72.5376 106.344C72.5376 106.344 71.7826 118.656 71.8989 120.862C72.0149 123.069 73.4668 135.497 73.4668 135.497C73.4668 135.497 73.9896 149.783 75.7317 153.5C77.4741 157.217 83.5717 166.915 84.3268 168.077C85.0818 169.238 86.2433 172.2 86.2433 172.2C86.2433 172.2 84.9077 173.594 85.3141 174.465C85.7206 175.336 86.4175 176.671 86.4175 176.671C86.4175 176.671 83.688 179.11 81.8878 180.156C80.0876 181.201 77.8805 182.479 77.9387 182.827C77.9969 183.175 78.2874 183.292 78.8097 183.408C79.3325 183.524 95.3608 183.408 95.3608 183.408L95.0703 172.664L91.644 161.746L85.1978 142.872L85.7205 120.049L85.1396 105.705L72.5376 106.344Z" fill="#263238" stroke="#263238" stroke-miterlimit="10" stroke-linecap="round"/>
<path d="M87.2308 177.717C87.2308 177.717 83.2817 180.563 83.1076 180.679C82.9335 180.795 78.1711 183.117 77.5324 183.292C76.8937 183.466 76.4291 183.582 76.4873 184.047C76.5454 184.512 76.255 184.396 76.5454 184.512C76.8359 184.628 83.0498 184.686 86.3598 184.686C89.6702 184.686 90.8895 184.338 90.8895 184.338L92.1669 183.699L92.6315 183.582V184.512H97.7421C97.7421 184.512 97.8581 183.118 97.8581 182.769C97.8581 182.421 97.8581 182.421 97.8581 182.421C97.8581 182.421 97.6258 181.201 97.1612 180.272C96.6966 179.342 96.5224 178.994 96.5224 178.994L87.2308 177.717Z" fill="#707070" stroke="#263238" stroke-miterlimit="10" stroke-linecap="round"/>
<path d="M78.2295 124.521C78.2295 124.521 79.9715 144.44 81.0753 147.286C82.1786 150.131 83.4564 154.429 83.4564 154.429C83.4564 154.429 87.4637 168.134 87.6378 169.818C87.812 171.503 88.1024 172.141 87.7542 172.432C87.4055 172.722 87.2896 173.709 87.4637 174.348C87.6378 174.987 87.696 175.975 87.696 175.975C87.696 175.975 87.2314 176.091 87.2314 176.671C87.2314 177.252 87.2314 177.717 87.2314 177.717C87.2314 177.717 89.6708 178.878 93.3872 179.807C97.104 180.736 97.1621 180.272 97.1621 180.272C97.1621 180.272 97.859 176.207 97.5686 174.29C97.2781 172.374 96.9876 169.064 97.104 168.018C97.2203 166.973 98.1495 161.166 97.859 159.191C97.5686 157.216 96.8717 155.532 96.8717 155.532C96.8717 155.532 93.9681 143.569 93.9681 143.337C93.9681 143.104 94.1422 137.703 94.1422 137.703C94.1422 137.703 94.5487 128.76 94.5487 128.586C94.5487 128.412 95.2456 125.508 95.536 124.346C95.8265 123.185 95.9425 122.836 95.9425 122.836L78.2295 124.521Z" fill="#263238" stroke="#263238" stroke-miterlimit="10" stroke-linecap="round"/>
<path d="M83.7461 70.9185C83.7461 70.9185 77.0675 77.8875 76.5448 80.036C76.022 82.1849 73.9894 99.4328 73.5248 101.465C73.0602 103.498 71.26 105.879 73.0021 106.982C74.7441 108.086 75.7897 107.97 75.7897 107.97C75.7897 107.97 79.5065 85.6112 81.3649 81.8362C83.2233 78.0613 89.7854 70.3376 89.1467 69.5243C88.508 68.7115 85.7204 69.9893 83.7461 70.9185Z" fill="#707070" stroke="#263238" stroke-miterlimit="10" stroke-linecap="round"/>
<path d="M86.5922 66.0979L83.1077 68.6532C83.1077 68.6532 82.3535 72.7271 82.8754 72.486C83.6305 72.1373 83.6305 72.1373 83.6305 72.1373V73.2988L86.1276 69.6983L86.5922 66.0979Z" fill="#707070" stroke="#263238" stroke-miterlimit="10" stroke-linecap="round"/>
<path d="M83.6302 72.1377L83.4561 69.0601" stroke="#263238" stroke-miterlimit="10" stroke-linecap="round"/>
<path d="M85.8369 70.1635C85.8369 70.1635 80.7845 77.1903 79.0424 82.4172C77.3 87.6438 74.6287 112.442 74.6287 112.442L74.4546 124.637C74.4546 124.637 79.1588 127.948 86.592 126.67C94.0256 125.392 99.6008 123.708 99.6008 123.708C99.6008 123.708 98.1488 107.389 97.8005 106.17C97.4519 104.95 96.6972 100.768 96.6972 100.768C96.6972 100.768 103.608 82.0685 103.318 77.4225C103.027 72.7765 98.962 67.4336 97.5101 65.6916C96.0581 63.9491 95.5935 63.5427 95.5935 63.5427L85.8369 70.1635Z" fill="#92E3A9" stroke="#263238" stroke-miterlimit="10" stroke-linecap="round"/>
<path d="M84.6751 42.3456C84.6751 42.3456 82.7586 41.5328 82.8167 44.5527C82.8749 47.5726 84.9656 47.2821 84.9656 47.2821L87.1145 43.9717L84.6751 42.3456Z" fill="#263238" stroke="#263238" stroke-miterlimit="10" stroke-linecap="round"/>
<path d="M85.4881 44.3785C85.4881 44.3785 83.2815 48.3276 82.991 49.0827C82.7005 49.8378 82.6427 52.1608 82.4104 54.077C82.1781 55.9935 82.004 58.142 82.5268 60.2331C82.7219 61.0132 83.0169 61.7938 83.5105 62.4365C84.0697 63.1645 85.0066 63.272 85.8958 63.289C85.8743 65.5805 85.8566 67.8719 85.8372 70.1634L95.3615 62.9621L95.5356 59.013C95.5356 59.013 96.9294 57.8515 98.1491 55.4704C99.3688 53.0892 100.704 50.1275 98.4395 45.656C96.1747 41.1841 86.244 40.2549 84.9084 40.6617C83.5719 41.0682 85.4881 44.3785 85.4881 44.3785Z" fill="white" stroke="#263238" stroke-miterlimit="10" stroke-linecap="round"/>
<path d="M98.4388 45.656C96.174 41.1841 86.2433 40.2549 84.9077 40.6617C83.572 41.0682 85.4886 44.3785 85.4886 44.3785C85.4886 44.3785 88.799 47.5144 91.8767 48.3858C94.9547 49.2568 95.303 49.315 95.303 49.315C95.303 49.315 93.5605 50.0701 94.1415 50.5925C94.7224 51.1152 95.2448 51.638 95.2448 51.638L93.5605 57.2132L95.1866 57.0973C95.1866 57.0973 95.6512 53.7869 96.9869 53.7291C98.3225 53.6709 97.9161 55.4134 97.6838 55.9358C97.6531 56.0045 97.7286 56.0105 97.8789 55.9713C97.9694 55.8105 98.0595 55.6449 98.1484 55.4712C99.368 53.0896 100.704 50.1279 98.4388 45.656Z" fill="#263238" stroke="#263238" stroke-miterlimit="10" stroke-linecap="round"/>
<path d="M86.4172 50.4185L86.4753 51.9282L85.0815 55.9355L87.2882 56.3419" stroke="#263238" stroke-miterlimit="10" stroke-linecap="round"/>
<path d="M84.8496 58.2002C84.8496 58.2002 87.7532 59.2453 89.7861 57.155" stroke="#263238" stroke-miterlimit="10" stroke-linecap="round"/>
<path d="M89.0308 56.7483L90.4246 57.5615" stroke="#263238" stroke-miterlimit="10" stroke-linecap="round"/>
<path d="M89.0308 50.0116C89.0308 50.0116 91.1796 49.547 92.3411 50.5925" stroke="#263238" stroke-width="2" stroke-miterlimit="10" stroke-linecap="round"/>
<path d="M86.127 49.6633C86.127 49.6633 85.0819 48.6177 83.6299 49.1987" stroke="#263238" stroke-width="2" stroke-miterlimit="10" stroke-linecap="round"/>
<path d="M91.2389 52.7986C91.2389 53.1198 90.9787 53.38 90.6575 53.38C90.3363 53.38 90.0762 53.1198 90.0762 52.7986C90.0762 52.4775 90.3363 52.2173 90.6575 52.2173C90.9787 52.2173 91.2389 52.4775 91.2389 52.7986Z" fill="#263238"/>
<path d="M85.8951 51.754C85.8951 52.0751 85.635 52.3353 85.3138 52.3353C84.9926 52.3353 84.7324 52.0751 84.7324 51.754C84.7324 51.4328 84.9926 51.1726 85.3138 51.1726C85.635 51.1726 85.8951 51.4328 85.8951 51.754Z" fill="#263238"/>
<path d="M85.8955 63.2891C85.8955 63.2891 89.3214 62.7299 92.2831 60.9297C92.2831 60.9297 89.786 64.6465 86.1274 66.0985L85.8955 63.2891Z" fill="#263238" stroke="#263238" stroke-miterlimit="10" stroke-linecap="round"/>
<path d="M95.5933 61.8589L85.082 68.5374L85.7208 71.5573L96.4066 63.7173L95.5933 61.8589Z" fill="#707070" stroke="#263238" stroke-miterlimit="10" stroke-linecap="round"/>
<path d="M79.6808 92.2315C79.6808 92.2315 79.855 89.2698 80.0295 87.9341C80.2036 86.5985 81.0746 85.437 81.0746 85.437L72.3636 86.0757C72.3636 86.0757 68.4727 85.553 67.253 86.3662C66.0333 87.1791 65.801 88.3987 65.0463 89.9089C64.2913 91.419 64.1753 93.3352 64.7559 94.2062C65.3368 95.0773 67.253 95.9483 69.5178 96.6452C71.7826 97.3421 72.77 96.5292 73.7574 95.8901C74.7448 95.2514 79.6808 92.2315 79.6808 92.2315Z" fill="#92E3A9" stroke="#263238" stroke-miterlimit="10" stroke-linecap="round"/>
<path d="M81.0745 85.4371L82.5846 85.2048C82.5846 85.2048 81.0745 87.5278 81.0167 88.6893C80.9585 89.8508 81.249 91.1283 81.249 91.1283L79.6811 92.2316C79.6811 92.2316 79.3324 88.4566 79.6229 87.121C79.913 85.7854 81.0745 85.4371 81.0745 85.4371Z" fill="white" stroke="#263238" stroke-miterlimit="10" stroke-linecap="round"/>
<path d="M82.5848 85.2048C82.5848 85.2048 83.514 84.7402 84.3269 85.1467C85.1397 85.5531 87.1727 86.5405 87.1727 86.5405L86.1853 91.0701C86.1853 91.0701 84.0364 91.8252 82.8749 91.8252C81.7134 91.8252 81.2488 91.1283 81.2488 91.1283C81.2488 91.1283 81.3652 90.025 81.0165 88.6893C80.6679 87.3537 82.5848 85.2048 82.5848 85.2048Z" fill="white" stroke="#263238" stroke-miterlimit="10" stroke-linecap="round"/>
<path d="M90.8311 73.2993C90.8311 73.2993 87.463 78.584 87.5207 79.8037C87.5789 81.0234 87.8694 81.5458 87.8694 81.5458L85.3141 87.3533C85.3141 87.3533 84.3267 87.4696 84.3267 88.2825C84.3267 89.0953 84.1526 89.444 84.1526 89.444C84.1526 89.444 81.6555 91.0119 79.9712 91.5347C78.2869 92.0574 75.2092 93.3931 73.0604 95.0773C70.9115 96.7616 69.4017 98.9683 70.3891 99.491C71.3765 100.014 73.8736 99.7233 74.2219 99.6652C74.5701 99.607 84.559 100.768 86.8238 100.013C89.0887 99.2583 88.2758 100.42 90.5406 99.2006C92.8055 97.9809 93.0378 96.7616 93.0378 96.7616C93.0378 96.7616 93.8506 96.4711 97.045 90.4895C100.239 84.5079 101.342 80.5006 101.459 77.1906" fill="#92E3A9"/>
<path d="M90.8311 73.2993C90.8311 73.2993 87.463 78.584 87.5207 79.8037C87.5789 81.0234 87.8694 81.5458 87.8694 81.5458L85.3141 87.3533C85.3141 87.3533 84.3267 87.4696 84.3267 88.2825C84.3267 89.0953 84.1526 89.444 84.1526 89.444C84.1526 89.444 81.6555 91.0119 79.9712 91.5347C78.2869 92.0574 75.2092 93.3931 73.0604 95.0773C70.9115 96.7616 69.4017 98.9683 70.3891 99.491C71.3765 100.014 73.8736 99.7233 74.2219 99.6652C74.5701 99.607 84.559 100.768 86.8238 100.013C89.0887 99.2583 88.2758 100.42 90.5406 99.2006C92.8055 97.9809 93.0378 96.7616 93.0378 96.7616C93.0378 96.7616 93.8506 96.4711 97.045 90.4895C100.239 84.5079 101.342 80.5006 101.459 77.1906" stroke="#263238" stroke-miterlimit="10" stroke-linecap="round"/>
<path d="M92.718 79.7371C92.3302 80.1584 92.0336 80.5564 91.8765 80.907" stroke="#263238" stroke-miterlimit="10" stroke-linecap="round"/>
<path d="M99.3681 74.635C99.3681 74.635 96.0714 76.6954 93.8159 78.6786" stroke="#263238" stroke-miterlimit="10" stroke-linecap="round"/>
<path d="M87.2773 98.1543C87.7508 98.4508 88.2074 98.6763 88.6243 98.7938" stroke="#263238" stroke-miterlimit="10" stroke-linecap="round"/>
<path d="M81.6553 92.8704C81.6553 92.8704 83.8696 95.5335 86.1074 97.3156" stroke="#263238" stroke-miterlimit="10" stroke-linecap="round"/>
<path d="M80.7847 93.5095C80.7847 93.5095 83.5723 96.5294 84.3273 97.1681" stroke="#263238" stroke-miterlimit="10" stroke-linecap="round"/>
<path d="M84.1523 89.4439C84.1523 89.4439 85.4302 89.5021 88.1596 87.876" stroke="#263238" stroke-miterlimit="10" stroke-linecap="round"/>
</svg>
